SplineFontDB: 3.2
FontName: Morana
FullName: Morana
FamilyName: Morana
Weight: Bold
Copyright: Copyright (c) 2021. Vesko Radic <radic.vesko@gmail.com>
UComments: "2021-1-27: Created with FontForge (http://fontforge.org)"
Version: 0.1.1
ItalicAngle: 0
UnderlinePosition: -100
UnderlineWidth: 50
Ascent: 800
Descent: 200
InvalidEm: 0
LayerCount: 2
Layer: 0 0 "Back" 1
Layer: 1 0 "Fore" 0
XUID: [1021 710 1757882239 2565560]
BaseHoriz: 1 'romn'
BaseScript: 'cyrl' 0  0
BaseScript: 'latn' 0  0
StyleMap: 0x0020
FSType: 0
OS2Version: 0
OS2_WeightWidthSlopeOnly: 0
OS2_UseTypoMetrics: 1
CreationTime: 1611756190
ModificationTime: 1617397922
PfmFamily: 81
TTFWeight: 400
TTFWidth: 5
LineGap: 90
VLineGap: 90
OS2TypoAscent: 0
OS2TypoAOffset: 1
OS2TypoDescent: 0
OS2TypoDOffset: 1
OS2TypoLinegap: 90
OS2WinAscent: 0
OS2WinAOffset: 1
OS2WinDescent: 0
OS2WinDOffset: 1
HheadAscent: 0
HheadAOffset: 1
HheadDescent: 0
HheadDOffset: 1
OS2Vendor: 'PfEd'
Lookup: 1 0 0 "'locl' Localized Forms in Cyrillic lookup 0" { "'locl' Localized Forms in Cyrillic lookup 0-1"  } ['locl' ('cyrl' <'SRB ' > ) ]
Lookup: 1 0 0 "'onum' Oldstyle Figures lookup 0" { "'onum' Oldstyle Figures lookup 0-1" ("oldstyle") } ['onum' ('DFLT' <'dflt' > 'cyrl' <'dflt' > 'latn' <'dflt' > ) ]
Lookup: 258 0 0 "'kern' Horizontal Kerning lookup 1" { "'kern' Horizontal Kerning lookup 1-1" [150,0,6] } ['kern' ('DFLT' <'dflt' > 'cyrl' <'SRB ' 'dflt' > 'latn' <'dflt' > ) ]
MarkAttachClasses: 1
DEI: 91125
KernClass2: 51 33 "'kern' Horizontal Kerning lookup 1-1"
 38 C Cacute Ccircumflex Cdotaccent Ccaron
 78 E Egrave Eacute Ecircumflex Edieresis Emacron Ebreve Edotaccent Eogonek Ecaron
 1 F
 39 G Gcircumflex Gbreve Gdotaccent uni0122
 21 L Lacute uni013B Ldot
 1 P
 36 S Sacute Scircumflex Scedilla Scaron
 16 T uni0162 Tcaron
 23 Y Ycircumflex Ydieresis
 65 a agrave aacute acircumflex atilde adieresis aring amacron abreve
 1 b
 31 c cacute ccircumflex cdotaccent
 1 d
 30 e ae emacron ebreve edotaccent
 1 f

StartChar: A
Encoding: 65 65 0
Width: 558
Flags: HMW
LayerCount: 2
Fore
SplineSet
279 602 m 4
 251 602 229 583 229 553 c 6
 229 299 l 1
 329 299 l 1
 329 553 l 6
 329 583 307 602 279 602 c 4
30 -100 m 1
 30 553 l 6
 30 588 53 607 80 620 c 4
 116 638 182 652 279 652 c 4
 376 652 442 638 478 620 c 4
 505 607 528 588 528 553 c 6
 528 -100 l 1
 462 -100 395 -100 329 -100 c 1
 329 249 l 1
 229 249 l 1
 229 -100 l 1
 163 -100 96 -100 30 -100 c 1
EndSplineSet
Validated: 1
EndChar

StartChar: B
Encoding: 66 66 1
Width: 558
Flags: HMW
LayerCount: 2
Fore
SplineSet
229 249 m 1
 229 -50 l 5
 270 -50 299 -38 314 -20 c 4
 323 -9 329 6 329 25 c 6
 329 174 l 2
 329 229 282 249 229 249 c 1
478 423 m 2
 478 350 420 309 358 290 c 1
 424 280 478 266 509 229 c 0
 522 214 528 196 528 174 c 2
 528 25 l 6
 528 -20 499 -45 465 -62 c 4
 413 -87 311 -100 229 -100 c 4
 163 -100 96 -100 30 -100 c 5
 30 149 30 398 30 647 c 1
 96 647 163 647 229 647 c 0
 296 647 348 637 381 626 c 0
 431 609 478 580 478 523 c 2
 478 423 l 2
229 334 m 1
 256 352 279 383 279 423 c 2
 279 523 l 2
 279 559 255 581 229 593 c 1
 229 334 l 1
EndSplineSet
Validated: 1
EndChar

StartChar: C
Encoding: 67 67 2
Width: 558
Flags: HMW
LayerCount: 2
Fore
SplineSet
279 -55 m 4
 307 -55 329 -35 329 -5 c 6
 329 49 l 1
 528 49 l 1
 528 -5 l 6
 528 -40 505 -60 478 -73 c 4
 442 -91 376 -105 279 -105 c 4
 182 -105 116 -91 80 -73 c 4
 53 -60 30 -40 30 -5 c 6
 30 553 l 2
 30 588 53 607 80 620 c 0
 116 638 182 652 279 652 c 0
 376 652 442 638 478 620 c 0
 505 607 528 588 528 553 c 2
 528 498 l 1
 329 498 l 1
 329 553 l 2
 329 583 307 602 279 602 c 0
 253 602 229 584 229 555 c 0
 229 554 229 554 229 553 c 2
 229 -5 l 6
 229 -35 251 -55 279 -55 c 4
EndSplineSet
Validated: 1
EndChar

StartChar: D
Encoding: 68 68 3
Width: 558
Flags: HMW
LayerCount: 2
Fore
SplineSet
229 -100 m 4
 163 -100 96 -100 30 -100 c 5
 30 149 30 398 30 647 c 1
 96 647 163 647 229 647 c 0
 311 647 413 634 465 609 c 0
 499 592 528 568 528 523 c 2
 528 25 l 6
 528 -20 499 -45 465 -62 c 4
 413 -87 311 -100 229 -100 c 4
229 597 m 1
 229 -50 l 5
 270 -50 299 -38 314 -20 c 4
 323 -9 329 6 329 25 c 6
 329 523 l 2
 329 578 282 597 229 597 c 1
EndSplineSet
Validated: 1
EndChar

StartChar: I
Encoding: 73 73 4
Width: 289
Flags: HMW
LayerCount: 2
Fore
SplineSet
45 -100 m 1
 45 149 45 398 45 647 c 5
 244 647 l 1
 244 398 244 149 244 -100 c 1
 45 -100 l 1
EndSplineSet
Validated: 1
EndChar

StartChar: a
Encoding: 97 97 5
Width: 558
Flags: HMW
LayerCount: 2
Fore
SplineSet
229 50 m 1
 270 50 299 62 314 80 c 0
 323 91 329 106 329 125 c 2
 329 249 l 1
 288 249 259 237 244 219 c 0
 235 208 229 193 229 174 c 2
 229 50 l 1
279 453 m 4
 251 453 229 434 229 404 c 6
 229 349 l 1
 30 349 l 1
 30 404 l 6
 30 439 53 458 80 471 c 4
 116 489 182 503 279 503 c 4
 376 503 442 489 478 471 c 4
 505 458 528 439 528 404 c 6
 528 0 l 1
 462 0 395 0 329 0 c 1
 329 5 l 1
 295 1 260 0 229 0 c 0
 163 0 96 0 30 0 c 1
 30 174 l 2
 30 219 59 244 93 261 c 0
 145 286 247 299 329 299 c 1
 329 404 l 6
 329 434 307 453 279 453 c 4
EndSplineSet
Validated: 1
EndChar

StartChar: b
Encoding: 98 98 6
Width: 558
Flags: MW
LayerCount: 2
Fore
SplineSet
229 40 m 1
 270 40 299 52 314 70 c 0
 323 81 329 96 329 115 c 2
 329 374 l 2
 329 375 329 375 329 376 c 0
 329 430 281 448 229 448 c 1
 229 40 l 1
30 -10 m 1
 30 209 30 429 30 648 c 1
 229 648 l 1
 229 498 l 1
 311 498 413 485 465 460 c 0
 499 443 528 419 528 374 c 2
 528 115 l 2
 528 70 499 45 465 28 c 0
 413 3 311 -10 229 -10 c 0
 163 -10 96 -10 30 -10 c 1
EndSplineSet
Validated: 1
EndChar

StartChar: c
Encoding: 99 99 7
Width: 558
Flags: HMW
LayerCount: 2
Fore
SplineSet
279 45 m 4
 307 45 329 65 329 95 c 6
 329 149 l 1
 528 149 l 1
 528 95 l 6
 528 60 505 40 478 27 c 4
 442 9 376 -5 279 -5 c 4
 182 -5 116 9 80 27 c 4
 53 40 30 60 30 95 c 6
 30 404 l 2
 30 439 53 458 80 471 c 0
 116 489 182 503 279 503 c 0
 376 503 442 489 478 471 c 0
 505 458 528 439 528 404 c 2
 528 349 l 1
 329 349 l 1
 329 404 l 2
 329 434 307 453 279 453 c 0
 253 453 229 435 229 406 c 0
 229 405 229 405 229 404 c 2
 229 95 l 6
 229 65 251 45 279 45 c 4
EndSplineSet
Validated: 1
EndChar

StartChar: d
Encoding: 100 100 8
Width: 558
Flags: HMW
LayerCount: 2
Fore
SplineSet
329 448 m 1
 278 448 229 429 229 376 c 0
 229 375 229 375 229 374 c 2
 229 125 l 6
 229 106 235 91 244 80 c 4
 259 62 288 50 329 50 c 5
 329 448 l 1
329 648 m 1
 528 648 l 1
 528 432 528 216 528 0 c 5
 462 0 395 0 329 0 c 4
 247 0 145 13 93 38 c 4
 59 55 30 80 30 125 c 6
 30 374 l 2
 30 419 59 443 93 460 c 0
 145 485 247 498 329 498 c 1
 329 648 l 1
EndSplineSet
Validated: 1
EndChar

StartChar: i
Encoding: 105 105 9
Width: 289
Flags: HMW
LayerCount: 2
Fore
SplineSet
45 0 m 1
 45 166 45 332 45 498 c 5
 244 498 l 1
 244 332 244 166 244 0 c 1
 45 0 l 1
45 548 m 1
 45 648 l 1
 244 648 l 1
 244 548 l 1
 45 548 l 1
EndSplineSet
Validated: 1
EndChar

StartChar: E
Encoding: 69 69 10
Width: 558
Flags: MW
LayerCount: 2
Fore
SplineSet
30 -100 m 1
 30 647 l 1
 528 647 l 1
 528 498 l 1
 329 498 l 1
 329 597 l 1
 229 597 l 1
 229 299 l 1
 379 299 l 1
 379 249 l 1
 229 249 l 1
 229 -50 l 1
 329 -50 l 1
 329 -17 329 16 329 49 c 1
 528 49 l 1
 528 -1 528 -50 528 -100 c 1
 30 -100 l 1
EndSplineSet
Validated: 1
EndChar

StartChar: e
Encoding: 101 101 11
Width: 558
Flags: HMW
LayerCount: 2
Fore
SplineSet
279 453 m 0
 251 453 229 434 229 404 c 2
 229 299 l 1
 329 299 l 1
 329 404 l 2
 329 434 307 453 279 453 c 0
279 45 m 4
 307 45 329 65 329 95 c 6
 329 149 l 1
 528 149 l 1
 528 95 l 6
 528 60 505 40 478 27 c 4
 442 9 376 -5 279 -5 c 4
 182 -5 116 9 80 27 c 4
 53 40 30 60 30 95 c 6
 30 404 l 2
 30 439 53 458 80 471 c 0
 116 489 182 503 279 503 c 0
 376 503 442 489 478 471 c 0
 505 458 528 439 528 404 c 0
 528 353 528 300 528 249 c 1
 229 249 l 1
 229 95 l 6
 229 65 251 45 279 45 c 4
EndSplineSet
Validated: 1
EndChar

StartChar: F
Encoding: 70 70 12
Width: 558
Flags: MW
LayerCount: 2
Fore
SplineSet
30 -100 m 1
 30 149 30 398 30 647 c 1
 528 647 l 5
 528 498 l 1
 329 498 l 1
 329 597 l 1
 229 597 l 1
 229 299 l 1
 379 299 l 1
 379 249 l 1
 229 249 l 1
 229 133 229 16 229 -100 c 1
 30 -100 l 1
EndSplineSet
Validated: 1
EndChar

StartChar: f
Encoding: 102 102 13
Width: 558
Flags: HMW
LayerCount: 2
Fore
SplineSet
279 603 m 0
 251 603 229 583 229 553 c 2
 229 300 l 1
 379 300 l 1
 379 250 l 1
 229 250 l 1
 229 167 229 84 229 1 c 1
 30 1 l 1
 30 185 30 369 30 553 c 0
 30 588 53 608 80 621 c 0
 116 639 182 653 279 653 c 0
 376 653 442 639 478 621 c 0
 505 608 528 588 528 553 c 2
 528 499 l 1
 329 499 l 1
 329 553 l 2
 329 583 307 603 279 603 c 0
EndSplineSet
Validated: 1
EndChar

StartChar: J
Encoding: 74 74 14
Width: 558
Flags: HMW
LayerCount: 2
Fore
SplineSet
279 -55 m 4
 307 -55 329 -35 329 -5 c 6
 329 648 l 1
 528 648 l 1
 528 -5 l 6
 528 -40 505 -60 478 -73 c 4
 442 -91 376 -105 279 -105 c 4
 182 -105 116 -91 80 -73 c 4
 53 -60 30 -40 30 -5 c 6
 30 50 l 1
 229 50 l 1
 229 -5 l 6
 229 -6 229 -6 229 -7 c 4
 229 -36 253 -55 279 -55 c 4
EndSplineSet
Validated: 1
EndChar

StartChar: j
Encoding: 106 106 15
Width: 558
Flags: MW
LayerCount: 2
Fore
SplineSet
279 -150 m 0
 307 -150 329 -130 329 -100 c 2
 329 497 l 1
 395 497 462 497 528 497 c 1
 528 -100 l 2
 528 -135 505 -155 478 -168 c 0
 442 -186 376 -200 279 -200 c 0
 182 -200 116 -186 80 -168 c 0
 53 -155 30 -135 30 -100 c 2
 30 -51 l 1
 229 -51 l 1
 229 -100 l 2
 229 -130 251 -150 279 -150 c 0
329 547 m 1
 329 647 l 1
 528 647 l 1
 528 547 l 1
 329 547 l 1
EndSplineSet
Validated: 1
EndChar

StartChar: G
Encoding: 71 71 16
Width: 558
Flags: HMW
LayerCount: 2
Fore
SplineSet
279 -55 m 4
 307 -55 329 -35 329 -5 c 4
 329 79 329 165 329 249 c 1
 279 249 l 1
 279 299 l 1
 362 299 445 299 528 299 c 1
 528 198 528 96 528 -5 c 4
 528 -40 505 -60 478 -73 c 4
 442 -91 376 -105 279 -105 c 4
 182 -105 116 -91 80 -73 c 4
 53 -60 30 -40 30 -5 c 6
 30 553 l 2
 30 588 53 607 80 620 c 0
 116 638 182 652 279 652 c 0
 376 652 442 638 478 620 c 0
 505 607 528 588 528 553 c 2
 528 498 l 1
 329 498 l 1
 329 553 l 2
 329 583 307 602 279 602 c 0
 253 602 229 584 229 555 c 0
 229 554 229 554 229 553 c 2
 229 -5 l 6
 229 -35 251 -55 279 -55 c 4
EndSplineSet
Validated: 1
EndChar

StartChar: H
Encoding: 72 72 17
Width: 558
Flags: MW
LayerCount: 2
Fore
SplineSet
528 299 m 1
 528 249 l 1
 528 -50 l 1
 528 -100 l 1
 329 -100 l 1
 329 249 l 1
 229 249 l 1
 229 -50 l 1
 229 -100 l 1
 30 -100 l 1
 30 249 l 1
 30 299 l 1
 30 597 l 1
 30 647 l 1
 229 647 l 1
 229 299 l 1
 329 299 l 1
 329 597 l 1
 329 647 l 1
 528 647 l 5
 528 299 l 1
EndSplineSet
Validated: 1
EndChar

StartChar: h
Encoding: 104 104 18
Width: 558
Flags: MW
LayerCount: 2
Fore
SplineSet
279 448 m 0
 251 448 229 429 229 399 c 0
 229 266 229 133 229 0 c 1
 30 0 l 1
 30 648 l 1
 229 648 l 1
 229 497 l 1
 245 498 261 498 279 498 c 0
 376 498 442 484 478 466 c 0
 505 453 528 434 528 399 c 2
 528 0 l 1
 462 0 395 0 329 0 c 1
 329 399 l 2
 329 429 307 448 279 448 c 0
EndSplineSet
Validated: 1
EndChar

StartChar: O
Encoding: 79 79 19
Width: 558
Flags: HMW
LayerCount: 2
Fore
SplineSet
30 -5 m 6
 30 553 l 2
 30 588 53 607 80 620 c 0
 116 638 182 652 279 652 c 0
 376 652 442 638 478 620 c 0
 505 607 528 588 528 553 c 2
 528 -5 l 6
 528 -40 505 -60 478 -73 c 4
 442 -91 376 -105 279 -105 c 4
 182 -105 116 -91 80 -73 c 4
 53 -60 30 -40 30 -5 c 6
279 602 m 0
 253 602 229 584 229 555 c 0
 229 554 229 554 229 553 c 2
 229 -5 l 6
 229 -35 251 -55 279 -55 c 4
 307 -55 329 -35 329 -5 c 6
 329 553 l 2
 329 583 307 602 279 602 c 0
EndSplineSet
Validated: 1
EndChar

StartChar: o
Encoding: 111 111 20
Width: 558
Flags: HMW
LayerCount: 2
Fore
SplineSet
30 95 m 6
 30 404 l 2
 30 439 53 458 80 471 c 0
 116 489 182 503 279 503 c 0
 376 503 442 489 478 471 c 0
 505 458 528 439 528 404 c 2
 528 95 l 6
 528 60 505 40 478 27 c 4
 442 9 376 -5 279 -5 c 4
 182 -5 116 9 80 27 c 4
 53 40 30 60 30 95 c 6
279 453 m 0
 253 453 229 435 229 406 c 0
 229 405 229 405 229 404 c 2
 229 95 l 6
 229 65 251 45 279 45 c 4
 307 45 329 65 329 95 c 6
 329 404 l 2
 329 434 307 453 279 453 c 0
EndSplineSet
Validated: 1
EndChar

StartChar: T
Encoding: 84 84 21
Width: 757
Flags: MW
LayerCount: 2
Fore
SplineSet
30 498 m 1
 30 548 30 597 30 647 c 1
 727 647 l 1
 727 498 l 1
 528 498 l 1
 528 597 l 1
 478 597 l 1
 478 365 478 132 478 -100 c 1
 279 -100 l 1
 279 597 l 1
 229 597 l 1
 229 564 229 531 229 498 c 1
 30 498 l 1
EndSplineSet
Validated: 1
EndChar

StartChar: t
Encoding: 116 116 22
Width: 708
Flags: HMW
LayerCount: 2
Fore
SplineSet
429 45 m 4
 457 45 478 65 478 95 c 6
 478 149 l 1
 678 149 l 1
 678 95 l 6
 678 60 655 40 628 27 c 4
 592 9 526 -5 429 -5 c 4
 332 -5 265 9 229 27 c 4
 202 40 179 60 179 95 c 6
 179 448 l 1
 30 448 l 1
 30 498 l 1
 179 498 l 1
 179 648 l 1
 379 648 l 1
 379 498 l 1
 528 498 l 1
 528 448 l 1
 379 448 l 1
 379 95 l 6
 379 65 401 45 429 45 c 4
EndSplineSet
Validated: 1
EndChar

StartChar: uni0413
Encoding: 1043 1043 28
Width: 558
Flags: MW
LayerCount: 2
Fore
SplineSet
30 647 m 1
 528 647 l 5
 528 498 l 1
 329 498 l 1
 329 597 l 1
 229 597 l 1
 229 365 229 132 229 -100 c 1
 30 -100 l 1
 30 149 30 398 30 647 c 1
EndSplineSet
Validated: 1
EndChar

StartChar: uni0442
Encoding: 1090 1090 36
Width: 757
Flags: MW
LayerCount: 2
Fore
SplineSet
30 349 m 1
 30 399 30 448 30 498 c 1
 727 498 l 1
 727 349 l 1
 528 349 l 1
 528 448 l 1
 478 448 l 1
 478 299 478 149 478 0 c 5
 279 0 l 5
 279 448 l 1
 229 448 l 1
 229 415 229 382 229 349 c 1
 30 349 l 1
EndSplineSet
Validated: 1
EndChar

StartChar: uni0432
Encoding: 1074 1074 37
Width: 558
Flags: HMW
LayerCount: 2
Fore
SplineSet
229 324 m 1
 257 324 279 344 279 374 c 2
 279 389 l 6
 279 425 257 448 229 448 c 5
 229 324 l 1
229 50 m 1
 270 50 299 62 314 80 c 0
 323 91 329 106 329 125 c 2
 329 174 l 2
 329 229 282 249 229 249 c 1
 229 50 l 1
374 288 m 1
 432 278 481 262 509 229 c 0
 522 214 528 196 528 174 c 2
 528 125 l 2
 528 80 499 55 465 38 c 0
 413 13 311 0 229 0 c 0
 163 0 96 0 30 0 c 1
 30 166 30 332 30 498 c 5
 96 498 163 498 229 498 c 4
 326 498 393 484 429 466 c 4
 456 451 478 429 478 389 c 6
 478 374 l 2
 478 318 424 299 374 288 c 1
EndSplineSet
Validated: 1
EndChar

StartChar: uni0411
Encoding: 1041 1041 38
Width: 558
Flags: HMW
LayerCount: 2
Fore
SplineSet
229 -50 m 5
 270 -50 299 -38 314 -20 c 4
 323 -9 329 6 329 25 c 6
 329 174 l 2
 329 229 282 249 229 249 c 1
 229 -50 l 5
30 -100 m 5
 30 149 30 398 30 647 c 1
 528 647 l 1
 528 498 l 1
 329 498 l 1
 329 597 l 1
 229 597 l 1
 229 299 l 1
 311 299 413 286 465 261 c 0
 499 244 528 219 528 174 c 2
 528 25 l 6
 528 -20 499 -45 465 -62 c 4
 413 -87 311 -100 229 -100 c 4
 163 -100 96 -100 30 -100 c 5
EndSplineSet
Validated: 1
EndChar

StartChar: uni0431
Encoding: 1073 1073 39
Width: 558
Flags: HMW
LayerCount: 2
Fore
SplineSet
30 399 m 2
 30 419 30 440 30 460 c 0
 30 571 180 578 264 593 c 0
 296 596 328 616 329 644 c 0
 329 661 329 671 329 676 c 1
 528 676 l 1
 528 641 523 613 485 587 c 1
 427 554 358 549 294 538 c 0
 269 535 245 520 235 498 c 1
 249 499 264 499 279 499 c 0
 376 499 442 485 478 467 c 0
 505 454 528 434 528 399 c 2
 528 95 l 6
 528 60 505 40 478 27 c 4
 442 9 376 -5 279 -5 c 4
 182 -5 116 9 80 27 c 4
 53 40 30 60 30 95 c 6
 30 399 l 2
329 399 m 2
 329 429 307 449 279 449 c 0
 266 449 271 452 257 445 c 0
 243 438 230 424 229 403 c 0
 229 355 229 307 229 259 c 2
 229 95 l 6
 229 65 251 45 279 45 c 4
 307 45 329 65 329 95 c 6
 329 399 l 2
329 676 m 1
 329 676 329 686 329 676 c 1
EndSplineSet
Validated: 1
Substitution2: "'locl' Localized Forms in Cyrillic lookup 0-1" uni0431.sr
EndChar

StartChar: uni0434
Encoding: 1076 1076 41
Width: 757
Flags: MW
LayerCount: 2
Fore
SplineSet
30 -100 m 1
 30 -50 30 -1 30 49 c 1
 129 49 l 1
 129 198 129 349 129 498 c 1
 627 498 l 1
 627 349 627 198 627 49 c 1
 727 49 l 5
 727 -100 l 5
 527 -100 l 5
 527 0 l 5
 229 0 l 1
 229 -33 229 -67 229 -100 c 1
 30 -100 l 1
329 49 m 1
 428 49 l 1
 428 448 l 1
 329 448 l 1
 329 49 l 1
EndSplineSet
Validated: 1
EndChar

StartChar: uni0433
Encoding: 1075 1075 42
Width: 558
Flags: MW
LayerCount: 2
Fore
SplineSet
30 498 m 1
 528 498 l 5
 528 349 l 1
 329 349 l 1
 329 448 l 1
 229 448 l 1
 229 299 229 149 229 0 c 1
 30 0 l 1
 30 166 30 332 30 498 c 1
EndSplineSet
Validated: 1
EndChar

StartChar: uni041F
Encoding: 1055 1055 44
Width: 558
Flags: MW
LayerCount: 2
Fore
SplineSet
30 -100 m 1
 30 149 30 398 30 647 c 1
 528 647 l 1
 528 -100 l 1
 329 -100 l 1
 329 597 l 1
 229 597 l 1
 229 365 229 132 229 -100 c 1
 30 -100 l 1
EndSplineSet
Validated: 1
EndChar

StartChar: uni043F
Encoding: 1087 1087 45
Width: 558
Flags: MW
LayerCount: 2
Fore
SplineSet
30 0 m 1
 30 166 30 332 30 498 c 1
 528 498 l 1
 528 0 l 1
 329 0 l 1
 329 448 l 1
 229 448 l 1
 229 299 229 149 229 0 c 1
 30 0 l 1
EndSplineSet
Validated: 1
EndChar

StartChar: uni0414
Encoding: 1044 1044 46
Width: 757
Flags: MW
LayerCount: 2
Fore
SplineSet
329 -50 m 1
 428 -50 l 1
 428 597 l 1
 329 597 l 1
 329 -50 l 1
30 -200 m 1
 30 -150 30 -100 30 -50 c 1
 129 -50 l 1
 129 182 129 415 129 647 c 1
 627 647 l 1
 627 415 627 182 627 -50 c 1
 727 -50 l 1
 727 -200 l 1
 527 -200 l 1
 527 -100 l 1
 229 -100 l 1
 229 -133 229 -167 229 -200 c 1
 30 -200 l 1
EndSplineSet
Validated: 1
EndChar

StartChar: l
Encoding: 108 108 47
Width: 558
Flags: HMW
LayerCount: 2
Fore
SplineSet
279 45 m 4
 307 45 329 65 329 95 c 6
 329 149 l 1
 528 149 l 1
 528 95 l 6
 528 60 505 40 478 27 c 4
 442 9 376 -5 279 -5 c 4
 182 -5 116 9 80 27 c 4
 53 40 30 60 30 95 c 6
 30 648 l 1
 229 648 l 1
 229 95 l 6
 229 65 251 45 279 45 c 4
EndSplineSet
Validated: 1
EndChar

StartChar: L
Encoding: 76 76 48
Width: 558
Flags: MW
LayerCount: 2
Fore
SplineSet
528 -100 m 1
 30 -100 l 1
 30 149 30 398 30 647 c 1
 229 647 l 1
 229 415 229 182 229 -50 c 1
 329 -50 l 1
 329 49 l 1
 528 49 l 1
 528 -100 l 1
EndSplineSet
Validated: 1
EndChar

StartChar: uni043D
Encoding: 1085 1085 52
Width: 558
Flags: MW
LayerCount: 2
Fore
SplineSet
329 299 m 1
 329 365 329 432 329 498 c 1
 528 498 l 1
 528 332 528 166 528 0 c 1
 329 0 l 1
 329 249 l 1
 229 249 l 1
 229 166 229 83 229 0 c 1
 30 0 l 1
 30 166 30 332 30 498 c 1
 229 498 l 1
 229 299 l 1
 329 299 l 1
EndSplineSet
Validated: 1
EndChar

StartChar: K
Encoding: 75 75 53
Width: 558
Flags: MW
LayerCount: 2
Fore
SplineSet
478 423 m 2
 478 350 420 309 358 290 c 1
 424 280 478 266 509 229 c 0
 522 214 528 196 528 174 c 2
 528 -100 l 1
 462 -100 395 -100 329 -100 c 1
 329 174 l 2
 329 229 282 249 229 249 c 1
 229 133 229 16 229 -100 c 1
 30 -100 l 1
 30 149 30 398 30 647 c 1
 229 647 l 1
 229 334 l 1
 256 352 279 383 279 423 c 2
 279 647 l 1
 345 647 412 647 478 647 c 1
 478 423 l 2
EndSplineSet
Validated: 1
EndChar

StartChar: k
Encoding: 107 107 54
Width: 558
Flags: MW
LayerCount: 2
Fore
SplineSet
229 324 m 1
 257 324 279 344 279 374 c 2
 279 498 l 1
 345 498 412 498 478 498 c 1
 478 374 l 2
 478 318 424 299 374 288 c 1
 432 278 481 262 509 229 c 0
 522 214 528 196 528 174 c 2
 528 0 l 1
 462 0 395 0 329 0 c 1
 329 174 l 2
 329 229 282 249 229 249 c 1
 229 166 229 83 229 0 c 1
 30 0 l 1
 30 216 30 432 30 648 c 1
 229 648 l 1
 229 324 l 1
EndSplineSet
Validated: 1
EndChar

StartChar: uni043A
Encoding: 1082 1082 56
Width: 558
Flags: MW
LayerCount: 2
Fore
SplineSet
229 324 m 1
 257 324 279 344 279 374 c 2
 279 498 l 1
 345 498 412 498 478 498 c 1
 478 374 l 2
 478 318 424 299 374 288 c 1
 432 278 481 262 509 229 c 0
 522 214 528 196 528 174 c 2
 528 0 l 1
 462 0 395 0 329 0 c 1
 329 174 l 2
 329 229 282 249 229 249 c 1
 229 166 229 83 229 0 c 1
 30 0 l 1
 30 166 30 332 30 498 c 1
 229 498 l 1
 229 324 l 1
EndSplineSet
Validated: 1
EndChar

StartChar: M
Encoding: 77 77 57
Width: 857
Flags: HMW
LayerCount: 2
Fore
SplineSet
429 597 m 1
 476 630 540 647 628 647 c 2
 827 647 l 1
 827 -100 l 1
 628 -100 l 1
 628 129 628 359 628 588 c 1
 571 555 528 482 528 398 c 2
 528 -100 l 1
 329 -100 l 1
 329 398 l 2
 329 481 286 555 229 588 c 1
 229 359 229 129 229 -100 c 1
 30 -100 l 1
 30 647 l 5
 229 647 l 2
 317 647 382 630 429 597 c 1
EndSplineSet
Validated: 1
EndChar

StartChar: uni043C
Encoding: 1084 1084 59
Width: 857
Flags: HMW
LayerCount: 2
Fore
SplineSet
429 466 m 1
 480 495 541 508 628 508 c 2
 827 508 l 1
 827 0 l 1
 628 0 l 1
 628 151 628 303 628 454 c 1
 575 430 528 374 528 299 c 2
 528 0 l 1
 329 0 l 1
 329 299 l 2
 329 373 282 430 229 454 c 1
 229 303 229 151 229 0 c 1
 30 0 l 1
 30 508 l 1
 229 508 l 2
 316 508 378 495 429 466 c 1
EndSplineSet
Validated: 1
EndChar

StartChar: m
Encoding: 109 109 60
Width: 857
Flags: MW
LayerCount: 2
Fore
SplineSet
279 448 m 0
 251 448 229 429 229 399 c 0
 229 266 229 133 229 0 c 1
 30 0 l 1
 30 498 l 5
 229 498 l 1
 229 497 l 1
 245 498 261 498 279 498 c 0
 342 498 392 492 429 483 c 1
 466 492 516 498 578 498 c 0
 675 498 741 484 777 466 c 0
 804 453 827 434 827 399 c 2
 827 0 l 1
 761 0 694 0 628 0 c 1
 628 50 l 1
 628 399 l 2
 628 429 606 448 578 448 c 0
 550 448 528 429 528 399 c 2
 528 0 l 1
 462 0 395 0 329 0 c 1
 329 399 l 2
 329 429 307 448 279 448 c 0
EndSplineSet
Validated: 1
EndChar

StartChar: uni0416
Encoding: 1046 1046 61
Width: 857
Flags: MW
LayerCount: 2
Fore
SplineSet
528 249 m 1
 528 133 528 16 528 -100 c 1
 329 -100 l 1
 329 16 329 133 329 249 c 1
 276 249 229 229 229 174 c 2
 229 -100 l 1
 163 -100 96 -100 30 -100 c 1
 30 174 l 2
 30 196 36 214 49 229 c 0
 80 266 135 280 201 290 c 1
 139 309 80 350 80 423 c 2
 80 647 l 1
 146 647 213 647 279 647 c 1
 279 423 l 2
 279 383 302 352 329 334 c 1
 329 647 l 1
 528 647 l 1
 528 334 l 1
 555 352 578 383 578 423 c 2
 578 647 l 1
 644 647 711 647 777 647 c 1
 777 423 l 2
 777 350 719 309 657 290 c 1
 701 284 737 274 764 261 c 0
 798 244 827 219 827 174 c 2
 827 -100 l 1
 761 -100 694 -100 628 -100 c 1
 628 174 l 2
 628 229 581 249 528 249 c 1
EndSplineSet
Validated: 1
EndChar

StartChar: uni0436
Encoding: 1078 1078 62
Width: 857
Flags: MW
LayerCount: 2
Fore
SplineSet
528 324 m 1
 556 324 578 344 578 374 c 2
 578 498 l 1
 644 498 711 498 777 498 c 1
 777 374 l 2
 777 318 723 299 673 288 c 1
 731 278 780 262 808 229 c 0
 821 214 827 196 827 174 c 2
 827 0 l 1
 761 0 694 0 628 0 c 1
 628 174 l 2
 628 229 581 249 528 249 c 1
 528 166 528 83 528 0 c 1
 329 0 l 1
 329 83 329 166 329 249 c 1
 276 249 229 229 229 174 c 2
 229 0 l 1
 163 0 96 0 30 0 c 1
 30 174 l 2
 30 219 59 244 93 261 c 0
 116 272 148 282 184 288 c 1
 146 297 114 308 95 331 c 0
 85 343 80 358 80 374 c 2
 80 498 l 1
 146 498 213 498 279 498 c 1
 279 374 l 2
 279 344 301 324 329 324 c 1
 329 498 l 1
 528 498 l 1
 528 324 l 1
EndSplineSet
Validated: 1
EndChar

StartChar: N
Encoding: 78 78 63
Width: 558
Flags: MW
LayerCount: 2
Fore
SplineSet
30 -100 m 1
 30 647 l 1
 229 647 l 1
 229 291 l 1
 267 285 300 274 329 261 c 1
 329 390 329 518 329 647 c 1
 528 647 l 1
 528 -100 l 1
 462 -100 395 -100 329 -100 c 1
 329 -75 l 2
 329 26 290 121 229 183 c 1
 229 -50 l 1
 229 -100 l 1
 30 -100 l 1
EndSplineSet
Validated: 1
EndChar

StartChar: n
Encoding: 110 110 64
Width: 558
Flags: MW
LayerCount: 2
Fore
SplineSet
279 448 m 0
 251 448 229 429 229 399 c 0
 229 266 229 133 229 0 c 1
 30 0 l 1
 30 498 l 5
 229 498 l 5
 229 497 l 1
 245 498 261 498 279 498 c 0
 376 498 442 484 478 466 c 0
 505 453 528 434 528 399 c 2
 528 0 l 1
 462 0 395 0 329 0 c 1
 329 399 l 2
 329 429 307 448 279 448 c 0
EndSplineSet
Validated: 1
EndChar

StartChar: P
Encoding: 80 80 65
Width: 508
Flags: MW
LayerCount: 2
Fore
SplineSet
30 647 m 1
 96 647 163 647 229 647 c 4
 296 647 348 637 381 626 c 0
 431 609 478 580 478 523 c 2
 478 423 l 2
 478 337 413 279 334 260 c 0
 311 254 275 249 229 249 c 1
 229 133 229 16 229 -100 c 1
 30 -100 l 1
 30 149 30 398 30 647 c 1
229 315 m 1
 257 338 279 378 279 423 c 2
 279 523 l 2
 279 559 255 581 229 593 c 1
 229 315 l 1
EndSplineSet
Validated: 1
EndChar

StartChar: p
Encoding: 112 112 66
Width: 558
Flags: HMW
LayerCount: 2
Fore
SplineSet
279 449 m 4
 253 449 229 430 229 401 c 4
 229 400 229 400 229 399 c 6
 229 89 l 2
 229 59 251 39 279 39 c 0
 307 39 329 59 329 89 c 2
 329 399 l 6
 329 429 307 449 279 449 c 4
229 -9 m 1
 229 -73 229 -136 229 -200 c 1
 30 -200 l 1
 30 32 30 266 30 498 c 5
 229 498 l 5
 229 497 l 5
 245 498 261 498 279 498 c 4
 376 498 442 485 478 467 c 4
 505 454 528 434 528 399 c 6
 528 89 l 2
 528 54 505 34 478 21 c 0
 442 3 376 -11 279 -11 c 0
 261 -11 245 -10 229 -9 c 1
EndSplineSet
Validated: 1
EndChar

StartChar: uni0437
Encoding: 1079 1079 69
Width: 558
Flags: HMW
LayerCount: 2
Fore
SplineSet
229 324 m 2
 257 324 279 344 279 374 c 2
 279 399 l 2
 279 429 257 448 229 448 c 1
 229 415 229 382 229 349 c 1
 30 349 l 1
 30 498 l 1
 96 498 163 498 229 498 c 0
 326 498 393 484 429 466 c 0
 456 453 478 434 478 399 c 2
 478 374 l 2
 478 318 424 299 374 288 c 1
 432 278 481 262 509 229 c 0
 522 214 528 196 528 174 c 2
 528 115 l 2
 528 75 499 53 465 38 c 4
 413 13 311 0 229 0 c 4
 163 0 96 0 30 0 c 5
 30 149 l 1
 229 149 l 1
 229 50 l 5
 270 50 299 62 314 80 c 4
 323 89 329 100 329 115 c 2
 329 174 l 2
 329 229 281 249 229 249 c 2
 130 249 l 1
 130 324 l 1
 229 324 l 2
EndSplineSet
Validated: 1
EndChar

StartChar: uni0417
Encoding: 1047 1047 70
Width: 558
Flags: HMW
LayerCount: 2
Fore
SplineSet
208 323 m 1
 246 337 279 375 279 423 c 2
 279 524 l 2
 279 560 255 582 229 594 c 1
 229 562 229 530 229 498 c 1
 30 498 l 1
 30 648 l 5
 96 648 163 648 229 648 c 0
 296 648 348 638 381 627 c 0
 431 610 478 581 478 524 c 2
 478 423 l 2
 478 350 420 309 358 290 c 1
 424 280 478 266 509 229 c 0
 522 214 528 196 528 174 c 2
 528 25 l 2
 528 -20 499 -45 465 -62 c 0
 413 -87 311 -100 229 -100 c 0
 163 -100 96 -100 30 -100 c 1
 30 49 l 1
 229 49 l 1
 229 -50 l 1
 270 -50 299 -38 314 -20 c 0
 323 -9 329 6 329 25 c 2
 329 174 l 2
 329 229 281 249 229 249 c 2
 130 249 l 1
 130 323 l 1
 208 323 l 1
EndSplineSet
Validated: 1
EndChar

StartChar: uni0418
Encoding: 1048 1048 71
Width: 558
Flags: MW
LayerCount: 2
Fore
SplineSet
528 -100 m 1
 329 -100 l 1
 329 -50 l 1
 329 183 l 1
 268 121 229 26 229 -75 c 2
 229 -100 l 1
 163 -100 96 -100 30 -100 c 1
 30 647 l 1
 229 647 l 1
 229 518 229 390 229 261 c 1
 258 274 291 285 329 291 c 1
 329 647 l 1
 528 647 l 1
 528 -100 l 1
EndSplineSet
Validated: 1
EndChar

StartChar: uni0438
Encoding: 1080 1080 72
Width: 558
Flags: MW
LayerCount: 2
Fore
SplineSet
528 274 m 1
 528 0 l 1
 329 0 l 1
 329 50 l 1
 329 207 l 1
 304 190 282 169 265 143 c 0
 243 109 229 69 229 25 c 2
 229 0 l 1
 130 0 l 1
 30 0 l 1
 30 25 l 1
 30 50 l 1
 30 498 l 1
 229 498 l 1
 229 448 l 1
 229 268 l 1
 238 271 248 275 259 278 c 0
 278 283 301 288 329 292 c 1
 329 498 l 1
 528 498 l 1
 528 448 l 1
 528 274 l 1
EndSplineSet
Validated: 1
EndChar

StartChar: g
Encoding: 103 103 73
Width: 558
Flags: HMW
LayerCount: 2
Fore
SplineSet
279 448 m 0
 253 448 229 430 229 401 c 0
 229 297 229 194 229 90 c 0
 229 60 251 40 279 40 c 0
 307 40 329 60 329 90 c 2
 329 400 l 2
 329 429 306 448 279 448 c 0
279 -150 m 0
 307 -150 329 -130 329 -100 c 2
 329 -9 l 1
 313 -10 297 -10 279 -10 c 0
 182 -10 116 4 80 22 c 0
 53 35 30 55 30 90 c 2
 30 399 l 2
 30 434 53 453 80 466 c 0
 116 484 182 498 279 498 c 0
 297 498 313 498 329 497 c 1
 528 497 l 1
 528 -100 l 2
 528 -135 505 -155 478 -168 c 0
 442 -186 376 -200 279 -200 c 4
 182 -200 116 -186 80 -168 c 0
 53 -155 30 -135 30 -100 c 2
 30 -51 l 1
 229 -51 l 1
 229 -100 l 2
 229 -130 251 -150 279 -150 c 0
EndSplineSet
Validated: 1
EndChar

StartChar: uni0424
Encoding: 1060 1060 74
Width: 857
Flags: HMW
LayerCount: 2
Fore
SplineSet
578 493 m 4
 550 493 528 473 528 443 c 6
 528 94 l 2
 528 64 550 44 578 44 c 0
 606 44 628 64 628 94 c 2
 628 443 l 6
 628 444 628 444 628 445 c 4
 628 474 604 493 578 493 c 4
279 493 m 4
 253 493 229 474 229 445 c 4
 229 444 229 444 229 443 c 6
 229 94 l 2
 229 64 251 44 279 44 c 0
 307 44 329 64 329 94 c 2
 329 443 l 6
 329 473 307 493 279 493 c 4
528 647 m 1
 528 541 l 5
 544 542 560 543 578 543 c 4
 675 543 741 529 777 511 c 4
 804 498 827 478 827 443 c 6
 827 94 l 2
 827 59 804 39 777 26 c 0
 741 8 675 -5 578 -5 c 0
 560 -5 544 -5 528 -4 c 1
 528 -36 528 -68 528 -100 c 1
 329 -100 l 1
 329 -4 l 1
 313 -5 297 -5 279 -5 c 0
 182 -5 116 8 80 26 c 0
 53 39 30 59 30 94 c 2
 30 443 l 6
 30 478 53 498 80 511 c 4
 116 529 182 543 279 543 c 4
 297 543 313 542 329 541 c 5
 329 577 329 611 329 647 c 1
 528 647 l 1
EndSplineSet
Validated: 1
EndChar

StartChar: uni0444
Encoding: 1092 1092 75
Width: 857
Flags: HMW
LayerCount: 2
Fore
SplineSet
578 443 m 4
 550 443 528 423 528 393 c 6
 528 94 l 2
 528 64 550 44 578 44 c 0
 606 44 628 64 628 94 c 2
 628 393 l 6
 628 394 628 394 628 395 c 4
 628 424 604 443 578 443 c 4
279 443 m 4
 253 443 229 424 229 395 c 4
 229 394 229 394 229 393 c 6
 229 94 l 2
 229 64 251 44 279 44 c 0
 307 44 329 64 329 94 c 2
 329 393 l 6
 329 423 307 443 279 443 c 4
528 647 m 1
 528 491 l 5
 544 492 560 492 578 492 c 4
 675 492 741 479 777 461 c 4
 804 448 827 428 827 393 c 6
 827 94 l 2
 827 59 804 39 777 26 c 0
 741 8 675 -6 578 -6 c 0
 560 -6 544 -5 528 -4 c 1
 528 -70 528 -134 528 -200 c 1
 329 -200 l 1
 329 -4 l 1
 313 -5 297 -6 279 -6 c 0
 182 -6 116 8 80 26 c 0
 53 39 30 59 30 94 c 2
 30 393 l 6
 30 428 53 448 80 461 c 4
 116 479 182 492 279 492 c 4
 297 492 313 492 329 491 c 5
 329 543 329 595 329 647 c 1
 528 647 l 1
EndSplineSet
Validated: 1
EndChar

StartChar: Q
Encoding: 81 81 76
Width: 558
Flags: HMW
LayerCount: 2
Fore
SplineSet
279 -55 m 4
 307 -55 329 -35 329 -5 c 6
 329 553 l 2
 329 583 306 602 279 602 c 0
 252 602 229 583 229 553 c 2
 229 -5 l 6
 229 -35 251 -55 279 -55 c 4
229 -200 m 1
 183 -100 l 5
 137 -94 103 -84 80 -73 c 4
 53 -60 30 -40 30 -5 c 6
 30 553 l 2
 30 588 53 607 80 620 c 0
 116 638 182 652 279 652 c 0
 376 652 442 638 478 620 c 0
 505 607 528 588 528 553 c 2
 528 -5 l 6
 528 -40 505 -60 478 -73 c 4
 456 -84 425 -93 382 -99 c 5
 429 -200 l 1
 229 -200 l 1
EndSplineSet
Validated: 1
EndChar

StartChar: q
Encoding: 113 113 77
Width: 558
Flags: HMW
LayerCount: 2
Fore
SplineSet
279 449 m 4
 253 449 229 430 229 401 c 4
 229 400 229 400 229 399 c 6
 229 89 l 2
 229 59 251 39 279 39 c 0
 307 39 329 59 329 89 c 2
 329 399 l 6
 329 429 307 449 279 449 c 4
528 498 m 5
 528 266 528 32 528 -200 c 1
 329 -200 l 1
 329 -9 l 1
 313 -10 297 -11 279 -11 c 0
 182 -11 116 3 80 21 c 0
 53 34 30 54 30 89 c 2
 30 399 l 6
 30 434 53 454 80 467 c 4
 116 485 182 498 279 498 c 4
 297 498 313 498 329 497 c 5
 329 498 l 5
 528 498 l 5
EndSplineSet
Validated: 1
EndChar

StartChar: Z
Encoding: 90 90 78
Width: 558
Flags: MW
LayerCount: 2
Fore
SplineSet
30 498 m 1
 30 548 30 597 30 647 c 1
 196 647 362 647 528 647 c 1
 528 398 l 2
 528 303 414 290 331 277 c 0
 294 271 283 273 260 259 c 0
 245 250 229 232 229 199 c 2
 229 -50 l 1
 329 -50 l 1
 329 -17 329 16 329 49 c 1
 528 49 l 1
 528 -1 528 -50 528 -100 c 1
 362 -100 196 -100 30 -100 c 1
 30 199 l 2
 30 294 145 307 228 320 c 0
 265 326 276 324 299 338 c 0
 314 347 329 365 329 398 c 2
 329 597 l 1
 229 597 l 1
 229 564 229 531 229 498 c 1
 30 498 l 1
EndSplineSet
Validated: 1
EndChar

StartChar: z
Encoding: 122 122 79
Width: 558
Flags: MW
LayerCount: 2
Fore
SplineSet
30 349 m 1
 30 399 30 448 30 498 c 1
 196 498 362 498 528 498 c 1
 528 349 l 2
 528 254 414 241 331 228 c 0
 294 222 283 224 260 210 c 0
 245 201 229 182 229 149 c 2
 229 50 l 1
 329 50 l 1
 329 83 329 116 329 149 c 1
 528 149 l 1
 528 99 528 50 528 0 c 1
 362 0 196 0 30 0 c 1
 30 149 l 2
 30 244 145 257 228 270 c 0
 265 276 276 275 299 289 c 0
 314 298 329 316 329 349 c 2
 329 448 l 1
 229 448 l 1
 229 415 229 382 229 349 c 1
 30 349 l 1
EndSplineSet
Validated: 1
EndChar

StartChar: R
Encoding: 82 82 80
Width: 558
Flags: HMW
LayerCount: 2
Fore
SplineSet
478 423 m 2
 478 363 443 311 395 283 c 1
 443 273 485 258 509 229 c 0
 522 214 528 196 528 174 c 2
 528 -100 l 1
 462 -100 395 -100 329 -100 c 1
 329 174 l 2
 329 229 282 249 229 249 c 1
 229 133 229 16 229 -100 c 1
 30 -100 l 1
 30 149 30 398 30 647 c 5
 96 647 163 647 229 647 c 4
 296 647 348 637 381 626 c 4
 431 609 478 580 478 523 c 6
 478 423 l 2
229 315 m 1
 257 338 279 378 279 423 c 2
 279 523 l 6
 279 559 255 581 229 593 c 5
 229 315 l 1
EndSplineSet
Validated: 1
EndChar

StartChar: r
Encoding: 114 114 81
Width: 558
Flags: HMW
LayerCount: 2
Fore
SplineSet
279 448 m 0
 253 448 233 430 230 404 c 0
 230 269 230 135 230 0 c 1
 30 0 l 1
 30 397 l 2
 30 398 30 398 30 399 c 0
 30 401 30 403 30 405 c 0
 30 436 30 467 30 498 c 5
 230 498 l 1
 230 497 l 1
 246 498 261 498 279 498 c 0
 376 498 442 484 478 466 c 0
 505 453 528 434 528 399 c 2
 528 349 l 1
 329 349 l 1
 329 399 l 2
 329 429 307 448 279 448 c 0
EndSplineSet
Validated: 1
EndChar

StartChar: u
Encoding: 117 117 82
Width: 558
Flags: HMW
LayerCount: 2
Fore
SplineSet
279 50 m 4
 307 50 329 70 329 100 c 4
 329 233 329 365 329 498 c 1
 528 498 l 1
 528 0 l 5
 329 0 l 5
 329 1 l 5
 313 0 297 0 279 0 c 4
 182 0 116 14 80 32 c 4
 53 45 30 65 30 100 c 6
 30 498 l 1
 96 498 163 498 229 498 c 1
 229 100 l 6
 229 70 251 50 279 50 c 4
EndSplineSet
Validated: 1
EndChar

StartChar: X
Encoding: 88 88 83
Width: 658
Flags: MW
LayerCount: 2
Fore
SplineSet
429 199 m 2
 429 254 382 274 329 274 c 0
 288 274 260 261 245 243 c 0
 236 232 229 218 229 199 c 2
 229 -100 l 1
 163 -100 96 -100 30 -100 c 1
 30 -50 l 1
 30 199 l 2
 30 262 84 287 137 302 c 1
 107 315 80 334 80 373 c 2
 80 647 l 1
 146 647 213 647 279 647 c 1
 279 373 l 2
 279 343 301 323 329 323 c 0
 357 323 379 343 379 373 c 2
 379 647 l 1
 445 647 512 647 578 647 c 1
 578 373 l 2
 578 334 551 315 521 302 c 1
 574 287 628 262 628 199 c 2
 628 -50 l 1
 628 -100 l 1
 562 -100 495 -100 429 -100 c 1
 429 199 l 2
EndSplineSet
Validated: 1
EndChar

StartChar: x
Encoding: 120 120 84
Width: 658
Flags: MW
LayerCount: 2
Fore
SplineSet
429 199 m 2
 429 254 382 274 329 274 c 0
 288 274 260 262 245 244 c 0
 236 233 229 218 229 199 c 2
 229 0 l 1
 163 0 96 0 30 0 c 1
 30 50 l 1
 30 199 l 2
 30 262 84 287 137 302 c 1
 107 315 80 335 80 374 c 2
 80 498 l 1
 146 498 213 498 279 498 c 1
 279 374 l 2
 279 344 301 324 329 324 c 0
 357 324 379 344 379 374 c 2
 379 498 l 1
 445 498 512 498 578 498 c 1
 578 374 l 2
 578 335 551 315 521 302 c 1
 574 287 628 262 628 199 c 2
 628 50 l 1
 628 0 l 1
 562 0 495 0 429 0 c 1
 429 199 l 2
EndSplineSet
Validated: 1
EndChar

StartChar: uni0447
Encoding: 1095 1095 87
Width: 508
Flags: MW
LayerCount: 2
Fore
SplineSet
279 498 m 1
 478 498 l 1
 478 0 l 1
 279 0 l 1
 279 91 279 183 279 274 c 1
 182 274 116 288 80 306 c 0
 53 319 30 339 30 374 c 2
 30 498 l 1
 96 498 163 498 229 498 c 1
 229 374 l 2
 229 344 251 324 279 324 c 1
 279 498 l 1
EndSplineSet
Validated: 1
EndChar

StartChar: uni0427
Encoding: 1063 1063 88
Width: 508
Flags: MW
LayerCount: 2
Fore
SplineSet
279 647 m 1
 478 647 l 1
 478 -100 l 1
 279 -100 l 1
 279 25 279 149 279 274 c 1
 225 274 183 281 157 288 c 0
 115 300 80 321 58 347 c 0
 40 369 30 394 30 423 c 2
 30 647 l 1
 96 647 163 647 229 647 c 1
 229 423 l 2
 229 383 252 352 279 334 c 1
 279 647 l 1
EndSplineSet
Validated: 1
EndChar

StartChar: y
Encoding: 121 121 89
Width: 558
Flags: MW
LayerCount: 2
Fore
SplineSet
329 547 m 1025
279 40 m 0
 307 40 329 60 329 90 c 2
 329 498 l 1
 528 498 l 5
 528 -100 l 2
 528 -135 505 -155 478 -168 c 0
 442 -186 376 -200 279 -200 c 0
 182 -200 116 -186 80 -168 c 0
 53 -155 30 -135 30 -100 c 2
 30 -51 l 1
 229 -51 l 1
 229 -100 l 2
 229 -130 251 -150 279 -150 c 0
 307 -150 329 -130 329 -100 c 0
 329 -69 329 -40 329 -9 c 1
 313 -10 297 -10 279 -10 c 0
 182 -10 116 4 80 22 c 0
 53 35 30 55 30 90 c 2
 30 498 l 1
 96 498 163 498 229 498 c 1
 229 90 l 2
 229 60 251 40 279 40 c 0
EndSplineSet
Validated: 1
EndChar

StartChar: Y
Encoding: 89 89 91
Width: 558
Flags: MW
LayerCount: 2
Fore
SplineSet
279 323 m 0
 307 323 329 343 329 373 c 2
 329 647 l 1
 395 647 462 647 528 647 c 1
 528 373 l 2
 528 338 505 318 478 305 c 0
 456 294 423 285 379 279 c 1
 379 153 379 26 379 -100 c 1
 179 -100 l 1
 179 26 179 153 179 279 c 1
 135 285 102 294 80 305 c 0
 53 318 30 338 30 373 c 2
 30 647 l 1
 96 647 163 647 229 647 c 1
 229 373 l 2
 229 343 251 323 279 323 c 0
EndSplineSet
Validated: 1
EndChar

StartChar: U
Encoding: 85 85 95
Width: 558
Flags: HMW
LayerCount: 2
Fore
SplineSet
279 -55 m 4
 307 -55 329 -35 329 -5 c 6
 329 647 l 1
 395 647 462 647 528 647 c 1
 528 -5 l 6
 528 -40 505 -60 478 -73 c 4
 442 -91 376 -105 279 -105 c 4
 182 -105 116 -91 80 -73 c 4
 53 -60 30 -40 30 -5 c 6
 30 647 l 1
 96 647 163 647 229 647 c 1
 229 -5 l 6
 229 -35 251 -55 279 -55 c 4
EndSplineSet
Validated: 1
EndChar

StartChar: V
Encoding: 86 86 96
Width: 558
Flags: HMW
LayerCount: 2
Fore
SplineSet
329 647 m 1
 528 647 l 1
 528 -100 l 1
 491 -100 455 -100 418 -100 c 0
 280 -97 196 -60 132 11 c 0
 66 84 30 190 30 299 c 2
 30 647 l 1
 229 647 l 1
 229 299 l 2
 229 192 267 85 329 20 c 1
 329 647 l 1
EndSplineSet
Validated: 1
EndChar

StartChar: v
Encoding: 118 118 97
Width: 558
Flags: HMW
LayerCount: 2
Fore
SplineSet
329 498 m 1
 395 498 462 498 528 498 c 1
 528 0 l 5
 436 0 l 6
 434 0 432 0 429 0 c 4
 356 0 300 10 261 22 c 4
 214 36 176 55 143 80 c 4
 73 134 30 210 30 299 c 2
 30 498 l 1
 96 498 163 498 229 498 c 1
 229 299 l 2
 229 216 270 142 329 98 c 5
 329 498 l 1
EndSplineSet
Validated: 1
EndChar

StartChar: W
Encoding: 87 87 98
Width: 857
Flags: HMW
LayerCount: 2
Fore
SplineSet
628 647 m 1
 827 647 l 1
 827 -100 l 5
 790 -100 753 -100 716 -100 c 4
 662 -99 621 -91 592 -84 c 4
 566 -77 548 -71 528 -62 c 5
 528 -100 l 5
 418 -100 l 5
 280 -97 196 -60 132 11 c 4
 66 84 30 190 30 299 c 2
 30 647 l 1
 229 647 l 1
 229 531 229 415 229 299 c 0
 229 192 267 85 329 20 c 5
 329 647 l 1
 528 647 l 1
 528 299 l 2
 528 192 566 85 628 20 c 5
 628 229 628 438 628 647 c 1
EndSplineSet
Validated: 1
EndChar

StartChar: w
Encoding: 119 119 99
Width: 857
Flags: HMW
LayerCount: 2
Fore
SplineSet
727 0 m 4
 635 0 581 12 528 33 c 5
 528 22 528 11 528 0 c 5
 436 0 l 6
 434 0 432 0 429 0 c 4
 356 0 300 10 261 22 c 4
 214 36 176 55 143 80 c 4
 73 134 30 210 30 299 c 2
 30 498 l 1
 96 498 163 498 229 498 c 1
 229 448 l 1
 229 299 l 2
 229 216 270 142 329 98 c 5
 329 232 329 364 329 498 c 1
 395 498 462 498 528 498 c 1
 528 299 l 2
 528 216 569 142 628 98 c 5
 628 448 l 1
 628 498 l 1
 694 498 761 498 827 498 c 1
 827 0 l 5
 735 0 l 6
 733 0 730 0 727 0 c 4
EndSplineSet
Validated: 1
EndChar

StartChar: uni0423
Encoding: 1059 1059 100
Width: 558
Flags: HMW
LayerCount: 2
Fore
SplineSet
279 -55 m 4
 307 -55 329 -35 329 -5 c 6
 329 249 l 1
 313 248 297 248 279 248 c 0
 182 248 116 261 80 279 c 0
 53 292 30 312 30 347 c 2
 30 647 l 1
 96 647 163 647 229 647 c 1
 229 347 l 2
 229 317 251 297 279 297 c 0
 307 297 329 317 329 347 c 2
 329 647 l 1
 395 647 462 647 528 647 c 1
 528 430 528 212 528 -5 c 4
 528 -40 505 -60 478 -73 c 4
 442 -91 376 -105 279 -105 c 4
 182 -105 116 -91 80 -73 c 4
 53 -60 30 -40 30 -5 c 6
 30 49 l 1
 229 49 l 1
 229 -5 l 6
 229 -35 252 -55 279 -55 c 4
EndSplineSet
Validated: 1
EndChar

StartChar: S
Encoding: 83 83 101
Width: 558
Flags: HMW
LayerCount: 2
Fore
SplineSet
279 602 m 0
 251 602 229 583 229 553 c 2
 229 398 l 2
 229 354 254 336 284 328 c 0
 315 320 360 317 399 308 c 0
 462 294 528 272 528 199 c 2
 528 -5 l 6
 528 -40 505 -60 478 -73 c 4
 442 -91 376 -105 279 -105 c 4
 182 -105 116 -91 80 -73 c 4
 53 -60 30 -40 30 -5 c 6
 30 49 l 1
 229 49 l 1
 229 -5 l 6
 229 -35 251 -55 279 -55 c 4
 307 -55 329 -35 329 -5 c 6
 329 199 l 2
 329 243 304 261 274 269 c 0
 243 277 198 280 159 289 c 0
 96 303 30 325 30 398 c 2
 30 553 l 2
 30 588 53 607 80 620 c 0
 116 638 182 652 279 652 c 0
 376 652 442 638 478 620 c 0
 505 607 528 588 528 553 c 2
 528 498 l 1
 329 498 l 1
 329 553 l 2
 329 583 307 602 279 602 c 0
EndSplineSet
Validated: 1
EndChar

StartChar: s
Encoding: 115 115 102
Width: 558
Flags: HMW
LayerCount: 2
Fore
SplineSet
279 453 m 0
 251 453 229 434 229 404 c 2
 229 349 l 2
 229 305 254 287 284 279 c 0
 315 271 360 267 399 258 c 0
 462 244 528 222 528 149 c 2
 528 95 l 6
 528 60 505 40 478 27 c 4
 442 9 376 -5 279 -5 c 4
 182 -5 116 9 80 27 c 4
 53 40 30 60 30 95 c 6
 30 149 l 1
 229 149 l 1
 229 95 l 6
 229 65 251 45 279 45 c 4
 307 45 329 65 329 95 c 6
 329 149 l 2
 329 193 304 211 274 219 c 0
 243 227 198 231 159 240 c 0
 96 254 30 276 30 349 c 2
 30 404 l 2
 30 439 53 458 80 471 c 0
 116 489 182 503 279 503 c 0
 376 503 442 489 478 471 c 0
 505 458 528 439 528 404 c 2
 528 349 l 1
 329 349 l 1
 329 404 l 2
 329 434 307 453 279 453 c 0
EndSplineSet
Validated: 1
EndChar

StartChar: uni0426
Encoding: 1062 1062 103
Width: 658
Flags: MW
LayerCount: 2
Fore
SplineSet
628 -51 m 5
 628 -200 l 5
 428 -200 l 5
 428 -100 l 5
 30 -100 l 1
 30 647 l 1
 230 647 l 1
 230 -51 l 1
 329 -51 l 1
 329 181 329 415 329 647 c 1
 528 647 l 1
 528 -51 l 1
 628 -51 l 5
EndSplineSet
Validated: 1
EndChar

StartChar: uni0446
Encoding: 1094 1094 104
Width: 657
Flags: MW
LayerCount: 2
Fore
SplineSet
627 49 m 5
 627 -100 l 5
 428 -100 l 5
 428 0 l 5
 30 0 l 1
 30 498 l 1
 229 498 l 1
 229 49 l 1
 329 49 l 1
 329 198 329 349 329 498 c 1
 528 498 l 1
 528 49 l 1
 627 49 l 5
EndSplineSet
Validated: 1
EndChar

StartChar: uni0459
Encoding: 1113 1113 105
Width: 1156
Flags: HMW
LayerCount: 2
Fore
SplineSet
279 45 m 4
 307 45 329 65 329 95 c 6
 329 144 l 1
 329 448 l 1
 329 498 l 1
 827 498 l 1
 827 432 827 365 827 299 c 1
 909 299 1011 286 1063 261 c 0
 1097 244 1126 219 1126 174 c 2
 1126 125 l 2
 1126 80 1097 55 1063 38 c 0
 1011 13 909 0 827 0 c 0
 761 0 694 0 628 0 c 1
 628 448 l 1
 528 448 l 1
 528 417 l 2
 528 416 l 2
 528 95 l 6
 528 60 505 40 478 27 c 4
 442 9 376 -5 279 -5 c 4
 182 -5 116 9 80 27 c 4
 53 40 30 60 30 95 c 5
 30 139 l 1
 229 139 l 1
 229 95 l 6
 229 65 251 45 279 45 c 4
827 50 m 1
 868 50 896 62 911 80 c 0
 920 91 927 106 927 125 c 2
 927 174 l 2
 927 229 880 249 827 249 c 1
 827 50 l 1
EndSplineSet
Validated: 1
EndChar

StartChar: uni0428
Encoding: 1064 1064 106
Width: 857
Flags: MW
LayerCount: 2
Fore
SplineSet
827 -100 m 1
 30 -100 l 1
 30 647 l 1
 229 647 l 1
 229 -50 l 1
 329 -50 l 1
 329 182 329 415 329 647 c 1
 528 647 l 1
 528 -50 l 1
 628 -50 l 1
 628 182 628 415 628 647 c 1
 827 647 l 1
 827 398 827 149 827 -100 c 1
EndSplineSet
Validated: 1
EndChar

StartChar: uni0448
Encoding: 1096 1096 107
Width: 857
Flags: MW
LayerCount: 2
Fore
SplineSet
827 0 m 1
 30 0 l 1
 30 498 l 1
 229 498 l 1
 229 50 l 1
 329 50 l 1
 329 199 329 349 329 498 c 1
 528 498 l 1
 528 50 l 1
 628 50 l 1
 628 199 628 349 628 498 c 1
 827 498 l 1
 827 332 827 166 827 0 c 1
EndSplineSet
Validated: 1
EndChar

StartChar: uni0429
Encoding: 1065 1065 108
Width: 956
Flags: MW
LayerCount: 2
Fore
SplineSet
926 -51 m 5
 926 -200 l 5
 727 -200 l 5
 727 -100 l 5
 329 -100 l 1
 229 -100 130 -100 30 -100 c 1
 30 647 l 1
 229 647 l 1
 229 -50 l 1
 329 -50 l 1
 329 182 329 415 329 647 c 1
 528 647 l 1
 528 415 528 182 528 -50 c 1
 628 -50 l 1
 628 182 628 415 628 647 c 1
 827 647 l 1
 827 -51 l 1
 926 -51 l 5
EndSplineSet
Validated: 1
EndChar

StartChar: uni0449
Encoding: 1097 1097 109
Width: 956
Flags: MW
LayerCount: 2
Fore
SplineSet
528 498 m 1
 528 50 l 1
 628 50 l 1
 628 199 628 349 628 498 c 1
 827 498 l 1
 827 50 l 1
 926 50 l 5
 926 -100 l 5
 727 -100 l 5
 727 0 l 5
 30 0 l 1
 30 498 l 1
 229 498 l 1
 229 50 l 1
 329 50 l 1
 329 199 329 349 329 498 c 1
 528 498 l 1
EndSplineSet
Validated: 1
EndChar

StartChar: uni045A
Encoding: 1114 1114 110
Width: 857
Flags: HMW
LayerCount: 2
Fore
SplineSet
528 0 m 4
 462 0 395 0 329 0 c 5
 329 83 329 166 329 249 c 1
 229 249 l 1
 229 166 229 83 229 0 c 1
 30 0 l 1
 30 166 30 332 30 498 c 1
 229 498 l 1
 229 299 l 1
 329 299 l 1
 329 365 329 432 329 498 c 1
 528 498 l 1
 528 299 l 1
 610 299 712 286 764 261 c 0
 798 244 827 219 827 174 c 2
 827 125 l 6
 827 80 798 55 764 38 c 4
 712 13 610 0 528 0 c 4
528 50 m 5
 569 50 598 62 613 80 c 4
 622 91 628 106 628 125 c 6
 628 174 l 2
 628 229 581 249 528 249 c 1
 528 50 l 5
EndSplineSet
Validated: 1
EndChar

StartChar: uni040A
Encoding: 1034 1034 111
Width: 857
Flags: MW
LayerCount: 2
Fore
SplineSet
329 -100 m 1
 329 16 329 133 329 249 c 1
 229 249 l 1
 229 133 229 16 229 -100 c 1
 30 -100 l 1
 30 149 30 398 30 647 c 1
 229 647 l 1
 229 299 l 1
 329 299 l 1
 329 415 329 531 329 647 c 1
 528 647 l 1
 528 299 l 1
 610 299 712 286 764 261 c 0
 798 244 827 219 827 174 c 2
 827 25 l 2
 827 -20 798 -45 764 -62 c 0
 712 -87 610 -100 528 -100 c 4
 462 -100 395 -100 329 -100 c 1
528 -50 m 1
 569 -50 598 -38 613 -20 c 0
 622 -9 628 6 628 25 c 2
 628 174 l 2
 628 229 581 249 528 249 c 1
 528 -50 l 1
EndSplineSet
Validated: 1
EndChar

StartChar: uni041B
Encoding: 1051 1051 112
Width: 857
Flags: HMW
LayerCount: 2
Fore
SplineSet
279 -55 m 4
 307 -55 329 -35 329 -5 c 4
 329 212 329 430 329 647 c 1
 827 647 l 1
 827 398 827 149 827 -100 c 1
 628 -100 l 1
 628 597 l 1
 528 597 l 1
 528 397 528 195 528 -5 c 4
 528 -40 505 -60 478 -73 c 4
 442 -91 376 -105 279 -105 c 4
 182 -105 116 -91 80 -73 c 4
 53 -60 30 -40 30 -5 c 6
 30 39 l 1
 229 39 l 1
 229 -5 l 6
 229 -35 251 -55 279 -55 c 4
EndSplineSet
Validated: 1
EndChar

StartChar: uni043B
Encoding: 1083 1083 113
Width: 856
Flags: HMW
LayerCount: 2
Fore
SplineSet
279 45 m 4
 307 45 328 65 328 95 c 6
 328 498 l 1
 826 498 l 1
 826 0 l 1
 627 0 l 1
 627 448 l 1
 528 448 l 1
 528 95 l 6
 528 60 505 40 478 27 c 4
 442 6 376 -10 279 -10 c 0
 182 -10 115 6 79 27 c 4
 52 40 30 60 30 95 c 6
 30 139 l 1
 229 139 l 1
 229 95 l 6
 229 65 251 45 279 45 c 4
EndSplineSet
Validated: 1
EndChar

StartChar: uni0409
Encoding: 1033 1033 114
Width: 1156
Flags: HMW
LayerCount: 2
Fore
SplineSet
279 -55 m 4
 307 -55 329 -35 329 -5 c 4
 329 212 329 430 329 647 c 1
 495 647 661 647 827 647 c 1
 827 531 827 415 827 299 c 1
 909 299 1011 286 1063 261 c 0
 1097 244 1126 219 1126 174 c 2
 1126 25 l 2
 1126 -20 1097 -45 1063 -62 c 0
 1011 -87 909 -100 827 -100 c 0
 761 -100 694 -100 628 -100 c 1
 628 597 l 1
 528 597 l 1
 528 -5 l 6
 528 -40 505 -60 478 -73 c 4
 442 -91 376 -105 279 -105 c 4
 182 -105 116 -91 80 -73 c 4
 53 -60 30 -40 30 -5 c 5
 30 39 l 1
 229 39 l 1
 229 -5 l 6
 229 -35 251 -55 279 -55 c 4
827 -50 m 1
 868 -50 896 -38 911 -20 c 0
 920 -9 927 6 927 25 c 2
 927 174 l 2
 927 229 880 249 827 249 c 1
 827 -50 l 1
EndSplineSet
Validated: 1
EndChar

StartChar: uni045B
Encoding: 1115 1115 115
Width: 708
Flags: MW
LayerCount: 2
Fore
SplineSet
437 448 m 2
 421 448 l 2
 412 448 396 439 390 431 c 0
 384 423 379 413 379 399 c 0
 379 266 379 133 379 0 c 1
 180 0 l 1
 180 183 180 365 180 548 c 1
 30 548 l 1
 30 598 l 1
 180 598 l 1
 180 648 l 1
 379 648 l 1
 379 598 l 1
 529 598 l 1
 529 548 l 1
 379 548 l 1
 379 497 l 1
 395 498 411 498 429 498 c 0
 526 498 592 484 628 466 c 0
 655 453 678 434 678 399 c 2
 678 0 l 1
 612 0 545 0 479 0 c 1
 479 399 l 2
 479 423 465 435 451 444 c 0
 443 448 438 448 437 448 c 2
EndSplineSet
Validated: 1
EndChar

StartChar: uni040B
Encoding: 1035 1035 116
Width: 807
Flags: MW
LayerCount: 2
Fore
SplineSet
30 498 m 1
 30 548 30 597 30 647 c 1
 727 647 l 1
 727 498 l 1
 528 498 l 1
 528 597 l 1
 478 597 l 1
 478 299 l 5
 560 299 663 286 715 261 c 0
 750 245 777 220 777 174 c 2
 777 -100 l 1
 711 -100 644 -100 578 -100 c 1
 578 174 l 2
 578 229 531 249 478 249 c 1
 478 133 478 16 478 -100 c 1
 279 -100 l 1
 279 132 279 365 279 597 c 1
 229 597 l 1
 229 564 229 531 229 498 c 1
 30 498 l 1
EndSplineSet
Validated: 1
EndChar

StartChar: uni0452
Encoding: 1106 1106 117
Width: 708
Flags: MW
LayerCount: 2
Fore
SplineSet
429 448 m 0
 401 448 379 429 379 399 c 2
 379 0 l 1
 180 0 l 1
 180 548 l 1
 30 548 l 5
 30 598 l 1
 180 598 l 1
 180 648 l 1
 379 648 l 1
 379 598 l 1
 529 598 l 1
 529 548 l 1
 379 548 l 1
 379 497 l 1
 395 498 411 498 429 498 c 0
 526 498 592 484 628 466 c 0
 655 453 678 434 678 399 c 2
 678 -100 l 2
 678 -135 655 -155 628 -168 c 0
 592 -186 526 -200 429 -200 c 0
 332 -200 266 -186 230 -168 c 0
 203 -155 180 -135 180 -100 c 2
 180 -51 l 1
 379 -51 l 1
 379 -100 l 2
 379 -130 401 -150 429 -150 c 0
 457 -150 479 -130 479 -100 c 2
 479 399 l 2
 479 429 457 448 429 448 c 0
EndSplineSet
Validated: 1
EndChar

StartChar: uni0402
Encoding: 1026 1026 118
Width: 1006
Flags: HMW
LayerCount: 2
Fore
SplineSet
777 174 m 2
 777 229 731 249 678 249 c 0
 653 249 630 246 607 240 c 0
 543 223 478 179 478 99 c 0
 478 33 478 -34 478 -100 c 1
 279 -100 l 1
 279 597 l 1
 229 597 l 1
 229 564 229 531 229 498 c 1
 30 498 l 1
 30 548 30 597 30 647 c 1
 727 647 l 1
 727 498 l 1
 528 498 l 1
 528 597 l 1
 478 597 l 1
 478 278 l 1
 527 289 596 299 678 299 c 0
 760 299 862 286 914 261 c 0
 948 244 976 219 976 174 c 2
 976 25 l 2
 976 -39 928 -81 870 -95 c 4
 851 -100 819 -105 777 -105 c 6
 528 -105 l 5
 528 -54 528 -2 528 49 c 1
 727 49 l 1
 727 -55 l 5
 738 -55 l 5
 759 -40 777 -9 777 25 c 2
 777 174 l 2
EndSplineSet
Validated: 1
EndChar

StartChar: uni042F
Encoding: 1071 1071 119
Width: 558
Flags: HMW
LayerCount: 2
Fore
SplineSet
80 423 m 2
 80 523 l 6
 80 580 127 609 177 626 c 4
 210 637 262 647 329 647 c 6
 528 647 l 5
 528 -100 l 1
 329 -100 l 1
 329 249 l 1
 276 249 229 229 229 174 c 2
 229 -100 l 1
 30 -100 l 1
 30 174 l 2
 30 196 36 214 49 229 c 0
 73 258 115 273 163 283 c 1
 115 311 80 363 80 423 c 2
329 315 m 1
 329 593 l 5
 303 581 279 559 279 523 c 6
 279 423 l 2
 279 378 301 338 329 315 c 1
EndSplineSet
Validated: 1
EndChar

StartChar: uni044F
Encoding: 1103 1103 120
Width: 558
Flags: MW
LayerCount: 2
Fore
SplineSet
329 249 m 1
 276 249 229 230 229 174 c 2
 229 0 l 1
 30 0 l 1
 30 174 l 2
 30 220 58 244 93 261 c 0
 109 269 128 276 150 281 c 1
 113 299 80 327 80 374 c 2
 80 399 l 2
 80 433 103 454 129 466 c 0
 165 484 232 498 329 498 c 2
 528 498 l 5
 528 332 528 166 528 0 c 1
 329 0 l 1
 329 83 329 166 329 249 c 1
329 303 m 1
 329 448 l 1
 320 448 l 2
 311 448 296 438 290 431 c 0
 284 423 279 413 279 399 c 2
 279 374 l 2
 279 337 303 316 329 303 c 1
EndSplineSet
Validated: 1
EndChar

StartChar: uni040F
Encoding: 1039 1039 121
Width: 658
Flags: MW
LayerCount: 2
Fore
SplineSet
229 647 m 1
 229 -50 l 1
 429 -50 l 1
 429 182 429 415 429 647 c 1
 628 647 l 1
 628 398 628 149 628 -100 c 1
 429 -100 l 1
 429 -133 429 -167 429 -200 c 1
 229 -200 l 1
 229 -100 l 1
 30 -100 l 1
 30 149 30 398 30 647 c 1
 229 647 l 1
EndSplineSet
Validated: 1
EndChar

StartChar: uni045F
Encoding: 1119 1119 122
Width: 658
Flags: MW
LayerCount: 2
Fore
SplineSet
229 0 m 1
 30 0 l 1
 30 498 l 1
 229 498 l 1
 229 49 l 1
 429 49 l 1
 429 198 429 349 429 498 c 1
 628 498 l 1
 628 332 628 166 628 0 c 1
 429 0 l 1
 429 -33 429 -67 429 -100 c 1
 229 -100 l 1
 229 0 l 1
EndSplineSet
Validated: 1
EndChar

StartChar: uni0404
Encoding: 1028 1028 127
Width: 558
Flags: HMW
LayerCount: 2
Fore
SplineSet
279 -55 m 4
 307 -55 329 -35 329 -5 c 6
 329 49 l 1
 528 49 l 1
 528 -5 l 6
 528 -40 505 -60 478 -73 c 4
 442 -91 376 -105 279 -105 c 4
 182 -105 116 -91 80 -73 c 4
 53 -60 30 -40 30 -5 c 6
 30 554 l 2
 30 589 53 608 80 621 c 0
 116 639 182 653 279 653 c 0
 376 653 442 639 478 621 c 0
 505 608 528 589 528 554 c 2
 528 498 l 1
 329 498 l 1
 329 554 l 2
 329 584 307 603 279 603 c 0
 251 603 229 584 229 554 c 2
 229 299 l 1
 379 299 l 1
 379 249 l 1
 229 249 l 1
 229 -5 l 6
 229 -35 251 -55 279 -55 c 4
EndSplineSet
Validated: 1
EndChar

StartChar: uni0454
Encoding: 1108 1108 128
Width: 558
Flags: HMW
LayerCount: 2
Fore
SplineSet
279 45 m 0
 307 45 329 65 329 95 c 2
 329 149 l 1
 528 149 l 1
 528 95 l 2
 528 60 505 40 478 27 c 0
 442 9 376 -5 279 -5 c 0
 182 -5 116 9 80 27 c 0
 53 40 30 60 30 95 c 2
 30 404 l 6
 30 439 53 458 80 471 c 4
 116 489 182 503 279 503 c 4
 376 503 442 489 478 471 c 4
 505 458 528 439 528 404 c 6
 528 349 l 1
 329 349 l 1
 329 404 l 6
 329 434 307 453 279 453 c 4
 251 453 229 434 229 404 c 6
 229 299 l 1
 379 299 l 1
 379 249 l 1
 229 249 l 1
 229 95 l 2
 229 65 251 45 279 45 c 0
EndSplineSet
Validated: 1
EndChar

StartChar: uni042D
Encoding: 1069 1069 129
Width: 558
Flags: HMW
LayerCount: 2
Fore
SplineSet
279 -55 m 0
 307 -55 329 -35 329 -5 c 2
 329 249 l 1
 179 249 l 1
 179 299 l 1
 329 299 l 1
 329 553 l 6
 329 583 307 602 279 602 c 4
 251 602 229 583 229 553 c 6
 229 498 l 1
 30 498 l 1
 30 553 l 6
 30 588 53 607 80 620 c 4
 116 638 182 652 279 652 c 4
 376 652 442 638 478 620 c 4
 505 607 528 588 528 553 c 6
 528 -5 l 2
 528 -40 505 -60 478 -73 c 0
 442 -91 376 -105 279 -105 c 0
 182 -105 116 -91 80 -73 c 0
 53 -60 30 -40 30 -5 c 2
 30 49 l 1
 229 49 l 1
 229 -5 l 2
 229 -35 251 -55 279 -55 c 0
EndSplineSet
Validated: 1
EndChar

StartChar: uni044D
Encoding: 1101 1101 130
Width: 558
Flags: HMW
LayerCount: 2
Fore
SplineSet
279 45 m 0
 307 45 329 65 329 95 c 2
 329 249 l 1
 179 249 l 1
 179 299 l 1
 329 299 l 1
 329 404 l 6
 329 434 307 453 279 453 c 4
 251 453 229 434 229 404 c 6
 229 349 l 1
 30 349 l 1
 30 404 l 6
 30 439 53 458 80 471 c 4
 116 489 182 503 279 503 c 4
 376 503 442 489 478 471 c 4
 505 458 528 439 528 404 c 6
 528 95 l 2
 528 60 505 40 478 27 c 0
 442 9 376 -5 279 -5 c 0
 182 -5 116 9 80 27 c 0
 53 40 30 60 30 95 c 2
 30 149 l 1
 229 149 l 1
 229 95 l 2
 229 65 251 45 279 45 c 0
EndSplineSet
Validated: 1
EndChar

StartChar: uni044C
Encoding: 1100 1100 131
Width: 558
Flags: HMW
LayerCount: 2
Fore
SplineSet
30 0 m 5
 30 166 30 332 30 498 c 1
 229 498 l 1
 229 299 l 1
 311 299 413 286 465 261 c 0
 499 244 528 219 528 174 c 2
 528 125 l 6
 528 80 499 55 465 38 c 4
 413 13 311 0 229 0 c 4
 163 0 96 0 30 0 c 5
229 50 m 5
 270 50 299 62 314 80 c 4
 323 91 329 106 329 125 c 6
 329 174 l 2
 329 229 282 249 229 249 c 1
 229 50 l 5
EndSplineSet
Validated: 1
EndChar

StartChar: uni042C
Encoding: 1068 1068 132
Width: 558
Flags: MW
LayerCount: 2
Fore
SplineSet
30 -100 m 1
 30 149 30 398 30 647 c 1
 229 647 l 1
 229 299 l 1
 311 299 413 286 465 261 c 0
 499 244 528 219 528 174 c 2
 528 25 l 2
 528 -20 499 -45 465 -62 c 0
 413 -87 311 -100 229 -100 c 4
 163 -100 96 -100 30 -100 c 1
229 -50 m 1
 270 -50 299 -38 314 -20 c 0
 323 -9 329 6 329 25 c 2
 329 174 l 2
 329 229 282 249 229 249 c 1
 229 -50 l 1
EndSplineSet
Validated: 1
EndChar

StartChar: uni042A
Encoding: 1066 1066 133
Width: 857
Flags: MW
LayerCount: 2
Fore
SplineSet
229 498 m 1
 30 498 l 1
 30 647 l 1
 528 647 l 1
 528 531 528 415 528 299 c 1
 610 299 712 286 764 261 c 0
 798 244 827 219 827 174 c 2
 827 25 l 2
 827 -20 798 -45 764 -62 c 0
 712 -87 610 -100 528 -100 c 4
 462 -100 395 -100 329 -100 c 1
 329 132 329 365 329 597 c 1
 229 597 l 1
 229 498 l 1
528 249 m 1
 528 -50 l 1
 569 -50 598 -38 613 -20 c 0
 622 -9 628 6 628 25 c 2
 628 174 l 2
 628 229 581 249 528 249 c 1
EndSplineSet
Validated: 1
EndChar

StartChar: uni044A
Encoding: 1098 1098 134
Width: 857
Flags: HMW
LayerCount: 2
Fore
SplineSet
229 349 m 1
 30 349 l 1
 30 498 l 1
 528 498 l 1
 528 432 528 365 528 299 c 1
 610 299 712 286 764 261 c 0
 798 244 827 219 827 174 c 2
 827 125 l 2
 827 80 798 55 764 38 c 0
 712 13 610 0 528 0 c 0
 462 0 395 0 329 0 c 1
 329 149 329 299 329 448 c 1
 229 448 l 1
 229 349 l 1
528 249 m 1
 528 50 l 1
 569 50 598 62 613 80 c 0
 622 91 628 106 628 125 c 2
 628 174 l 2
 628 229 581 249 528 249 c 1
EndSplineSet
Validated: 1
EndChar

StartChar: uni042B
Encoding: 1067 1067 135
Width: 856
Flags: MW
LayerCount: 2
Fore
SplineSet
627 -100 m 1
 627 149 627 398 627 647 c 1
 826 647 l 1
 826 398 826 149 826 -100 c 1
 627 -100 l 1
30 -100 m 1
 30 149 30 398 30 647 c 1
 229 647 l 1
 229 299 l 1
 311 299 413 286 465 261 c 0
 499 244 528 219 528 174 c 2
 528 25 l 2
 528 -20 499 -45 465 -62 c 0
 413 -87 311 -100 229 -100 c 4
 163 -100 96 -100 30 -100 c 1
229 -50 m 1
 270 -50 299 -38 314 -20 c 0
 323 -9 329 6 329 25 c 2
 329 174 l 2
 329 229 282 249 229 249 c 1
 229 -50 l 1
EndSplineSet
Validated: 1
EndChar

StartChar: uni044B
Encoding: 1099 1099 136
Width: 857
Flags: HMW
LayerCount: 2
Fore
SplineSet
628 0 m 1
 628 166 628 332 628 498 c 1
 827 498 l 1
 827 332 827 166 827 0 c 1
 628 0 l 1
30 0 m 5
 30 166 30 332 30 498 c 1
 229 498 l 1
 229 299 l 1
 311 299 413 286 465 261 c 0
 499 244 528 219 528 174 c 2
 528 125 l 6
 528 80 499 55 465 38 c 4
 413 13 311 0 229 0 c 4
 163 0 96 0 30 0 c 5
229 50 m 5
 270 50 299 62 314 80 c 4
 323 91 329 106 329 125 c 6
 329 174 l 2
 329 229 282 249 229 249 c 1
 229 50 l 5
EndSplineSet
Validated: 1
EndChar

StartChar: uni042E
Encoding: 1070 1070 137
Width: 858
Flags: HMW
LayerCount: 2
Fore
SplineSet
578 -55 m 0
 606 -55 628 -35 628 -5 c 2
 628 553 l 6
 628 583 606 602 578 602 c 4
 550 602 529 583 529 553 c 6
 529 -5 l 2
 529 -35 550 -55 578 -55 c 0
30 -100 m 1
 30 149 30 398 30 647 c 1
 229 647 l 1
 229 299 l 1
 262 299 296 299 329 299 c 1
 329 553 l 6
 329 588 352 607 379 620 c 4
 415 638 481 652 578 652 c 4
 675 652 742 638 778 620 c 4
 805 607 828 588 828 553 c 6
 828 -5 l 2
 828 -40 805 -60 778 -73 c 0
 742 -91 675 -105 578 -105 c 0
 481 -105 415 -91 379 -73 c 0
 352 -60 329 -40 329 -5 c 2
 329 249 l 1
 229 249 l 1
 229 133 229 16 229 -100 c 1
 30 -100 l 1
EndSplineSet
Validated: 1
EndChar

StartChar: uni044E
Encoding: 1102 1102 138
Width: 858
Flags: HMW
LayerCount: 2
Fore
SplineSet
229 299 m 1
 330 299 l 1
 330 404 l 6
 330 439 353 458 380 471 c 4
 416 489 482 503 579 503 c 4
 676 503 742 489 778 471 c 4
 805 458 828 439 828 404 c 6
 828 95 l 2
 828 60 805 40 778 27 c 0
 742 9 676 -5 579 -5 c 0
 482 -5 416 9 380 27 c 0
 353 40 330 60 330 95 c 2
 330 249 l 1
 229 249 l 1
 229 166 229 83 229 0 c 1
 30 0 l 1
 30 166 30 332 30 498 c 1
 229 498 l 1
 229 299 l 1
579 453 m 4
 551 453 529 434 529 404 c 6
 529 95 l 2
 529 65 551 45 579 45 c 0
 607 45 629 65 629 95 c 2
 629 404 l 6
 629 434 607 453 579 453 c 4
EndSplineSet
Validated: 1
EndChar

StartChar: period
Encoding: 46 46 139
Width: 350
Flags: MW
LayerCount: 2
Fore
SplineSet
75 0 m 1
 75 149 l 1
 275 149 l 5
 275 0 l 5
 75 0 l 1
EndSplineSet
Validated: 1
EndChar

StartChar: comma
Encoding: 44 44 140
Width: 350
Flags: MW
LayerCount: 2
Fore
SplineSet
75 0 m 1
 75 149 l 1
 275 149 l 5
 275 -150 l 1
 150 -150 l 1
 150 0 l 1
 75 0 l 1
EndSplineSet
Validated: 1
EndChar

StartChar: breve
Encoding: 728 728 141
Width: 548
Flags: MW
LayerCount: 2
Fore
SplineSet
199 825 m 0
 199 787 227 763 255 754 c 0
 266 750 272 750 274 750 c 0
 292 750 313 761 326 773 c 0
 339 785 349 803 349 825 c 0
 349 842 349 857 349 874 c 1
 399 874 448 874 498 874 c 1
 498 857 498 842 498 825 c 0
 498 767 450 735 399 718 c 0
 366 707 322 700 274 700 c 0
 192 700 121 719 81 756 c 0
 61 775 50 798 50 825 c 0
 50 842 50 857 50 874 c 1
 100 874 149 874 199 874 c 5
 199 857 199 842 199 825 c 0
EndSplineSet
Validated: 1
EndChar

StartChar: caron
Encoding: 711 711 146
Width: 450
Flags: MW
LayerCount: 2
Fore
SplineSet
50 874 m 1
 200 874 l 5
 225 761 l 1
 250 874 l 1
 400 874 l 1
 300 700 l 1
 150 700 l 1
 50 874 l 1
EndSplineSet
Validated: 1
EndChar

StartChar: uni02CA
Encoding: 714 714 151
Width: 350
Flags: MW
LayerCount: 2
Fore
SplineSet
150 874 m 1
 300 874 l 1
 200 700 l 1
 50 700 l 1
 150 874 l 1
EndSplineSet
Validated: 1
EndChar

StartChar: uni02CB
Encoding: 715 715 160
Width: 350
Flags: MW
LayerCount: 2
Fore
SplineSet
200 874 m 1
 300 700 l 1
 150 700 l 1
 50 874 l 1
 200 874 l 1
EndSplineSet
Validated: 1
EndChar

StartChar: Dcroat
Encoding: 272 272 165
Width: 632
Flags: MW
LayerCount: 2
Fore
SplineSet
105 647 m 1
 171 647 238 647 304 647 c 0
 386 647 488 634 540 609 c 0
 574 592 603 568 603 523 c 2
 603 25 l 2
 603 -20 574 -45 540 -62 c 0
 488 -87 386 -100 304 -100 c 0
 238 -100 171 -100 105 -100 c 1
 105 16 105 133 105 249 c 1
 30 249 l 1
 30 299 l 1
 105 299 l 1
 105 647 l 1
304 -50 m 1
 345 -50 373 -38 388 -20 c 0
 397 -9 404 6 404 25 c 2
 404 523 l 2
 404 578 357 597 304 597 c 1
 304 299 l 1
 379 299 l 1
 379 249 l 1
 304 249 l 1
 304 -50 l 1
EndSplineSet
Validated: 1
EndChar

StartChar: dcroat
Encoding: 273 273 166
Width: 707
Flags: MW
LayerCount: 2
Fore
SplineSet
329 648 m 1
 528 648 l 1
 528 598 l 1
 678 598 l 1
 678 548 l 1
 528 548 l 1
 528 0 l 1
 462 0 395 0 329 0 c 0
 247 0 145 13 93 38 c 0
 59 55 30 80 30 125 c 2
 30 374 l 2
 30 419 59 443 93 460 c 0
 145 485 247 498 329 498 c 1
 329 548 l 1
 179 548 l 1
 179 598 l 1
 329 598 l 1
 329 648 l 1
329 448 m 1
 276 448 229 429 229 374 c 2
 229 125 l 2
 229 106 235 91 244 80 c 0
 259 62 288 50 329 50 c 1
 329 448 l 1
EndSplineSet
Validated: 1
EndChar

StartChar: dotaccent
Encoding: 729 729 168
Width: 200
Flags: MW
LayerCount: 2
Fore
SplineSet
25 725 m 5
 25 874 l 5
 175 874 l 5
 175 725 l 5
 25 725 l 5
EndSplineSet
Validated: 1
EndChar

StartChar: uni0308
Encoding: 776 776 184
Width: 0
Flags: MW
LayerCount: 2
Fore
SplineSet
25 725 m 5
 25 874 l 5
 175 874 l 5
 175 725 l 5
 25 725 l 5
225 725 m 5
 225 874 l 5
 375 874 l 5
 375 725 l 5
 225 725 l 5
EndSplineSet
Validated: 1
EndChar

StartChar: uni0407
Encoding: 1031 1031 186
Width: 360
Flags: MW
LayerCount: 2
Fore
SplineSet
81 -100 m 1
 81 149 81 398 81 647 c 1
 279 647 l 1
 279 398 279 149 279 -100 c 1
 81 -100 l 1
5 717 m 1
 5 866 l 1
 155 866 l 1
 155 717 l 1
 5 717 l 1
205 717 m 1
 205 866 l 1
 355 866 l 1
 355 717 l 1
 205 717 l 1
EndSplineSet
Validated: 1
EndChar

StartChar: uni0457
Encoding: 1111 1111 188
Width: 360
Flags: MW
LayerCount: 2
Fore
SplineSet
81 0 m 1
 81 166 81 332 81 498 c 1
 280 498 l 1
 280 332 280 166 280 0 c 1
 81 0 l 1
5 568 m 5
 5 717 l 5
 155 717 l 5
 155 568 l 5
 5 568 l 5
205 568 m 5
 205 717 l 5
 355 717 l 5
 355 568 l 5
 205 568 l 5
EndSplineSet
Validated: 1
EndChar

StartChar: dotlessi
Encoding: 305 305 189
Width: 259
Flags: MW
LayerCount: 2
Fore
SplineSet
30 0 m 1
 30 166 30 332 30 498 c 1
 229 498 l 1
 229 332 229 166 229 0 c 1
 30 0 l 1
EndSplineSet
Validated: 1
EndChar

StartChar: two
Encoding: 50 50 190
Width: 558
Flags: HMW
LayerCount: 2
Fore
SplineSet
279 602 m 0
 251 602 229 583 229 553 c 2
 229 493 l 1
 30 493 l 1
 30 553 l 2
 30 588 53 607 80 620 c 0
 116 638 182 652 279 652 c 0
 376 652 442 638 478 620 c 0
 505 607 528 588 528 553 c 2
 528 398 l 2
 528 303 414 290 331 277 c 0
 294 271 283 273 260 259 c 0
 245 250 229 232 229 199 c 2
 229 -50 l 1
 329 -50 l 1
 329 -17 329 16 329 49 c 1
 528 49 l 5
 528 -1 528 -50 528 -100 c 1
 362 -100 196 -100 30 -100 c 1
 30 199 l 2
 30 294 145 307 228 320 c 0
 265 326 276 324 299 338 c 0
 314 347 329 365 329 398 c 2
 329 553 l 2
 329 583 307 602 279 602 c 0
EndSplineSet
Validated: 1
Substitution2: "'onum' Oldstyle Figures lookup 0-1" two.oldstyle
EndChar

StartChar: three
Encoding: 51 51 191
Width: 558
Flags: HMW
LayerCount: 2
Fore
SplineSet
478 423 m 2
 478 350 420 309 358 290 c 1
 424 280 478 266 509 229 c 0
 522 214 528 196 528 174 c 2
 528 20 l 2
 528 -25 499 -50 465 -67 c 0
 413 -92 311 -105 229 -105 c 0
 163 -105 96 -105 30 -105 c 1
 30 49 l 5
 229 49 l 5
 229 -55 l 1
 270 -55 299 -43 314 -25 c 0
 323 -12 329 7 329 30 c 2
 329 174 l 2
 329 229 282 249 229 249 c 2
 130 249 l 1
 130 323 l 1
 208 323 l 1
 246 337 279 375 279 423 c 2
 279 597 l 1
 229 597 l 1
 229 564 229 531 229 498 c 1
 30 498 l 1
 30 548 30 597 30 647 c 1
 179 647 329 647 478 647 c 1
 478 423 l 2
EndSplineSet
Validated: 1
Substitution2: "'onum' Oldstyle Figures lookup 0-1" three.oldstyle
EndChar

StartChar: five
Encoding: 53 53 192
Width: 558
Flags: HMW
LayerCount: 2
Fore
SplineSet
279 323 m 0
 251 323 229 304 229 274 c 2
 229 249 l 1
 163 249 96 249 30 249 c 1
 30 382 30 514 30 647 c 1
 528 647 l 1
 528 597 528 548 528 498 c 1
 329 498 l 1
 329 531 329 564 329 597 c 1
 229 597 l 1
 229 372 l 1
 245 373 261 373 279 373 c 0
 376 373 442 359 478 341 c 0
 505 328 528 309 528 274 c 2
 528 -5 l 2
 528 -40 505 -60 478 -73 c 0
 442 -91 376 -105 279 -105 c 0
 182 -105 116 -91 80 -73 c 0
 53 -60 30 -40 30 -5 c 2
 30 49 l 5
 229 49 l 5
 229 -5 l 2
 229 -35 251 -55 279 -55 c 0
 307 -55 329 -35 329 -5 c 2
 329 274 l 2
 329 304 307 323 279 323 c 0
EndSplineSet
Validated: 1
Substitution2: "'onum' Oldstyle Figures lookup 0-1" five.oldstyle
EndChar

StartChar: seven
Encoding: 55 55 193
Width: 558
Flags: MW
LayerCount: 2
Fore
SplineSet
30 498 m 1
 30 548 30 597 30 647 c 1
 196 647 362 647 528 647 c 1
 528 398 l 2
 528 303 413 290 330 277 c 0
 293 271 283 273 260 259 c 0
 245 250 229 232 229 199 c 2
 229 -100 l 1
 163 -100 96 -100 30 -100 c 1
 30 199 l 2
 30 294 145 307 228 320 c 0
 265 326 275 324 298 338 c 0
 313 347 329 365 329 398 c 2
 329 597 l 1
 229 597 l 1
 229 564 229 531 229 498 c 5
 30 498 l 1
EndSplineSet
Validated: 1
Substitution2: "'onum' Oldstyle Figures lookup 0-1" seven.oldstyle
EndChar

StartChar: zero
Encoding: 48 48 194
Width: 558
Flags: MW
LayerCount: 2
Fore
SplineSet
30 -10 m 2
 30 558 l 2
 30 593 53 612 80 625 c 0
 116 643 182 657 279 657 c 0
 376 657 442 643 478 625 c 0
 505 612 528 593 528 558 c 2
 528 -10 l 2
 528 -45 505 -65 478 -78 c 0
 442 -96 376 -110 279 -110 c 4
 182 -110 116 -96 80 -78 c 0
 53 -65 30 -45 30 -10 c 2
279 607 m 0
 251 607 229 588 229 558 c 2
 229 320 l 1
 265 325 277 324 299 338 c 0
 314 347 329 365 329 398 c 0
 329 451 329 505 329 558 c 0
 329 588 307 607 279 607 c 0
279 -60 m 0
 307 -60 329 -40 329 -10 c 2
 329 277 l 1
 293 272 282 273 260 259 c 0
 245 250 229 232 229 199 c 0
 229 130 229 59 229 -10 c 0
 229 -40 251 -60 279 -60 c 0
EndSplineSet
Validated: 1
Substitution2: "'onum' Oldstyle Figures lookup 0-1" zero.oldstyle
EndChar

StartChar: six
Encoding: 54 54 195
Width: 558
Flags: HMW
LayerCount: 2
Fore
SplineSet
279 373 m 0
 375 373 528 360 528 273 c 2
 528 -6 l 2
 528 -39 509 -62 464 -79 c 0
 419 -96 339 -105 279 -105 c 0
 183 -105 30 -93 30 -6 c 2
 30 273 l 1
 30 274 l 2
 30 547 l 2
 30 580 49 604 94 621 c 0
 139 638 219 647 279 647 c 0
 375 647 528 634 528 547 c 0
 528 498 l 5
 329 498 l 1
 329 547 l 0
 329 575 309 589 297 594 c 0
 292 596 285 597 278 597 c 0
 273 597 267 597 261 594 c 0
 249 589 229 575 229 547 c 2
 229 371 l 1
 246 372 263 373 279 373 c 0
261 -52 m 0
 267 -54 274 -56 280 -56 c 0
 305 -56 329 -38 329 -6 c 2
 329 273 l 2
 329 301 309 315 297 320 c 0
 292 322 285 323 278 323 c 0
 273 323 267 323 261 320 c 0
 249 315 229 301 229 273 c 0
 229 181 229 86 229 -6 c 0
 229 -34 249 -47 261 -52 c 0
EndSplineSet
Validated: 1
Substitution2: "'onum' Oldstyle Figures lookup 0-1" six.oldstyle
EndChar

StartChar: nine
Encoding: 57 57 196
Width: 558
Flags: HMW
LayerCount: 2
Fore
SplineSet
279 174 m 0
 183 174 30 187 30 274 c 2
 30 553 l 2
 30 586 49 609 94 626 c 0
 139 643 219 652 279 652 c 0
 375 652 528 640 528 553 c 2
 528 274 l 1
 528 273 l 2
 528 5 l 2
 528 -28 509 -52 464 -69 c 0
 419 -86 339 -95 279 -95 c 0
 183 -95 30 -82 30 5 c 0
 30 49 l 1
 229 49 l 5
 229 5 l 0
 229 -23 249 -37 261 -42 c 0
 266 -44 273 -45 280 -45 c 0
 285 -45 291 -45 297 -42 c 0
 309 -37 329 -23 329 5 c 2
 329 176 l 1
 312 175 295 174 279 174 c 0
297 599 m 0
 291 601 284 603 278 603 c 0
 253 603 229 585 229 553 c 2
 229 274 l 2
 229 246 249 232 261 227 c 0
 266 225 273 224 280 224 c 0
 285 224 291 224 297 227 c 0
 309 232 329 246 329 274 c 0
 329 366 329 461 329 553 c 0
 329 581 309 594 297 599 c 0
EndSplineSet
Validated: 1
Substitution2: "'onum' Oldstyle Figures lookup 0-1" nine.oldstyle
EndChar

StartChar: one
Encoding: 49 49 197
Width: 508
Flags: MW
LayerCount: 2
Fore
SplineSet
478 647 m 1
 478 398 478 149 478 -100 c 1
 279 -100 l 1
 279 132 279 365 279 597 c 1
 229 597 l 1
 229 498 l 1
 30 498 l 1
 30 647 l 5
 478 647 l 1
EndSplineSet
Validated: 1
Substitution2: "'onum' Oldstyle Figures lookup 0-1" one.oldstyle
EndChar

StartChar: four
Encoding: 52 52 198
Width: 608
Flags: MW
LayerCount: 2
Fore
SplineSet
30 0 m 1
 30 523 l 2
 30 568 59 592 93 609 c 0
 145 634 247 647 329 647 c 4
 395 647 462 647 528 647 c 1
 528 49 l 1
 578 49 l 1
 578 0 l 1
 528 0 l 1
 528 -33 528 -67 528 -100 c 1
 329 -100 l 1
 329 0 l 1
 229 0 l 2
 163 0 96 0 30 0 c 1
229 49 m 1
 329 49 l 1
 329 597 l 1
 288 597 259 585 244 567 c 0
 235 556 229 542 229 523 c 2
 229 49 l 1
EndSplineSet
Validated: 1
Substitution2: "'onum' Oldstyle Figures lookup 0-1" four.oldstyle
EndChar

StartChar: eight
Encoding: 56 56 199
Width: 558
Flags: HMW
LayerCount: 2
Fore
SplineSet
329 224 m 2
 329 254 307 274 279 274 c 0
 251 274 229 254 229 224 c 2
 229 -5 l 6
 229 -35 251 -55 279 -55 c 4
 307 -55 329 -35 329 -5 c 6
 329 224 l 2
279 652 m 0
 376 652 442 638 478 620 c 0
 505 607 528 588 528 553 c 2
 528 398 l 2
 528 363 505 343 478 330 c 0
 463 323 443 316 418 311 c 1
 460 302 493 290 513 266 c 0
 523 254 528 240 528 224 c 2
 528 -5 l 6
 528 -40 505 -60 478 -73 c 4
 442 -91 376 -105 279 -105 c 4
 182 -105 116 -91 80 -73 c 4
 53 -60 30 -40 30 -5 c 6
 30 224 l 2
 30 259 53 279 80 292 c 0
 95 299 115 306 140 311 c 1
 98 320 65 332 45 356 c 0
 35 368 30 382 30 398 c 2
 30 553 l 2
 30 588 53 607 80 620 c 0
 116 638 182 652 279 652 c 0
329 553 m 2
 329 583 307 602 279 602 c 0
 251 602 229 583 229 553 c 2
 229 398 l 2
 229 368 251 348 279 348 c 0
 307 348 329 368 329 398 c 2
 329 553 l 2
EndSplineSet
Validated: 1
Substitution2: "'onum' Oldstyle Figures lookup 0-1" eight.oldstyle
EndChar

StartChar: zero.oldstyle
Encoding: 1114109 1114109 200
Width: 558
Flags: HMW
LayerCount: 2
Fore
SplineSet
30 95 m 2
 30 404 l 6
 30 439 53 458 80 471 c 4
 116 489 182 503 279 503 c 4
 376 503 442 489 478 471 c 4
 504 458 528 439 528 405 c 6
 528 95 l 2
 528 60 505 40 478 27 c 0
 442 9 376 -5 279 -5 c 0
 182 -5 116 9 80 27 c 0
 53 40 30 60 30 95 c 2
279 45 m 0
 307 45 329 65 329 95 c 2
 329 227 l 1
 293 222 282 224 260 210 c 0
 245 201 229 182 229 149 c 0
 229 131 229 113 229 95 c 0
 229 65 251 45 279 45 c 0
279 453 m 4
 251 453 229 434 229 404 c 6
 229 271 l 1
 265 276 276 275 298 289 c 0
 313 298 329 316 329 349 c 2
 329 404 l 6
 329 434 307 453 279 453 c 4
EndSplineSet
Validated: 1
EndChar

StartChar: nine.oldstyle
Encoding: 1114108 1114108 201
Width: 558
Flags: HMW
LayerCount: 2
Fore
SplineSet
279 508 m 0
 375 508 528 496 528 409 c 0
 528 407 l 0
 528 406 l 2
 528 96 l 4
 528 95 l 6
 528 -100 l 2
 528 -133 509 -157 464 -174 c 0
 419 -191 339 -200 279 -200 c 0
 219 -200 139 -191 94 -174 c 0
 49 -157 30 -133 30 -100 c 2
 30 -51 l 1
 229 -51 l 1
 229 -100 l 2
 229 -128 249 -142 261 -147 c 0
 266 -149 273 -150 280 -150 c 0
 285 -150 291 -150 297 -147 c 0
 309 -142 329 -128 329 -100 c 2
 329 -2 l 5
 312 -3 295 -4 279 -4 c 4
 183 -4 30 9 30 96 c 6
 30 409 l 2
 30 442 49 465 94 482 c 0
 139 499 219 508 279 508 c 0
261 49 m 4
 267 47 272 46 278 46 c 4
 284 46 291 47 297 49 c 4
 309 54 329 68 329 96 c 6
 329 406 l 2
 329 407 l 0
 329 409 l 0
 324 446 301 459 280 459 c 0
 273 459 266 457 261 455 c 0
 249 450 229 437 229 409 c 2
 229 96 l 6
 229 68 249 54 261 49 c 4
EndSplineSet
Validated: 1
EndChar

StartChar: eight.oldstyle
Encoding: 1114107 1114107 202
Width: 558
Flags: HMW
LayerCount: 2
Fore
SplineSet
329 251 m 2
 329 281 307 301 279 301 c 0
 251 301 229 281 229 251 c 2
 229 95 l 2
 229 65 251 45 279 45 c 0
 307 45 329 65 329 95 c 2
 329 251 l 2
279 674 m 4
 376 674 442 660 478 642 c 0
 505 629 528 610 528 575 c 2
 528 425 l 2
 528 390 505 370 478 357 c 0
 463 350 443 343 418 338 c 1
 460 329 493 317 513 293 c 0
 523 281 528 267 528 251 c 2
 528 95 l 2
 528 60 505 40 478 27 c 0
 442 9 376 -5 279 -5 c 0
 182 -5 116 9 80 27 c 0
 53 40 30 60 30 95 c 2
 30 251 l 2
 30 286 53 306 80 319 c 0
 95 326 115 333 140 338 c 1
 98 347 65 359 45 383 c 0
 35 395 30 409 30 425 c 2
 30 575 l 2
 30 610 53 629 80 642 c 0
 116 660 182 674 279 674 c 4
329 575 m 2
 329 605 307 624 279 624 c 0
 251 624 229 605 229 575 c 2
 229 425 l 2
 229 395 251 375 279 375 c 0
 307 375 329 395 329 425 c 2
 329 575 l 2
EndSplineSet
Validated: 1
EndChar

StartChar: seven.oldstyle
Encoding: 1114106 1114106 203
Width: 558
Flags: MW
LayerCount: 2
Fore
SplineSet
30 348 m 1
 30 398 30 447 30 497 c 1
 196 497 362 497 528 497 c 1
 528 348 l 2
 528 323 520 304 506 288 c 0
 498 280 491 271 479 264 c 0
 442 244 376 234 330 227 c 0
 293 221 283 223 260 209 c 0
 245 200 229 182 229 149 c 2
 229 -190 l 5
 163 -190 96 -190 30 -190 c 5
 30 149 l 2
 30 244 145 257 228 270 c 0
 265 276 275 274 298 288 c 0
 313 297 329 315 329 348 c 2
 329 448 l 1
 229 448 l 1
 229 415 229 381 229 348 c 1
 30 348 l 1
EndSplineSet
Validated: 1
EndChar

StartChar: six.oldstyle
Encoding: 1114105 1114105 204
Width: 558
VWidth: 997
Flags: HMW
LayerCount: 2
Fore
SplineSet
279 448 m 0
 272 448 266 446 261 444 c 0
 249 439 229 426 229 398 c 2
 229 97 l 2
 229 96 l 0
 229 95 l 0
 234 58 258 45 279 45 c 0
 286 45 292 46 297 48 c 0
 309 53 329 67 329 95 c 2
 329 398 l 2
 329 426 309 439 297 444 c 0
 290 446 284 448 279 448 c 0
279 -5 m 0
 183 -5 30 8 30 95 c 0
 30 96 l 0
 30 97 l 2
 30 398 l 0
 30 575 l 6
 30 608 49 631 94 648 c 4
 139 665 219 674 279 674 c 4
 339 674 419 665 464 648 c 4
 509 631 528 607 528 574 c 6
 528 525 l 1
 329 525 l 1
 329 575 l 6
 329 603 309 616 297 621 c 4
 292 623 285 624 278 624 c 4
 273 624 267 624 261 621 c 4
 249 616 229 603 229 575 c 6
 229 496 l 1
 246 497 263 497 279 497 c 0
 375 497 528 485 528 398 c 2
 528 95 l 2
 528 62 509 38 464 21 c 0
 419 4 339 -5 279 -5 c 0
EndSplineSet
Validated: 1
EndChar

StartChar: five.oldstyle
Encoding: 1114104 1114104 205
Width: 558
Flags: MW
LayerCount: 2
Fore
SplineSet
279 273 m 0
 251 273 229 253 229 223 c 2
 229 199 l 1
 163 199 96 199 30 199 c 1
 30 299 30 397 30 497 c 1
 528 497 l 1
 528 447 528 398 528 348 c 1
 329 348 l 1
 329 381 329 415 329 448 c 1
 229 448 l 1
 229 322 l 1
 245 323 261 323 279 323 c 0
 376 323 442 309 478 291 c 0
 505 278 528 258 528 223 c 2
 528 -100 l 2
 528 -135 505 -155 478 -168 c 0
 442 -186 376 -200 279 -200 c 0
 182 -200 116 -186 80 -168 c 0
 53 -155 30 -135 30 -100 c 2
 30 -51 l 1
 229 -51 l 1
 229 -100 l 2
 229 -130 251 -150 279 -150 c 0
 307 -150 329 -130 329 -100 c 2
 329 223 l 2
 329 253 307 273 279 273 c 0
EndSplineSet
Validated: 1
EndChar

StartChar: four.oldstyle
Encoding: 1114103 1114103 206
Width: 608
Flags: MW
LayerCount: 2
Fore
SplineSet
30 -1 m 1
 30 373 l 2
 30 418 59 443 93 460 c 0
 145 485 247 497 329 497 c 4
 395 497 462 497 528 497 c 1
 528 49 l 1
 578 49 l 1
 578 -1 l 1
 528 -1 l 1
 528 -64 528 -127 528 -190 c 1
 329 -190 l 1
 329 -1 l 1
 229 -1 130 -1 30 -1 c 1
229 49 m 1
 329 49 l 1
 329 448 l 1
 288 448 259 435 244 417 c 0
 235 406 229 392 229 373 c 2
 229 49 l 1
EndSplineSet
Validated: 1
EndChar

StartChar: three.oldstyle
Encoding: 1114102 1114102 207
Width: 558
Flags: MW
LayerCount: 2
Fore
SplineSet
229 323 m 2
 257 323 279 343 279 373 c 2
 279 448 l 1
 229 448 l 1
 229 415 229 381 229 348 c 1
 30 348 l 1
 30 398 30 447 30 497 c 1
 179 497 329 497 478 497 c 5
 478 373 l 2
 478 317 424 298 374 287 c 1
 432 277 481 261 509 228 c 0
 522 213 528 196 528 174 c 2
 528 -75 l 2
 528 -120 499 -145 465 -162 c 0
 413 -187 311 -200 229 -200 c 0
 163 -200 96 -200 30 -200 c 1
 30 -51 l 1
 229 -51 l 1
 229 -150 l 1
 270 -150 299 -138 314 -120 c 0
 323 -109 329 -94 329 -75 c 2
 329 174 l 2
 329 229 282 248 230 248 c 2
 130 248 l 1
 130 323 l 1
 229 323 l 2
EndSplineSet
Validated: 1
EndChar

StartChar: two.oldstyle
Encoding: 1114101 1114101 208
Width: 558
Flags: HMW
LayerCount: 2
Fore
SplineSet
279 453 m 4
 251 453 229 434 229 404 c 6
 229 349 l 1
 30 349 l 1
 30 404 l 6
 30 439 53 458 80 471 c 4
 116 489 182 503 279 503 c 4
 376 503 442 489 478 471 c 4
 505 458 528 439 528 404 c 6
 528 349 l 2
 528 254 413 241 330 228 c 0
 293 222 283 224 260 210 c 0
 245 201 229 182 229 149 c 2
 229 50 l 1
 329 50 l 1
 329 83 329 116 329 149 c 1
 528 149 l 1
 528 99 528 50 528 0 c 1
 362 0 196 0 30 0 c 1
 30 149 l 2
 30 244 145 257 228 270 c 0
 265 276 275 275 298 289 c 0
 313 298 329 316 329 349 c 2
 329 404 l 6
 329 434 307 453 279 453 c 4
EndSplineSet
Validated: 1
EndChar

StartChar: one.oldstyle
Encoding: 1114100 1114100 209
Width: 508
VWidth: 900
Flags: MW
LayerCount: 2
Fore
SplineSet
478 497 m 5
 478 332 478 165 478 0 c 1
 279 0 l 1
 279 148 279 299 279 447 c 1
 229 447 l 1
 229 348 l 1
 30 348 l 1
 30 497 l 1
 478 497 l 5
EndSplineSet
Validated: 1
EndChar

StartChar: circumflex
Encoding: 710 710 210
Width: 450
Flags: MW
LayerCount: 2
Fore
SplineSet
50 700 m 1
 150 874 l 5
 300 874 l 1
 400 700 l 1
 250 700 l 1
 225 813 l 1
 200 700 l 1
 50 700 l 1
EndSplineSet
Validated: 1
EndChar

StartChar: uni0302
Encoding: 770 770 211
Width: 0
Flags: MW
LayerCount: 2
Fore
SplineSet
50 700 m 1
 150 874 l 1
 300 874 l 5
 400 700 l 1
 250 700 l 1
 225 813 l 1
 200 700 l 1
 50 700 l 1
EndSplineSet
Validated: 1
EndChar

StartChar: Yacute
Encoding: 221 221 220
Width: 558
Flags: HM
LayerCount: 2
Fore
SplineSet
279 -60 m 0
 307 -60 329 -40 329 -10 c 2
 329 249 l 1
 313 248 297 248 279 248 c 0
 182 248 116 261 80 279 c 0
 53 292 30 312 30 347 c 2
 30 647 l 1
 96 647 163 647 229 647 c 1
 229 347 l 2
 229 317 251 297 279 297 c 0
 307 297 329 317 329 347 c 2
 329 647 l 1
 395 647 462 647 528 647 c 1
 528 428 528 209 528 -10 c 0
 528 -45 505 -65 478 -78 c 0
 442 -96 376 -110 279 -110 c 0
 182 -110 116 -96 80 -78 c 0
 53 -65 30 -45 30 -10 c 2
 30 49 l 1
 229 49 l 1
 229 -10 l 2
 229 -40 252 -60 279 -60 c 0
EndSplineSet
Refer: 151 714 N 1 0 0 1 154 17 2
Validated: 1
EndChar

StartChar: igrave
Encoding: 236 236 231
Width: 335
Flags: MW
LayerCount: 2
Fore
SplineSet
86 0 m 1
 86 166 86 332 86 498 c 1
 285 498 l 1
 285 332 285 166 285 0 c 1
 86 0 l 1
160 742 m 1
 260 568 l 1
 110 568 l 1
 10 742 l 1
 160 742 l 1
EndSplineSet
Validated: 1
EndChar

StartChar: iacute
Encoding: 237 237 232
Width: 314
Flags: MW
LayerCount: 2
Fore
SplineSet
30 0 m 1
 30 166 30 332 30 498 c 1
 229 498 l 1
 229 332 229 166 229 0 c 1
 30 0 l 1
154 742 m 1
 304 742 l 1
 204 568 l 1
 54 568 l 1
 154 742 l 1
EndSplineSet
Validated: 1
EndChar

StartChar: icircumflex
Encoding: 238 238 233
Width: 360
Flags: MW
LayerCount: 2
Fore
SplineSet
81 0 m 1
 81 166 81 332 81 498 c 1
 280 498 l 1
 280 332 280 166 280 0 c 1
 81 0 l 1
5 568 m 1
 105 742 l 1
 255 742 l 1
 355 568 l 1
 205 568 l 1
 180 681 l 1
 155 568 l 5
 5 568 l 1
EndSplineSet
Validated: 1
EndChar

StartChar: Ibreve
Encoding: 300 300 243
Width: 458
Flags: MW
LayerCount: 2
Fore
SplineSet
130 -100 m 1
 130 149 130 398 130 647 c 1
 328 647 l 1
 328 398 328 149 328 -100 c 1
 130 -100 l 1
154 842 m 0
 154 804 182 780 210 771 c 0
 221 767 227 767 229 767 c 0
 247 767 268 778 281 790 c 0
 294 802 304 820 304 842 c 0
 304 859 304 874 304 891 c 1
 354 891 403 891 453 891 c 1
 453 874 453 859 453 842 c 0
 453 784 405 752 354 735 c 0
 321 724 277 717 229 717 c 0
 147 717 76 736 36 773 c 0
 16 792 5 815 5 842 c 0
 5 859 5 874 5 891 c 1
 55 891 104 891 154 891 c 1
 154 874 154 859 154 842 c 0
EndSplineSet
Validated: 1
EndChar

StartChar: ibreve
Encoding: 301 301 244
Width: 458
Flags: MW
LayerCount: 2
Fore
SplineSet
130 0 m 1
 130 166 130 332 130 498 c 1
 329 498 l 1
 329 332 329 166 329 0 c 1
 130 0 l 1
154 693 m 0
 154 655 182 631 210 622 c 0
 221 618 227 618 229 618 c 0
 247 618 268 629 281 641 c 0
 294 653 304 671 304 693 c 0
 304 710 304 725 304 742 c 1
 354 742 403 742 453 742 c 1
 453 725 453 710 453 693 c 0
 453 635 405 603 354 586 c 0
 321 575 277 568 229 568 c 0
 147 568 76 587 36 624 c 0
 16 643 5 666 5 693 c 0
 5 710 5 725 5 742 c 1
 55 742 104 742 154 742 c 5
 154 725 154 710 154 693 c 0
EndSplineSet
Validated: 1
EndChar

StartChar: AE
Encoding: 198 198 267
Width: 858
Flags: MW
LayerCount: 2
Fore
SplineSet
406 647 m 1
 546 647 688 647 828 647 c 1
 828 498 l 1
 628 498 l 1
 628 597 l 1
 529 597 l 1
 529 497 529 399 529 299 c 1
 678 299 l 1
 678 249 l 1
 529 249 l 1
 529 -50 l 1
 628 -50 l 1
 628 -17 628 16 628 49 c 1
 828 49 l 1
 828 -1 828 -50 828 -100 c 1
 662 -100 495 -100 329 -100 c 1
 329 16 329 133 329 249 c 1
 230 249 l 1
 230 -50 l 1
 230 -67 230 -83 230 -100 c 1
 164 -100 96 -100 30 -100 c 1
 30 -76 l 2
 30 -75 l 0
 30 136 30 347 30 558 c 0
 30 593 53 612 80 625 c 0
 116 643 183 657 280 657 c 0
 330 657 372 653 406 647 c 1
280 607 m 0
 252 607 230 588 230 558 c 2
 230 299 l 1
 329 299 l 1
 329 558 l 2
 329 588 308 607 280 607 c 0
EndSplineSet
Validated: 1
EndChar

StartChar: ae
Encoding: 230 230 268
Width: 856
Flags: MW
LayerCount: 2
Fore
SplineSet
577 50 m 0
 605 50 627 70 627 100 c 2
 627 149 l 1
 826 149 l 1
 826 100 l 2
 826 65 803 45 776 32 c 0
 740 14 674 0 577 0 c 0
 560 0 543 0 528 1 c 1
 528 0 l 1
 462 0 395 0 329 0 c 1
 329 5 l 1
 295 1 260 0 229 0 c 0
 163 0 96 0 30 0 c 1
 30 174 l 2
 30 219 58 244 92 261 c 0
 144 286 246 299 328 299 c 1
 328 399 l 2
 328 401 328 403 328 405 c 0
 325 431 305 448 279 448 c 0
 251 448 229 429 229 399 c 2
 229 349 l 1
 30 349 l 1
 30 399 l 2
 30 434 53 453 80 466 c 0
 116 484 182 498 279 498 c 0
 341 498 391 492 428 483 c 1
 465 492 515 498 577 498 c 0
 674 498 740 484 776 466 c 0
 803 453 826 434 826 399 c 0
 826 349 826 299 826 249 c 1
 528 249 l 1
 528 196 528 144 528 91 c 1
 532 66 552 50 577 50 c 0
577 448 m 0
 551 448 531 431 528 405 c 0
 528 403 528 401 528 399 c 2
 528 299 l 1
 627 299 l 1
 627 399 l 2
 627 429 605 448 577 448 c 0
328 115 m 1
 328 249 l 1
 287 249 259 237 244 219 c 0
 235 208 229 193 229 174 c 2
 229 50 l 1
 270 50 298 62 313 80 c 0
 320 89 326 101 328 115 c 1
EndSplineSet
Validated: 1
EndChar

StartChar: dcaron
Encoding: 271 271 285
Width: 718
Flags: MW
LayerCount: 2
Fore
SplineSet
329 448 m 1
 278 448 229 429 229 376 c 0
 229 375 229 375 229 374 c 2
 229 115 l 2
 229 96 235 81 244 70 c 0
 259 52 288 40 329 40 c 1
 329 448 l 1
329 648 m 1
 528 648 l 1
 528 429 528 209 528 -10 c 1
 462 -10 395 -10 329 -10 c 0
 247 -10 145 3 93 28 c 0
 59 45 30 70 30 115 c 2
 30 374 l 2
 30 419 59 443 93 460 c 0
 145 485 247 498 329 498 c 1
 329 648 l 1
588 399 m 5
 588 648 l 5
 688 648 l 5
 688 399 l 5
 588 399 l 5
EndSplineSet
Validated: 1
EndChar

StartChar: jcircumflex
Encoding: 309 309 292
Width: 633
Flags: MW
LayerCount: 2
Fore
SplineSet
279 -150 m 0
 307 -150 329 -130 329 -100 c 2
 329 497 l 1
 395 497 462 497 528 497 c 1
 528 -100 l 2
 528 -135 505 -155 478 -168 c 0
 442 -186 376 -200 279 -200 c 0
 182 -200 116 -186 80 -168 c 0
 53 -155 30 -135 30 -100 c 2
 30 -51 l 1
 229 -51 l 1
 229 -100 l 2
 229 -130 251 -150 279 -150 c 0
254 568 m 1
 354 742 l 1
 504 742 l 1
 604 568 l 1
 454 568 l 1
 428 681 l 1
 404 568 l 1
 254 568 l 1
EndSplineSet
Validated: 1
EndChar

StartChar: uni030A
Encoding: 778 778 299
Width: 0
InSpiro: 1
Flags: MW
LayerCount: 2
Fore
SplineSet
169 850 m 0
 166 850 164 850 161 850 c 0
 148 847 143 839 140 826 c 1
 140 746 l 1
 141 743 l 1
 141 741 l 1
 145 732 149 727 160 724 c 1
 170 724 l 1
 181 727 185 732 189 741 c 1
 189 743 l 1
 190 746 l 1
 190 830 l 1
 189 832 l 1
 189 834 l 1
 184 843 180 848 169 850 c 0
  Spiro
    165 850 o
    161 850 o
    157 849 o
    153 847 o
    150 845 o
    147 841 o
    144 838 o
    142 834 o
    141 830 o
    140 826 o
    140 826 o
    140 825 o
    140 825 [
    140 750 ]
    140 748 o
    140 746 o
    141 743 o
    141 741 o
    142 739 o
    143 737 o
    145 733 o
    148 730 o
    152 727 o
    156 725 o
    160 724 o
    165 724 o
    170 724 o
    174 725 o
    178 727 o
    182 730 o
    185 733 o
    187 737 o
    188 739 o
    189 741 o
    189 743 o
    190 746 o
    190 748 o
    190 750 [
    190 825 ]
    190 827 o
    190 830 o
    189 832 o
    189 834 o
    188 836 o
    187 838 o
    185 842 o
    182 845 o
    178 847 o
    174 849 o
    169 850 o
    0 0 z
  EndSpiro
40 750 m 1
 40 825 l 1
 44 840 l 1
 53 851 l 1
 66 858 l 1
 89 866 l 1
 122 872 l 1
 165 874 l 1
 208 872 l 1
 241 866 l 1
 264 858 l 1
 277 851 l 1
 286 840 l 1
 290 825 l 1
 290 750 l 1
 286 735 l 1
 277 723 l 1
 264 716 l 1
 241 708 l 1
 208 702 l 1
 165 700 l 1
 122 702 l 1
 89 708 l 1
 66 716 l 1
 53 723 l 1
 44 735 l 1
 40 750 l 1
  Spiro
    40 750 v
    40 825 v
    44 840 v
    53 851 v
    66 858 v
    89 866 v
    122 872 v
    165 874 v
    208 872 v
    241 866 v
    264 858 v
    277 851 v
    286 840 v
    290 825 v
    290 750 v
    286 735 v
    277 723 v
    264 716 v
    241 708 v
    208 702 v
    165 700 v
    122 702 v
    89 708 v
    66 716 v
    53 723 v
    44 735 v
    0 0 z
  EndSpiro
EndSplineSet
Validated: 1
EndChar

StartChar: OE
Encoding: 338 338 303
Width: 858
Flags: MW
LayerCount: 2
Fore
SplineSet
828 -100 m 5
 405 -100 l 1
 371 -106 329 -110 279 -110 c 0
 182 -110 116 -96 80 -78 c 0
 53 -65 30 -45 30 -10 c 2
 30 558 l 2
 30 593 53 612 80 625 c 0
 116 643 182 657 279 657 c 0
 329 657 371 653 405 647 c 1
 828 647 l 1
 828 498 l 1
 629 498 l 1
 629 597 l 1
 529 597 l 1
 529 299 l 1
 679 299 l 1
 679 249 l 1
 529 249 l 1
 529 -50 l 1
 629 -50 l 1
 629 -17 629 16 629 49 c 1
 828 49 l 1
 828 -1 828 -50 828 -100 c 5
279 -60 m 0
 304 -60 324 -44 328 -20 c 1
 328 567 l 1
 324 591 304 607 279 607 c 0
 251 607 229 588 229 558 c 2
 229 -10 l 2
 229 -40 251 -60 279 -60 c 0
EndSplineSet
Validated: 1
EndChar

StartChar: oe
Encoding: 339 339 304
Width: 856
Flags: HMW
LayerCount: 2
Fore
SplineSet
577 50 m 4
 605 50 627 70 627 100 c 5
 627 149 l 1
 826 149 l 1
 826 100 l 6
 826 65 803 45 776 32 c 4
 740 14 674 0 577 0 c 4
 525 0 482 4 448 10 c 5
 410 1 354 -5 279 -5 c 0
 182 -5 116 9 80 27 c 0
 53 40 30 60 30 95 c 2
 30 409 l 2
 30 444 53 463 80 476 c 0
 116 494 182 508 279 508 c 0
 341 508 391 502 428 493 c 1
 465 502 514 508 577 508 c 0
 674 508 740 494 776 476 c 0
 803 463 826 444 826 409 c 0
 826 356 826 302 826 249 c 1
 527 249 l 1
 527 100 l 6
 527 70 549 50 577 50 c 4
577 458 m 0
 549 458 527 439 527 409 c 2
 527 299 l 1
 627 299 l 1
 627 409 l 2
 627 439 605 458 577 458 c 0
279 45 m 0
 306 45 327 65 327 95 c 0
 327 97 327 98 328 99 c 0
 328 101 328 103 328 105 c 2
 328 404 l 2
 328 405 327 408 327 409 c 0
 327 439 306 458 279 458 c 0
 251 458 229 439 229 409 c 2
 229 95 l 2
 229 65 251 45 279 45 c 0
EndSplineSet
Validated: 1
EndChar

StartChar: Aring
Encoding: 197 197 305
Width: 558
Flags: M
LayerCount: 2
Fore
SplineSet
279 607 m 0
 251 607 229 588 229 558 c 2
 229 299 l 1
 329 299 l 1
 329 558 l 2
 329 588 307 607 279 607 c 0
30 -100 m 1
 30 558 l 2
 30 593 53 612 80 625 c 0
 116 643 182 657 279 657 c 0
 376 657 442 643 478 625 c 0
 505 612 528 593 528 558 c 2
 528 -100 l 1
 462 -100 395 -100 329 -100 c 1
 329 249 l 1
 229 249 l 1
 229 -100 l 1
 163 -100 96 -100 30 -100 c 1
283 867 m 0
 280 867 278 867 275 867 c 0
 262 864 257 856 254 843 c 1
 254 763 l 1
 255 760 l 1
 255 758 l 1
 259 749 263 744 274 741 c 1
 284 741 l 1
 295 744 299 749 303 758 c 1
 303 760 l 1
 304 763 l 1
 304 847 l 1
 303 849 l 1
 303 851 l 1
 298 860 294 865 283 867 c 0
154 767 m 1
 154 842 l 1
 158 857 l 1
 167 868 l 1
 180 875 l 1
 203 883 l 1
 236 889 l 1
 279 891 l 1
 322 889 l 1
 355 883 l 1
 378 875 l 1
 391 868 l 1
 400 857 l 1
 404 842 l 1
 404 767 l 1
 400 752 l 1
 391 740 l 1
 378 733 l 1
 355 725 l 1
 322 719 l 1
 279 717 l 1
 236 719 l 1
 203 725 l 1
 180 733 l 1
 167 740 l 1
 158 752 l 1
 154 767 l 1
EndSplineSet
Validated: 1
EndChar

StartChar: degree
Encoding: 176 176 306
Width: 310
Flags: MW
LayerCount: 2
Fore
SplineSet
30 395 m 2
 30 554 l 2
 30 572 42 581 56 587 c 0
 74 596 107 603 155 603 c 4
 203 603 236 596 254 587 c 0
 268 581 280 572 280 554 c 2
 280 395 l 2
 280 377 268 367 254 361 c 0
 236 352 203 345 155 345 c 0
 107 345 74 352 56 361 c 0
 42 367 30 377 30 395 c 2
155 579 m 0
 142 579 130 569 130 555 c 0
 130 554 l 2
 130 395 l 2
 130 380 141 369 155 369 c 0
 169 369 180 380 180 395 c 2
 180 554 l 2
 180 569 169 579 155 579 c 0
EndSplineSet
Validated: 1
EndChar

StartChar: colon
Encoding: 58 58 307
Width: 350
Flags: MW
LayerCount: 2
Fore
SplineSet
75 0 m 1
 75 149 l 1
 275 149 l 5
 275 0 l 5
 75 0 l 1
75 349 m 1
 75 498 l 1
 275 498 l 5
 275 349 l 5
 75 349 l 1
EndSplineSet
Validated: 1
EndChar

StartChar: semicolon
Encoding: 59 59 308
Width: 350
Flags: MW
LayerCount: 2
Fore
SplineSet
75 349 m 1
 75 498 l 1
 275 498 l 1
 275 349 l 1
 75 349 l 1
75 0 m 1
 75 149 l 1
 275 149 l 1
 275 -150 l 1
 150 -150 l 1
 150 0 l 1
 75 0 l 1
EndSplineSet
Validated: 1
EndChar

StartChar: exclam
Encoding: 33 33 311
Width: 300
Flags: MW
LayerCount: 2
Fore
SplineSet
50 0 m 1
 50 149 l 1
 250 149 l 5
 250 0 l 5
 50 0 l 1
50 249 m 1
 50 647 l 1
 250 647 l 5
 250 249 l 5
 50 249 l 1
EndSplineSet
Validated: 1
EndChar

StartChar: question
Encoding: 63 63 312
Width: 598
Flags: MW
LayerCount: 2
Fore
SplineSet
299 647 m 0
 359 647 439 638 484 621 c 0
 529 604 548 580 548 547 c 2
 548 472 l 1
 547 382 399 416 399 348 c 2
 399 249 l 1
 332 249 266 249 199 249 c 1
 199 348 l 2
 199 369 208 384 233 396 c 0
 258 408 303 416 322 419 c 0
 329 420 348 420 349 447 c 1
 349 547 l 2
 349 575 329 589 317 594 c 0
 312 596 306 597 299 597 c 0
 278 597 254 584 249 547 c 1
 249 497 l 1
 50 497 l 1
 50 547 l 2
 50 580 69 604 114 621 c 0
 159 638 239 647 299 647 c 0
200 0 m 1
 200 149 l 1
 400 149 l 1
 400 0 l 1
 200 0 l 1
EndSplineSet
Validated: 1
EndChar

StartChar: bar
Encoding: 124 124 315
Width: 399
Flags: MW
LayerCount: 2
Fore
SplineSet
100 -200 m 1
 100 133 100 467 100 800 c 1
 299 800 l 1
 299 467 299 133 299 -200 c 1
 100 -200 l 1
EndSplineSet
Validated: 1
EndChar

StartChar: dollar
Encoding: 36 36 316
Width: 598
Flags: MW
LayerCount: 2
Fore
SplineSet
299 607 m 0
 271 607 249 588 249 558 c 2
 249 398 l 2
 249 354 274 336 304 328 c 0
 335 320 380 317 419 308 c 0
 482 294 548 272 548 199 c 2
 548 -10 l 2
 548 -45 525 -65 498 -78 c 0
 476 -89 443 -98 399 -104 c 1
 399 -136 399 -168 399 -200 c 1
 199 -200 l 1
 199 -104 l 1
 155 -98 122 -89 100 -78 c 0
 73 -65 50 -45 50 -10 c 2
 50 49 l 1
 249 49 l 1
 249 -10 l 2
 249 -40 271 -60 299 -60 c 0
 327 -60 349 -40 349 -10 c 2
 349 199 l 2
 349 243 324 261 294 269 c 0
 263 277 218 280 179 289 c 0
 116 303 50 325 50 398 c 2
 50 558 l 2
 50 593 73 612 100 625 c 0
 122 636 155 645 199 651 c 5
 199 684 199 717 199 750 c 1
 399 750 l 1
 399 651 l 1
 443 645 476 636 498 625 c 0
 525 612 548 593 548 558 c 2
 548 498 l 1
 349 498 l 1
 349 558 l 2
 349 588 327 607 299 607 c 0
EndSplineSet
Validated: 1
EndChar

StartChar: slash
Encoding: 47 47 317
Width: 659
Flags: MW
LayerCount: 2
Fore
SplineSet
30 -200 m 1
 430 800 l 5
 629 800 l 5
 229 -200 l 1
 30 -200 l 1
EndSplineSet
Validated: 1
EndChar

StartChar: backslash
Encoding: 92 92 318
Width: 659
Flags: MW
LayerCount: 2
Fore
SplineSet
629 -200 m 1
 430 -200 l 1
 30 800 l 1
 229 800 l 1
 629 -200 l 1
EndSplineSet
Validated: 1
EndChar

StartChar: cent
Encoding: 162 162 319
Width: 598
Flags: HMW
LayerCount: 2
Fore
SplineSet
299 55 m 0
 327 55 349 75 349 105 c 2
 349 149 l 1
 548 149 l 1
 548 105 l 2
 548 70 525 50 498 37 c 0
 476 26 443 17 399 11 c 1
 399 -26 399 -63 399 -100 c 1
 199 -100 l 1
 199 11 l 1
 155 17 122 26 100 37 c 0
 73 50 50 70 50 105 c 2
 50 394 l 6
 50 429 73 448 100 461 c 4
 122 472 155 481 199 487 c 5
 199 525 199 562 199 600 c 1
 399 600 l 1
 399 487 l 5
 443 481 476 472 498 461 c 4
 525 448 548 429 548 394 c 6
 548 349 l 1
 349 349 l 1
 349 394 l 6
 349 424 327 443 299 443 c 4
 271 443 249 424 249 394 c 6
 249 105 l 2
 249 75 271 55 299 55 c 0
EndSplineSet
Validated: 1
EndChar

StartChar: percent
Encoding: 37 37 320
Width: 799
Flags: MW
LayerCount: 2
Fore
SplineSet
50 449 m 2
 50 608 l 2
 50 626 62 634 76 641 c 0
 94 650 127 657 175 657 c 0
 223 657 256 649 274 641 c 0
 288 635 300 626 300 608 c 2
 300 449 l 2
 300 431 288 422 274 415 c 0
 256 401 223 391 175 391 c 0
 127 391 94 403 76 415 c 0
 62 421 50 431 50 449 c 2
175 633 m 0
 162 633 150 623 150 609 c 0
 150 608 l 2
 150 449 l 2
 150 434 161 423 175 423 c 0
 189 423 200 434 200 449 c 2
 200 608 l 2
 200 623 189 633 175 633 c 0
101 -100 m 1
 501 647 l 1
 700 647 l 1
 300 -100 l 1
 101 -100 l 1
501 -60 m 2
 501 99 l 2
 501 117 511 125 525 132 c 0
 543 141 577 148 625 148 c 0
 673 148 707 140 725 132 c 0
 739 126 749 117 749 99 c 2
 749 -60 l 2
 749 -78 739 -87 725 -94 c 0
 707 -103 673 -110 625 -110 c 0
 577 -110 543 -102 525 -94 c 0
 511 -88 501 -78 501 -60 c 2
625 124 m 0
 612 124 600 114 600 100 c 0
 600 99 l 2
 600 -60 l 2
 600 -75 611 -86 625 -86 c 0
 639 -86 650 -75 650 -60 c 2
 650 99 l 2
 650 114 639 124 625 124 c 0
EndSplineSet
Validated: 1
EndChar

StartChar: bracketleft
Encoding: 91 91 321
Width: 454
Flags: MW
LayerCount: 2
Fore
SplineSet
275 750 m 1
 275 -150 l 1
 424 -150 l 1
 424 -200 l 1
 308 -200 191 -200 75 -200 c 1
 75 800 l 1
 424 800 l 1
 424 750 l 1
 275 750 l 1
EndSplineSet
Validated: 1
EndChar

StartChar: bracketright
Encoding: 93 93 322
Width: 454
Flags: MW
LayerCount: 2
Fore
SplineSet
179 750 m 1
 30 750 l 1
 30 800 l 1
 379 800 l 1
 379 -200 l 1
 263 -200 146 -200 30 -200 c 1
 30 -150 l 1
 179 -150 l 1
 179 750 l 1
EndSplineSet
Validated: 1
EndChar

StartChar: questiondown
Encoding: 191 191 323
Width: 558
Flags: MW
LayerCount: 2
Fore
SplineSet
279 -100 m 4
 219 -100 139 -91 94 -74 c 0
 49 -57 30 -33 30 0 c 2
 30 75 l 1
 31 165 179 131 179 199 c 2
 179 298 l 1
 246 298 312 298 379 298 c 1
 379 199 l 2
 379 178 370 163 345 151 c 0
 320 139 275 131 256 128 c 0
 249 127 230 127 229 100 c 1
 229 0 l 2
 229 -28 249 -42 261 -47 c 0
 266 -49 272 -50 279 -50 c 0
 300 -50 324 -37 329 0 c 1
 329 50 l 1
 528 50 l 1
 528 0 l 2
 528 -33 509 -57 464 -74 c 0
 419 -91 339 -100 279 -100 c 4
378 547 m 1
 378 398 l 1
 178 398 l 1
 178 547 l 1
 378 547 l 1
EndSplineSet
Validated: 1
EndChar

StartChar: exclamdown
Encoding: 161 161 324
Width: 300
Flags: MW
LayerCount: 2
Fore
SplineSet
50 547 m 1
 250 547 l 5
 250 398 l 5
 50 398 l 1
 50 547 l 1
50 298 m 1
 250 298 l 5
 250 -100 l 5
 50 -100 l 1
 50 298 l 1
EndSplineSet
Validated: 1
EndChar

StartChar: plus
Encoding: 43 43 325
Width: 558
Flags: MW
LayerCount: 2
Fore
SplineSet
379 274 m 1
 528 274 l 1
 528 224 l 1
 379 224 l 1
 379 157 379 92 379 25 c 1
 179 25 l 1
 179 224 l 1
 30 224 l 1
 30 274 l 1
 179 274 l 1
 179 341 179 406 179 473 c 1
 379 473 l 1
 379 274 l 1
EndSplineSet
Validated: 1
EndChar

StartChar: hyphen
Encoding: 45 45 326
Width: 558
Flags: MW
LayerCount: 2
Fore
SplineSet
30 299 m 1
 196 299 362 299 528 299 c 5
 528 249 l 1
 362 249 196 249 30 249 c 1
 30 299 l 1
EndSplineSet
Validated: 1
EndChar

StartChar: equal
Encoding: 61 61 327
Width: 558
Flags: MW
LayerCount: 2
Fore
SplineSet
30 349 m 1
 196 349 362 349 528 349 c 1
 528 299 l 1
 362 299 196 299 30 299 c 1
 30 349 l 1
30 249 m 1
 196 249 362 249 528 249 c 1
 528 199 l 1
 362 199 196 199 30 199 c 1
 30 249 l 1
EndSplineSet
Validated: 1
EndChar

StartChar: numbersign
Encoding: 35 35 328
Width: 748
VWidth: 1050
Flags: MW
LayerCount: 2
Fore
SplineSet
598 373 m 1
 698 373 l 1
 698 323 l 1
 598 323 l 1
 598 173 l 1
 698 173 l 1
 698 124 l 1
 598 124 l 1
 598 83 598 41 598 0 c 1
 399 0 l 1
 399 124 l 1
 349 124 l 1
 349 83 349 41 349 0 c 1
 150 0 l 1
 150 124 l 1
 50 124 l 1
 50 173 l 1
 150 173 l 1
 150 323 l 1
 50 323 l 1
 50 373 l 1
 150 373 l 1
 150 414 150 456 150 497 c 5
 349 497 l 1
 349 373 l 1
 399 373 l 1
 399 414 399 456 399 497 c 1
 598 497 l 1
 598 373 l 1
399 323 m 1
 349 323 l 1
 349 173 l 1
 399 173 l 1
 399 323 l 1
EndSplineSet
Validated: 1
EndChar

StartChar: asterisk
Encoding: 42 42 329
Width: 650
VWidth: 849
Flags: MW
LayerCount: 2
Fore
SplineSet
262 673 m 1
 388 673 l 1
 388 623 388 573 388 523 c 1
 390 523 392 523 394 523 c 0
 418 523 444 533 449 553 c 0
 450 584 450 616 450 647 c 1
 491 647 533 647 574 647 c 1
 574 638 574 629 574 620 c 0
 574 616 574 612 574 608 c 0
 574 598 574 589 574 579 c 0
 574 569 574 559 572 549 c 0
 562 521 522 512 491 506 c 0
 470 504 491 503 501 501 c 0
 531 495 568 484 574 456 c 1
 575 431 575 405 575 380 c 1
 450 380 l 1
 450 451 l 1
 448 473 420 485 394 485 c 0
 392 485 390 485 388 485 c 1
 388 431 388 377 388 323 c 1
 262 323 l 1
 262 377 262 431 262 485 c 1
 260 485 258 485 256 485 c 0
 231 485 205 474 200 454 c 0
 200 444 200 433 200 423 c 0
 200 402 200 381 200 360 c 1
 75 360 l 1
 75 404 l 1
 76 424 74 444 79 463 c 0
 91 489 128 497 158 502 c 0
 178 504 163 505 152 507 c 0
 121 513 82 524 76 552 c 1
 76 563 76 573 76 584 c 0
 76 598 76 613 76 627 c 1
 117 627 159 627 200 627 c 1
 200 605 200 581 200 559 c 0
 200 536 227 522 254 522 c 0
 257 522 259 523 262 523 c 1
 262 573 262 623 262 673 c 1
EndSplineSet
Validated: 1
EndChar

StartChar: macron
Encoding: 175 175 332
Width: 230
VWidth: 1575
Flags: MW
LayerCount: 2
Fore
SplineSet
-10 874 m 1
 73 874 157 874 240 874 c 5
 240 824 l 1
 157 824 73 824 -10 824 c 1
 -10 874 l 1
EndSplineSet
Validated: 1
EndChar

StartChar: underscore
Encoding: 95 95 346
Width: 558
VWidth: 569
Flags: MW
LayerCount: 2
Fore
SplineSet
30 -132 m 1
 196 -132 362 -132 528 -132 c 5
 528 -182 l 1
 362 -182 196 -182 30 -182 c 1
 30 -132 l 1
EndSplineSet
Validated: 1
EndChar

StartChar: greater
Encoding: 62 62 347
Width: 598
VWidth: 952
Flags: MW
LayerCount: 2
Fore
SplineSet
249 0 m 1
 50 0 l 1
 349 274 l 1
 50 451 l 1
 249 451 l 1
 548 274 l 1
 249 0 l 1
EndSplineSet
Validated: 1
EndChar

StartChar: less
Encoding: 60 60 348
Width: 598
VWidth: 952
Flags: MW
LayerCount: 2
Fore
SplineSet
349 0 m 1
 50 274 l 5
 349 451 l 1
 548 451 l 1
 249 274 l 1
 548 0 l 1
 349 0 l 1
EndSplineSet
Validated: 1
EndChar

StartChar: guillemotright
Encoding: 187 187 349
Width: 947
VWidth: 952
Flags: MW
LayerCount: 2
Fore
SplineSet
274 0 m 1
 75 0 l 1
 374 274 l 1
 75 451 l 1
 274 451 l 1
 573 274 l 1
 274 0 l 1
573 0 m 1
 374 0 l 1
 673 274 l 1
 374 451 l 1
 573 451 l 1
 872 274 l 1
 573 0 l 1
EndSplineSet
Validated: 1
EndChar

StartChar: guillemotleft
Encoding: 171 171 350
Width: 947
VWidth: 952
Flags: MW
LayerCount: 2
Fore
SplineSet
673 0 m 1
 374 274 l 1
 673 451 l 1
 872 451 l 1
 573 274 l 1
 872 0 l 1
 673 0 l 1
374 0 m 1
 75 274 l 1
 374 451 l 1
 573 451 l 1
 274 274 l 1
 573 0 l 1
 374 0 l 1
EndSplineSet
Validated: 1
EndChar

StartChar: brokenbar
Encoding: 166 166 351
Width: 399
Flags: MW
LayerCount: 2
Fore
SplineSet
100 -200 m 1
 100 -50 100 99 100 249 c 1
 299 249 l 1
 299 99 299 -50 299 -200 c 1
 100 -200 l 1
100 324 m 1
 100 483 100 641 100 800 c 1
 299 800 l 1
 299 641 299 483 299 324 c 1
 100 324 l 1
EndSplineSet
Validated: 1
EndChar

StartChar: yen
Encoding: 165 165 352
Width: 636
Flags: MW
LayerCount: 2
Fore
SplineSet
567 373 m 2
 567 351 557 334 543 322 c 1
 606 322 l 1
 606 272 l 1
 418 272 l 1
 418 150 l 1
 492 150 l 1
 492 100 l 1
 418 100 l 1
 418 33 418 -33 418 -100 c 1
 218 -100 l 1
 218 100 l 1
 144 100 l 1
 144 150 l 1
 218 150 l 1
 218 191 218 231 218 272 c 1
 30 272 l 1
 30 322 l 1
 93 322 l 1
 79 334 69 351 69 373 c 2
 69 647 l 1
 135 647 202 647 268 647 c 1
 268 373 l 2
 268 343 290 323 318 323 c 0
 346 323 368 343 368 373 c 2
 368 647 l 1
 434 647 501 647 567 647 c 1
 567 373 l 2
EndSplineSet
Validated: 1
EndChar

StartChar: dieresis
Encoding: 168 168 353
Width: 450
Flags: MW
LayerCount: 2
Fore
SplineSet
50 725 m 5
 50 874 l 5
 200 874 l 5
 200 725 l 5
 50 725 l 5
250 725 m 5
 250 874 l 5
 400 874 l 5
 400 725 l 5
 250 725 l 5
EndSplineSet
Validated: 1
EndChar

StartChar: plusminus
Encoding: 177 177 354
Width: 558
VWidth: 851
Flags: MW
LayerCount: 2
Fore
SplineSet
379 299 m 1
 528 299 l 1
 528 249 l 1
 379 249 l 1
 379 150 l 1
 528 150 l 1
 528 100 l 1
 30 100 l 1
 30 150 l 1
 179 150 l 1
 179 249 l 1
 30 249 l 1
 30 299 l 1
 179 299 l 1
 179 349 179 398 179 448 c 1
 379 448 l 1
 379 299 l 1
EndSplineSet
Validated: 1
EndChar

StartChar: mu
Encoding: 181 181 356
Width: 558
Flags: HMW
LayerCount: 2
Fore
SplineSet
279 45 m 4
 307 45 329 65 329 95 c 6
 329 498 l 1
 395 498 462 498 528 498 c 1
 528 95 l 6
 528 60 505 40 478 27 c 4
 442 9 376 -5 279 -5 c 4
 261 -5 245 -5 229 -4 c 5
 229 -70 229 -134 229 -200 c 1
 30 -200 l 1
 30 33 30 265 30 498 c 1
 229 498 l 1
 229 95 l 6
 229 65 251 45 279 45 c 4
EndSplineSet
Validated: 1
EndChar

StartChar: section
Encoding: 167 167 357
Width: 598
Flags: MW
LayerCount: 2
Fore
SplineSet
299 598 m 0
 271 598 249 579 249 549 c 2
 249 489 l 2
 249 445 274 427 304 419 c 0
 381 399 490 401 532 342 c 0
 542 331 548 317 548 299 c 2
 548 230 l 2
 548 195 525 175 498 162 c 0
 484 155 464 148 440 143 c 1
 496 128 548 104 548 39 c 2
 548 -20 l 2
 548 -55 525 -75 498 -88 c 0
 462 -106 396 -120 299 -120 c 4
 202 -120 136 -105 100 -88 c 0
 73 -75 50 -55 50 -20 c 2
 50 39 l 1
 249 39 l 1
 249 -20 l 2
 249 -50 271 -70 299 -70 c 0
 327 -70 349 -50 349 -20 c 2
 349 39 l 2
 349 83 324 101 294 109 c 0
 216 129 104 127 64 189 c 0
 56 200 50 213 50 230 c 2
 50 299 l 2
 50 334 73 353 100 366 c 0
 114 373 134 380 158 385 c 1
 102 400 50 424 50 489 c 2
 50 549 l 2
 50 584 73 603 100 616 c 0
 136 634 202 648 299 648 c 0
 396 648 462 633 498 616 c 0
 525 603 548 584 548 549 c 2
 548 489 l 1
 349 489 l 1
 349 549 l 2
 349 579 327 598 299 598 c 0
349 289 m 0
 349 325 333 348 299 348 c 0
 271 348 249 329 249 299 c 0
 249 279 249 259 249 239 c 0
 249 203 266 180 299 180 c 0
 327 180 349 200 349 230 c 0
 349 250 349 269 349 289 c 0
EndSplineSet
Validated: 1
EndChar

StartChar: paragraph
Encoding: 182 182 358
Width: 850
Flags: MW
LayerCount: 2
Fore
SplineSet
325 661 m 4
 475 660 625 660 775 660 c 1
 775 -202 l 1
 576 -202 l 1
 576 610 l 1
 525 610 l 1
 525 -202 l 1
 326 -202 l 1
 326 287 l 1
 246 288 154 298 100 365 c 0
 78 392 76 425 76 458 c 2
 76 489 l 2
 76 494 75 500 75 505 c 2
 75 521 l 2
 75 551 81 583 106 603 c 0
 166 653 250 659 325 661 c 4
EndSplineSet
Validated: 1
EndChar

StartChar: periodcentered
Encoding: 183 183 359
Width: 350
VWidth: 975
Flags: MW
LayerCount: 2
Fore
SplineSet
75 199 m 1
 75 348 l 1
 275 348 l 1
 275 199 l 5
 75 199 l 1
EndSplineSet
Validated: 1
EndChar

StartChar: divide
Encoding: 247 247 360
Width: 648
Flags: MW
LayerCount: 2
Fore
SplineSet
224 50 m 1
 224 199 l 1
 424 199 l 1
 424 50 l 1
 224 50 l 1
224 349 m 1
 224 498 l 1
 424 498 l 1
 424 349 l 1
 224 349 l 1
75 299 m 1
 241 299 407 299 573 299 c 1
 573 249 l 1
 407 249 241 249 75 249 c 1
 75 299 l 1
EndSplineSet
Validated: 1
EndChar

StartChar: uni00B9
Encoding: 185 185 365
Width: 284
VWidth: 900
Flags: MW
LayerCount: 2
Fore
SplineSet
254 598 m 1
 254 516 254 431 254 349 c 1
 154 349 l 1
 154 423 154 499 154 573 c 1
 130 573 l 1
 130 523 l 1
 30 523 l 1
 30 598 l 5
 254 598 l 1
EndSplineSet
Validated: 1
EndChar

StartChar: uni00B2
Encoding: 178 178 366
Width: 310
Flags: MW
LayerCount: 2
Fore
SplineSet
155 578 m 0
 141 578 130 569 130 554 c 2
 130 524 l 1
 30 524 l 1
 30 554 l 2
 30 572 42 581 56 587 c 0
 74 596 107 603 155 603 c 4
 203 603 236 596 254 587 c 0
 268 581 280 572 280 554 c 2
 280 524 l 2
 280 476 222 469 180 463 c 0
 162 460 158 461 146 454 c 0
 138 450 130 440 130 424 c 2
 130 374 l 1
 180 374 l 1
 180 390 180 408 180 424 c 1
 280 424 l 1
 280 399 280 374 280 349 c 1
 197 349 113 349 30 349 c 1
 30 424 l 2
 30 472 88 478 130 484 c 0
 148 487 152 487 164 494 c 0
 172 498 180 508 180 524 c 2
 180 554 l 2
 180 569 169 578 155 578 c 0
EndSplineSet
Validated: 1
EndChar

StartChar: uni00B3
Encoding: 179 179 367
Width: 310
Flags: MW
LayerCount: 2
Fore
SplineSet
130 510 m 2
 144 510 155 520 155 535 c 2
 155 573 l 1
 130 573 l 1
 130 556 130 540 130 523 c 1
 30 523 l 1
 30 548 30 573 30 598 c 1
 105 598 180 598 255 598 c 1
 255 535 l 2
 255 507 228 498 203 492 c 1
 232 487 256 480 270 463 c 0
 276 455 280 447 280 436 c 2
 280 407 l 2
 280 384 265 371 248 363 c 0
 222 350 171 345 130 345 c 4
 97 345 63 345 30 345 c 1
 30 423 l 1
 130 423 l 1
 130 369 l 1
 150 369 164 376 172 385 c 0
 177 390 180 398 180 407 c 2
 180 436 l 2
 180 464 156 473 130 473 c 2
 80 473 l 1
 80 510 l 1
 130 510 l 2
EndSplineSet
Validated: 1
EndChar

StartChar: ordfeminine
Encoding: 170 170 368
Width: 370
Flags: MW
LayerCount: 2
Fore
SplineSet
160 374 m 1
 180 374 194 380 202 389 c 0
 206 395 210 402 210 412 c 2
 210 474 l 1
 190 474 176 467 168 458 c 0
 164 452 160 446 160 436 c 2
 160 374 l 1
185 578 m 0
 171 578 160 569 160 554 c 2
 160 524 l 1
 60 524 l 1
 60 554 l 2
 60 572 72 581 86 587 c 0
 104 596 137 603 185 603 c 0
 233 603 266 596 284 587 c 0
 298 581 310 572 310 554 c 2
 310 349 l 1
 277 349 243 349 210 349 c 1
 210 352 l 1
 193 350 176 349 160 349 c 0
 127 349 93 349 60 349 c 1
 60 436 l 2
 60 458 75 472 92 480 c 0
 118 492 169 498 210 498 c 1
 210 554 l 2
 210 569 199 578 185 578 c 0
30 299 m 5
 133 299 237 299 340 299 c 5
 340 249 l 5
 237 249 133 249 30 249 c 5
 30 299 l 5
EndSplineSet
Validated: 1
EndChar

StartChar: ordmasculine
Encoding: 186 186 369
Width: 370
Flags: MW
LayerCount: 2
Fore
SplineSet
30 299 m 1
 133 299 237 299 340 299 c 1
 340 249 l 1
 237 249 133 249 30 249 c 1
 30 299 l 1
EndSplineSet
Refer: 306 176 N 1 0 0 1 30 0 2
Validated: 1
EndChar

StartChar: onequarter
Encoding: 188 188 370
Width: 370
Flags: MW
LayerCount: 2
Fore
SplineSet
48 -5 m 1
 48 133 l 2
 48 155 62 167 79 175 c 0
 105 187 156 195 197 195 c 0
 230 195 264 195 297 195 c 1
 297 20 l 1
 322 20 l 1
 322 -5 l 1
 297 -5 l 1
 297 -21 297 -39 297 -55 c 1
 197 -55 l 1
 197 -5 l 1
 48 -5 l 1
147 20 m 1
 197 20 l 1
 197 169 l 1
 177 169 163 164 155 155 c 0
 151 149 147 143 147 133 c 2
 147 20 l 1
30 299 m 1
 133 299 237 299 340 299 c 1
 340 249 l 1
 237 249 133 249 30 249 c 1
 30 299 l 1
297 598 m 5
 297 516 297 431 297 349 c 5
 197 349 l 5
 197 423 197 499 197 573 c 5
 173 573 l 5
 173 523 l 5
 73 523 l 5
 73 598 l 5
 297 598 l 5
EndSplineSet
Validated: 1
EndChar

StartChar: onehalf
Encoding: 189 189 371
Width: 370
VWidth: 900
Flags: MW
LayerCount: 2
Fore
SplineSet
297 598 m 5
 297 516 297 431 297 349 c 5
 197 349 l 5
 197 423 197 499 197 573 c 5
 173 573 l 5
 173 523 l 5
 73 523 l 5
 73 598 l 5
 297 598 l 5
30 299 m 1
 133 299 237 299 340 299 c 1
 340 249 l 1
 237 249 133 249 30 249 c 1
 30 299 l 1
185 174 m 0
 171 174 160 165 160 150 c 2
 160 120 l 1
 60 120 l 1
 60 150 l 2
 60 168 72 176 86 183 c 0
 104 192 137 199 185 199 c 0
 233 199 266 191 284 183 c 0
 298 177 310 168 310 150 c 2
 310 120 l 2
 310 72 252 66 210 59 c 0
 192 56 188 56 176 50 c 0
 168 46 160 36 160 20 c 2
 160 -30 l 1
 210 -30 l 1
 210 -14 210 4 210 20 c 1
 310 20 l 1
 310 -5 310 -30 310 -55 c 1
 227 -55 143 -55 60 -55 c 1
 60 20 l 2
 60 68 118 73 160 80 c 0
 178 83 182 84 194 90 c 0
 202 94 210 104 210 120 c 2
 210 150 l 2
 210 165 199 174 185 174 c 0
EndSplineSet
Validated: 1
EndChar

StartChar: threequarters
Encoding: 190 190 372
Width: 370
Flags: MW
LayerCount: 2
Fore
SplineSet
48 -5 m 1
 48 133 l 2
 48 155 62 167 79 175 c 0
 105 187 156 195 197 195 c 0
 230 195 264 195 297 195 c 1
 297 20 l 1
 322 20 l 1
 322 -5 l 1
 297 -5 l 1
 297 -21 297 -39 297 -55 c 5
 197 -55 l 1
 197 -5 l 1
 48 -5 l 1
147 20 m 1
 197 20 l 1
 197 169 l 1
 177 169 163 164 155 155 c 0
 151 149 147 143 147 133 c 2
 147 20 l 1
30 299 m 1
 133 299 237 299 340 299 c 1
 340 249 l 1
 237 249 133 249 30 249 c 1
 30 299 l 1
160 510 m 2
 174 510 185 520 185 535 c 2
 185 573 l 1
 160 573 l 1
 160 556 160 540 160 523 c 1
 60 523 l 1
 60 548 60 573 60 598 c 1
 135 598 210 598 285 598 c 1
 285 535 l 2
 285 507 258 498 233 492 c 1
 262 487 286 480 300 463 c 0
 306 455 310 447 310 436 c 2
 310 407 l 2
 310 384 295 371 278 363 c 0
 252 350 201 345 160 345 c 0
 127 345 93 345 60 345 c 1
 60 423 l 1
 160 423 l 1
 160 369 l 1
 180 369 194 376 202 385 c 0
 207 390 210 398 210 407 c 2
 210 436 l 2
 210 464 186 473 160 473 c 2
 110 473 l 1
 110 510 l 1
 160 510 l 2
EndSplineSet
Validated: 1
EndChar

StartChar: cedilla
Encoding: 184 184 373
Width: 310
Flags: MW
LayerCount: 2
Fore
SplineSet
155 -158 m 0
 125 -158 84 -154 62 -146 c 0
 40 -138 30 -124 30 -108 c 2
 30 -84 l 1
 130 -84 l 1
 130 -108 l 1
 132 -126 145 -134 155 -134 c 0
 159 -134 162 -133 164 -132 c 0
 170 -130 180 -122 180 -108 c 2
 180 -58 l 1
 180 -44 170 -44 166 -44 c 0
 156 -42 134 -39 122 -33 c 0
 110 -27 105 -19 105 -9 c 2
 115 20 l 1
 149 20 181 20 215 20 c 1
 205 -9 l 2
 205 -43 280 -26 280 -71 c 1
 280 -108 l 2
 280 -124 270 -138 248 -146 c 0
 226 -154 185 -158 155 -158 c 0
EndSplineSet
Validated: 1
EndChar

StartChar: Ccedilla
Encoding: 199 199 376
Width: 558
Flags: M
LayerCount: 2
Fore
SplineSet
269 -262 m 4
 239 -262 198 -258 176 -250 c 0
 154 -242 144 -228 144 -212 c 2
 144 -188 l 1
 244 -188 l 1
 244 -212 l 2
 246 -230 259 -238 269 -238 c 0
 273 -238 276 -237 278 -236 c 0
 284 -234 294 -226 294 -212 c 2
 294 -162 l 2
 294 -148 284 -148 280 -148 c 0
 270 -146 248 -143 236 -137 c 0
 224 -131 219 -123 219 -113 c 2
 221 -108 l 1
 155 -104 108 -92 80 -78 c 0
 53 -65 30 -45 30 -10 c 2
 30 558 l 2
 30 593 53 612 80 625 c 0
 116 643 182 657 279 657 c 0
 376 657 442 643 478 625 c 0
 505 612 528 593 528 558 c 2
 528 498 l 1
 329 498 l 1
 329 558 l 2
 329 588 307 607 279 607 c 0
 253 607 229 589 229 560 c 0
 229 559 229 559 229 558 c 2
 229 -10 l 2
 229 -40 251 -60 279 -60 c 0
 307 -60 329 -40 329 -10 c 2
 329 49 l 1
 528 49 l 1
 528 -10 l 2
 528 -45 505 -65 478 -78 c 0
 447 -93 395 -106 320 -109 c 1
 319 -113 l 1
 319 -147 394 -130 394 -175 c 2
 394 -212 l 2
 394 -228 384 -242 362 -250 c 0
 340 -258 299 -262 269 -262 c 4
EndSplineSet
Validated: 1
EndChar

StartChar: ccedilla
Encoding: 231 231 377
Width: 558
Flags: HM
LayerCount: 2
Fore
SplineSet
269 -162 m 0
 239 -162 198 -158 176 -150 c 0
 154 -142 144 -128 144 -112 c 2
 144 -88 l 1
 244 -88 l 1
 244 -112 l 2
 246 -130 259 -138 269 -138 c 0
 273 -138 276 -137 278 -136 c 0
 284 -134 294 -126 294 -112 c 2
 294 -62 l 2
 294 -48 284 -48 280 -48 c 0
 270 -46 248 -43 236 -37 c 0
 224 -30 219 -20 219 -8 c 6
 221 -3 l 5
 155 1 108 13 80 27 c 4
 53 40 30 60 30 95 c 6
 30 409 l 2
 30 444 53 463 80 476 c 0
 116 494 182 508 279 508 c 0
 376 508 442 494 478 476 c 0
 505 463 528 444 528 409 c 2
 528 349 l 1
 329 349 l 1
 329 409 l 2
 329 439 307 458 279 458 c 0
 253 458 229 440 229 411 c 0
 229 410 229 410 229 409 c 2
 229 95 l 6
 229 65 251 45 279 45 c 4
 307 45 329 65 329 95 c 6
 329 149 l 1
 528 149 l 1
 528 95 l 6
 528 60 505 40 478 27 c 4
 447 12 395 -1 320 -4 c 5
 319 -8 l 5
 319 -45 394 -26 394 -75 c 2
 394 -112 l 2
 394 -128 384 -142 362 -150 c 0
 340 -158 299 -162 269 -162 c 0
EndSplineSet
Validated: 1
EndChar

StartChar: uni0326
Encoding: 806 806 388
Width: 0
Flags: MW
LayerCount: 2
Fore
SplineSet
0 -30 m 5
 0 119 l 5
 200 119 l 5
 200 -180 l 5
 75 -180 l 5
 75 -30 l 5
 0 -30 l 5
EndSplineSet
Validated: 1
EndChar

StartChar: Scedilla
Encoding: 350 350 391
Width: 558
Flags: M
LayerCount: 2
Fore
SplineSet
269 -262 m 0
 239 -262 198 -258 176 -250 c 0
 154 -242 144 -228 144 -212 c 2
 144 -188 l 1
 244 -188 l 1
 244 -212 l 2
 246 -230 259 -238 269 -238 c 0
 273 -238 276 -237 278 -236 c 0
 284 -234 294 -226 294 -212 c 2
 294 -162 l 2
 294 -148 284 -148 280 -148 c 0
 270 -146 248 -143 236 -137 c 0
 224 -131 219 -123 219 -113 c 2
 221 -108 l 1
 155 -104 108 -92 80 -78 c 0
 53 -65 30 -45 30 -10 c 2
 30 49 l 1
 229 49 l 1
 229 -10 l 2
 229 -40 251 -60 279 -60 c 0
 307 -60 329 -40 329 -10 c 2
 329 199 l 2
 329 243 304 261 274 269 c 0
 243 277 198 280 159 289 c 0
 96 303 30 325 30 398 c 2
 30 558 l 2
 30 593 53 612 80 625 c 0
 116 643 182 657 279 657 c 0
 376 657 442 643 478 625 c 0
 505 612 528 593 528 558 c 2
 528 498 l 1
 329 498 l 1
 329 558 l 2
 329 588 307 607 279 607 c 0
 251 607 229 588 229 558 c 2
 229 398 l 2
 229 354 254 336 284 328 c 0
 315 320 360 317 399 308 c 0
 462 294 528 272 528 199 c 2
 528 -10 l 2
 528 -45 505 -65 478 -78 c 0
 447 -93 395 -106 320 -109 c 1
 319 -113 l 1
 319 -147 394 -130 394 -175 c 2
 394 -212 l 2
 394 -228 384 -242 362 -250 c 0
 340 -258 299 -262 269 -262 c 0
EndSplineSet
Validated: 1
EndChar

StartChar: scedilla
Encoding: 351 351 392
Width: 558
Flags: HM
LayerCount: 2
Fore
SplineSet
269 -162 m 0
 239 -162 198 -158 176 -150 c 0
 154 -142 144 -128 144 -112 c 2
 144 -88 l 1
 244 -88 l 1
 244 -112 l 2
 246 -130 259 -138 269 -138 c 0
 273 -138 276 -137 278 -136 c 0
 284 -134 294 -126 294 -112 c 2
 294 -62 l 2
 294 -48 284 -48 280 -48 c 0
 270 -46 248 -43 236 -37 c 0
 224 -30 219 -20 219 -8 c 6
 221 -3 l 5
 155 1 108 13 80 27 c 4
 53 40 30 60 30 95 c 6
 30 149 l 1
 229 149 l 1
 229 95 l 6
 229 65 251 45 279 45 c 4
 307 45 329 65 329 95 c 6
 329 149 l 2
 329 193 304 211 274 219 c 0
 243 227 198 231 159 240 c 0
 96 254 30 276 30 349 c 2
 30 409 l 2
 30 444 53 463 80 476 c 0
 116 494 182 508 279 508 c 0
 376 508 442 494 478 476 c 0
 505 463 528 444 528 409 c 2
 528 349 l 1
 329 349 l 1
 329 409 l 2
 329 439 307 458 279 458 c 0
 251 458 229 439 229 409 c 2
 229 349 l 2
 229 305 254 287 284 279 c 0
 315 271 360 267 399 258 c 0
 462 244 528 222 528 149 c 2
 528 95 l 6
 528 60 505 40 478 27 c 4
 447 12 395 -1 320 -4 c 5
 319 -8 l 5
 319 -45 394 -26 394 -75 c 2
 394 -112 l 2
 394 -128 384 -142 362 -150 c 0
 340 -158 299 -162 269 -162 c 0
EndSplineSet
Validated: 1
EndChar

StartChar: uni0162
Encoding: 354 354 393
Width: 757
Flags: M
LayerCount: 2
Fore
SplineSet
368 -252 m 0
 338 -252 298 -248 276 -240 c 0
 254 -232 244 -218 244 -202 c 2
 244 -178 l 1
 344 -178 l 1
 344 -202 l 2
 346 -220 358 -228 368 -228 c 0
 372 -228 376 -227 378 -226 c 0
 384 -224 394 -216 394 -202 c 2
 394 -152 l 2
 394 -138 384 -138 380 -138 c 0
 370 -136 348 -133 336 -127 c 0
 324 -121 318 -113 318 -103 c 2
 320 -100 l 1
 279 -100 l 1
 279 597 l 1
 229 597 l 1
 229 564 229 531 229 498 c 1
 30 498 l 1
 30 548 30 597 30 647 c 1
 727 647 l 1
 727 498 l 1
 528 498 l 1
 528 597 l 1
 478 597 l 1
 478 365 478 132 478 -100 c 1
 420 -100 l 1
 418 -103 l 1
 418 -137 494 -120 494 -165 c 2
 494 -202 l 2
 494 -218 484 -232 462 -240 c 0
 440 -248 398 -252 368 -252 c 0
EndSplineSet
Validated: 1
EndChar

StartChar: uni0163
Encoding: 355 355 394
Width: 708
Flags: HM
LayerCount: 2
Fore
SplineSet
418 -162 m 0
 388 -162 347 -158 325 -150 c 0
 303 -142 293 -128 293 -112 c 2
 293 -88 l 1
 393 -88 l 1
 393 -112 l 2
 395 -130 408 -138 418 -138 c 0
 422 -138 425 -137 427 -136 c 0
 433 -134 443 -126 443 -112 c 2
 443 -62 l 2
 443 -48 433 -48 429 -48 c 0
 419 -46 397 -43 385 -37 c 0
 373 -30 368 -20 368 -8 c 6
 370 -3 l 5
 304 1 257 13 229 27 c 4
 202 40 179 60 179 95 c 6
 179 448 l 1
 30 448 l 1
 30 498 l 1
 179 498 l 1
 179 648 l 1
 379 648 l 1
 379 498 l 1
 528 498 l 1
 528 448 l 1
 379 448 l 1
 379 95 l 6
 379 65 401 45 429 45 c 4
 457 45 478 65 478 95 c 6
 478 149 l 1
 678 149 l 1
 678 95 l 6
 678 60 655 40 628 27 c 4
 597 12 544 -1 469 -4 c 5
 468 -8 l 5
 468 -45 543 -26 543 -75 c 2
 543 -112 l 2
 543 -128 533 -142 511 -150 c 0
 489 -158 448 -162 418 -162 c 0
EndSplineSet
Validated: 1
EndChar

StartChar: parenleft
Encoding: 40 40 395
Width: 454
Flags: MW
LayerCount: 2
Fore
SplineSet
316 -150 m 2
 424 -150 l 1
 424 -200 l 1
 381 -200 339 -200 296 -200 c 1
 214 -198 158 -184 125 -168 c 0
 98 -155 75 -136 75 -100 c 2
 75 700 l 2
 75 735 98 754 125 767 c 0
 158 783 214 797 296 799 c 1
 339 799 381 799 424 799 c 1
 424 749 l 1
 316 749 l 2
 307 749 291 740 285 732 c 0
 279 724 274 714 274 700 c 2
 274 -100 l 2
 274 -124 288 -136 302 -145 c 0
 310 -149 315 -150 316 -150 c 2
EndSplineSet
Validated: 1
EndChar

StartChar: parenright
Encoding: 41 41 396
Width: 454
Flags: MW
LayerCount: 2
Fore
SplineSet
138 -150 m 2
 139 -150 144 -149 152 -145 c 0
 166 -136 180 -124 180 -100 c 2
 180 700 l 2
 180 714 175 724 169 732 c 0
 163 740 147 749 138 749 c 2
 30 749 l 1
 30 799 l 1
 73 799 115 799 158 799 c 1
 240 797 296 783 329 767 c 0
 356 754 379 735 379 700 c 2
 379 -100 l 2
 379 -136 356 -155 329 -168 c 0
 296 -184 240 -198 158 -200 c 1
 115 -200 73 -200 30 -200 c 1
 30 -150 l 1
 138 -150 l 2
EndSplineSet
Validated: 1
EndChar

StartChar: currency
Encoding: 164 164 397
Width: 1100
Flags: MW
LayerCount: 2
Fore
SplineSet
299 307 m 0
 203 307 50 320 50 407 c 0
 50 432 50 456 50 481 c 1
 249 481 l 1
 249 456 249 432 249 407 c 0
 249 379 269 365 281 360 c 0
 289 357 287 358 301 357 c 1
 309 436 456 448 550 448 c 0
 644 448 791 435 799 357 c 1
 820 357 850 374 851 407 c 1
 851 432 851 456 851 481 c 1
 1050 481 l 1
 1050 456 1050 432 1050 407 c 0
 1050 313 888 315 799 307 c 1
 799 174 l 1
 879 169 1028 173 1050 75 c 1
 1050 0 l 5
 984 0 917 0 851 0 c 5
 851 75 l 2
 851 103 823 123 795 126 c 1
 772 62 641 50 550 50 c 0
 459 50 328 62 305 126 c 1
 283 125 250 108 249 75 c 1
 249 50 249 25 249 0 c 5
 50 0 l 5
 50 25 50 50 50 75 c 0
 50 166 211 171 301 174 c 1
 301 308 l 1
 300 308 300 307 299 307 c 0
568 395 m 0
 562 397 555 399 549 399 c 0
 524 399 500 381 500 349 c 2
 500 150 l 2
 501 124 527 100 552 100 c 0
 557 100 563 101 568 103 c 0
 580 108 600 122 600 150 c 2
 600 349 l 2
 600 377 580 390 568 395 c 0
EndSplineSet
Validated: 1
EndChar

StartChar: logicalnot
Encoding: 172 172 398
Width: 558
Flags: MW
LayerCount: 2
Fore
SplineSet
30 299 m 1
 196 299 362 299 528 299 c 1
 528 249 l 1
 528 100 l 5
 329 100 l 1
 329 249 l 1
 30 249 l 1
 30 299 l 1
EndSplineSet
Validated: 1
EndChar

StartChar: copyright
Encoding: 169 169 399
Width: 1096
Flags: MW
LayerCount: 2
Fore
SplineSet
548 598 m 0
 570 598 591 598 614 598 c 0
 669 598 736 598 804 590 c 0
 865 583 913 572 948 557 c 0
 1004 534 1046 496 1046 423 c 2
 1046 75 l 2
 1046 2 1004 -36 948 -59 c 0
 913 -74 865 -85 804 -92 c 0
 736 -100 669 -100 614 -100 c 0
 591 -100 570 -100 548 -100 c 4
 526 -100 505 -100 482 -100 c 0
 427 -100 360 -100 292 -92 c 0
 231 -85 183 -74 148 -59 c 0
 92 -36 50 2 50 75 c 2
 50 423 l 2
 50 496 92 534 148 557 c 0
 183 572 231 583 292 590 c 0
 360 598 427 598 482 598 c 0
 505 598 526 598 548 598 c 0
548 -50 m 0
 570 -50 592 -50 614 -50 c 0
 621 -50 627 -50 634 -50 c 0
 717 -50 780 -48 821 -2 c 0
 837 16 847 41 847 75 c 2
 847 423 l 2
 847 544 736 548 614 548 c 0
 592 548 570 548 548 548 c 0
 526 548 504 548 482 548 c 0
 475 548 469 548 462 548 c 0
 379 548 316 546 275 500 c 0
 259 482 249 457 249 423 c 2
 249 75 l 2
 249 -46 360 -50 482 -50 c 0
 504 -50 526 -50 548 -50 c 0
548 50 m 0
 576 50 598 70 598 100 c 2
 598 149 l 1
 797 149 l 1
 797 100 l 2
 797 65 774 45 747 32 c 0
 711 14 645 0 548 0 c 0
 451 0 385 14 349 32 c 0
 322 45 299 65 299 100 c 2
 299 398 l 2
 299 433 322 453 349 466 c 0
 385 484 451 498 548 498 c 0
 645 498 711 484 747 466 c 0
 774 453 797 433 797 398 c 2
 797 349 l 1
 598 349 l 1
 598 398 l 2
 598 428 576 448 548 448 c 0
 520 448 498 428 498 398 c 2
 498 100 l 2
 498 70 520 50 548 50 c 0
EndSplineSet
Validated: 1
EndChar

StartChar: at
Encoding: 64 64 400
Width: 1096
Flags: MW
LayerCount: 2
Fore
SplineSet
548 598 m 0
 570 598 592 598 615 598 c 0
 670 598 736 598 804 590 c 0
 865 583 913 572 948 557 c 0
 1004 534 1046 496 1046 423 c 2
 1046 75 l 2
 1046 2 1004 -36 948 -59 c 0
 913 -74 865 -85 804 -92 c 0
 736 -100 670 -100 615 -100 c 0
 592 -100 570 -100 548 -100 c 0
 526 -100 505 -100 482 -100 c 0
 427 -100 360 -100 292 -92 c 0
 231 -85 183 -74 148 -59 c 0
 92 -36 50 2 50 75 c 2
 50 423 l 2
 50 496 92 534 148 557 c 0
 183 572 231 583 292 590 c 0
 360 598 427 598 482 598 c 0
 505 598 526 598 548 598 c 0
548 -50 m 0
 570 -50 593 -50 615 -50 c 0
 622 -50 628 -50 634 -50 c 0
 720 -50 786 -48 825 3 c 1
 775 4 735 9 703 16 c 1
 665 6 614 0 548 -0 c 0
 451 0 385 14 349 32 c 0
 322 45 299 65 299 100 c 2
 299 398 l 2
 299 433 322 453 349 466 c 0
 385 484 451 498 548 498 c 0
 566 498 582 498 598 497 c 1
 598 502 l 1
 797 502 l 1
 797 102 l 2
 797 73 818 52 845 52 c 1
 846 59 847 67 847 75 c 2
 847 423 l 2
 847 544 737 548 615 548 c 0
 593 548 570 548 548 548 c 0
 526 548 504 548 482 548 c 0
 475 548 469 548 462 548 c 0
 379 548 316 546 275 500 c 0
 259 482 249 457 249 423 c 2
 249 75 l 2
 249 -46 360 -50 482 -50 c 0
 504 -50 526 -50 548 -50 c 0
548 50 m 0
 576 50 598 70 598 100 c 2
 598 149 l 1
 598 349 l 1
 598 398 l 2
 598 428 576 448 548 448 c 0
 520 448 498 428 498 398 c 2
 498 100 l 2
 498 70 520 50 548 50 c 0
EndSplineSet
Validated: 1
EndChar

StartChar: registered
Encoding: 174 174 401
Width: 1096
Flags: MW
LayerCount: 2
Fore
SplineSet
675 281 m 1
 733 267 795 241 795 174 c 2
 795 0 l 1
 729 0 662 0 596 0 c 1
 596 174 l 2
 596 229 549 249 496 249 c 1
 496 166 496 83 496 0 c 1
 297 0 l 1
 297 166 297 332 297 498 c 1
 363 498 430 498 496 498 c 0
 593 498 659 483 695 466 c 0
 722 453 745 434 745 399 c 2
 745 374 l 2
 745 328 711 298 675 281 c 1
475 303 m 1
 501 314 525 338 525 374 c 2
 525 399 l 2
 525 429 503 448 475 448 c 1
 475 303 l 1
548 598 m 0
 570 598 591 598 614 598 c 0
 669 598 736 598 804 590 c 0
 865 583 913 571 948 557 c 0
 1004 534 1046 496 1046 423 c 2
 1046 75 l 2
 1046 2 1004 -35 948 -59 c 0
 913 -74 865 -85 804 -92 c 0
 736 -100 669 -100 614 -100 c 0
 591 -100 570 -100 548 -100 c 0
 526 -100 505 -100 482 -100 c 0
 427 -100 360 -100 292 -92 c 0
 231 -85 183 -73 148 -59 c 0
 92 -36 50 2 50 75 c 2
 50 423 l 2
 50 496 92 533 148 557 c 0
 183 572 231 583 292 590 c 0
 360 598 427 598 482 598 c 0
 505 598 526 598 548 598 c 0
548 -50 m 0
 570 -50 592 -50 614 -50 c 0
 621 -50 627 -50 634 -50 c 0
 717 -50 780 -48 821 -2 c 0
 837 16 847 41 847 75 c 2
 847 423 l 2
 847 544 736 548 614 548 c 0
 592 548 570 548 548 548 c 0
 526 548 504 548 482 548 c 0
 475 548 469 548 462 548 c 0
 379 548 316 546 275 500 c 0
 259 482 249 457 249 423 c 2
 249 75 l 2
 249 -46 360 -50 482 -50 c 0
 504 -50 526 -50 548 -50 c 0
EndSplineSet
Validated: 1
EndChar

StartChar: Oslash
Encoding: 216 216 434
Width: 960
Flags: MW
LayerCount: 2
Fore
SplineSet
692 609 m 1
 730 650 l 1
 930 650 l 1
 729 435 l 1
 729 -0 l 2
 729 -35 706 -55 679 -68 c 0
 643 -86 577 -100 480 -100 c 0
 383 -100 317 -86 281 -68 c 0
 276 -66 271 -64 267 -61 c 1
 230 -100 l 1
 30 -100 l 1
 231 115 l 1
 231 548 l 2
 231 583 254 602 281 615 c 0
 317 633 383 647 480 647 c 0
 586 647 651 634 692 609 c 1
480 597 m 0
 452 597 430 578 430 548 c 2
 430 329 l 1
 530 436 l 1
 530 548 l 2
 530 578 508 597 480 597 c 0
480 -50 m 0
 508 -50 530 -30 530 -0 c 2
 530 221 l 1
 430 114 l 1
 430 -0 l 2
 430 -30 452 -50 480 -50 c 0
EndSplineSet
Validated: 1
EndChar

StartChar: oslash
Encoding: 248 248 435
Width: 860
Flags: MW
LayerCount: 2
Fore
SplineSet
430 50 m 0
 458 50 480 70 480 100 c 2
 480 208 l 1
 380 125 l 1
 380 100 l 2
 380 70 402 50 430 50 c 0
256 22 m 1
 230 0 l 1
 30 0 l 1
 181 126 l 1
 181 399 l 2
 181 434 204 453 231 466 c 0
 267 484 333 498 430 498 c 0
 506 498 563 489 602 477 c 1
 630 500 l 1
 830 500 l 1
 679 374 l 1
 679 100 l 2
 679 65 656 45 629 32 c 0
 593 14 527 0 430 0 c 0
 352 0 295 9 256 22 c 1
430 448 m 0
 402 448 380 429 380 399 c 2
 380 292 l 1
 480 375 l 1
 480 399 l 2
 480 429 458 448 430 448 c 0
EndSplineSet
Validated: 1
EndChar

StartChar: Thorn
Encoding: 222 222 436
Width: 558
Flags: MW
LayerCount: 2
Fore
SplineSet
229 124 m 1
 270 124 299 136 314 154 c 0
 323 165 329 180 329 199 c 2
 329 348 l 2
 329 403 282 423 229 423 c 1
 229 124 l 1
229 473 m 1
 311 473 413 460 465 435 c 0
 499 418 528 393 528 348 c 2
 528 199 l 2
 528 154 499 129 465 112 c 0
 413 87 311 74 229 74 c 1
 229 16 229 -42 229 -100 c 1
 30 -100 l 1
 30 149 30 398 30 647 c 1
 229 647 l 1
 229 473 l 1
EndSplineSet
Validated: 1
EndChar

StartChar: thorn
Encoding: 254 254 437
Width: 558
Flags: MW
LayerCount: 2
Fore
SplineSet
279 448 m 0
 251 448 229 429 229 399 c 0
 229 299 229 200 229 100 c 0
 229 70 251 50 279 50 c 0
 307 50 329 70 329 100 c 2
 329 399 l 2
 329 429 307 448 279 448 c 0
229 497 m 1
 245 498 261 498 279 498 c 0
 376 498 442 484 478 466 c 0
 505 453 528 434 528 399 c 2
 528 100 l 2
 528 65 505 45 478 32 c 0
 442 14 376 0 279 0 c 0
 261 0 245 0 229 1 c 1
 229 -66 229 -133 229 -200 c 1
 30 -200 l 1
 30 82 30 365 30 647 c 1
 229 647 l 1
 229 497 l 1
EndSplineSet
Validated: 1
EndChar

StartChar: uni0431.sr
Encoding: 1114099 1114099 438
Width: 558
Flags: HMW
LayerCount: 2
Fore
SplineSet
279 443 m 0
 253 443 229 425 229 396 c 0
 229 395 229 395 229 394 c 2
 229 95 l 2
 229 65 251 45 279 45 c 0
 307 45 329 65 329 95 c 2
 329 394 l 2
 329 424 307 443 279 443 c 0
235 548 m 2
 235 515 257 494 285 494 c 0
 366 494 445 477 478 461 c 0
 505 448 528 429 528 394 c 2
 528 95 l 2
 528 60 505 40 478 27 c 0
 442 9 376 -5 279 -5 c 0
 182 -5 116 9 80 27 c 0
 53 40 30 60 30 95 c 2
 30 394 l 2
 30 440 65 462 100 475 c 1
 67 488 36 507 36 548 c 2
 36 573 l 2
 36 608 59 628 86 641 c 0
 122 659 188 673 285 673 c 0
 351 673 418 673 484 673 c 1
 484 623 484 573 484 523 c 1
 285 523 l 1
 285 556 285 590 285 623 c 1
 257 623 235 603 235 573 c 2
 235 548 l 2
EndSplineSet
Validated: 1
EndChar

StartChar: braceleft
Encoding: 123 123 439
Width: 503
Flags: MW
LayerCount: 2
Fore
SplineSet
306 274 m 5
 347 251 374 207 374 150 c 6
 374 -75 l 1
 376 -143 414 -151 450 -151 c 0
 458 -151 466 -150 473 -150 c 1
 473 -200 l 1
 374 -200 l 2
 302 -200 182 -184 175 -75 c 1
 175 150 l 6
 175 181 165 211 149 232 c 4
 137 247 122 250 104 250 c 4
 95 250 85 249 75 249 c 5
 75 299 l 5
 86 299 97 298 107 298 c 4
 124 298 138 301 149 317 c 4
 165 338 175 368 175 399 c 6
 175 676 l 1
 176 717 205 762 249 780 c 0
 269 788 306 800 374 800 c 2
 473 800 l 1
 473 750 l 1
 401 749 374 750 374 676 c 2
 374 399 l 6
 374 343 347 297 306 274 c 5
EndSplineSet
Validated: 1
EndChar

StartChar: braceright
Encoding: 125 125 440
Width: 503
Flags: MW
LayerCount: 2
Fore
SplineSet
197 274 m 5
 156 297 129 343 129 399 c 6
 129 676 l 2
 129 750 102 749 30 750 c 1
 30 800 l 1
 129 800 l 2
 197 800 234 788 254 780 c 0
 298 762 327 717 328 676 c 1
 328 399 l 6
 328 368 338 338 354 317 c 4
 365 301 379 298 396 298 c 4
 406 298 417 299 428 299 c 5
 428 249 l 5
 418 249 408 250 399 250 c 4
 381 250 366 247 354 232 c 4
 338 211 328 181 328 150 c 6
 328 -75 l 1
 321 -184 201 -200 129 -200 c 2
 30 -200 l 1
 30 -150 l 1
 37 -150 45 -151 53 -151 c 0
 89 -151 127 -143 129 -75 c 1
 129 150 l 6
 129 207 156 251 197 274 c 5
EndSplineSet
Validated: 1
EndChar

StartChar: asciitilde
Encoding: 126 126 441
Width: 898
Flags: MW
LayerCount: 2
Fore
SplineSet
348 448 m 0
 384 448 420 442 438 438 c 0
 464 432 488 420 508 396 c 1
 536 336 550 246 574 174 c 1
 624 234 642 342 648 448 c 5
 748 448 l 2
 781 448 815 448 848 448 c 1
 848 334 806 182 712 128 c 0
 680 114 630 100 548 100 c 0
 512 100 478 106 460 110 c 0
 436 116 408 128 388 152 c 0
 372 172 362 198 350 222 c 1
 340 278 330 334 320 378 c 1
 266 322 256 212 250 100 c 1
 50 100 l 1
 50 220 88 378 192 424 c 0
 226 436 276 448 348 448 c 0
EndSplineSet
Validated: 1
EndChar

StartChar: tildecomb
Encoding: 771 771 443
Width: 0
Flags: MW
LayerCount: 2
Fore
SplineSet
199 874 m 0
 217 874 235 871 244 869 c 0
 257 866 269 860 279 848 c 0
 293 818 300 773 312 737 c 1
 337 767 346 821 349 874 c 1
 399 874 l 2
 416 874 432 874 449 874 c 1
 449 818 428 741 381 714 c 0
 365 707 340 700 299 700 c 0
 281 700 264 703 255 705 c 0
 243 708 229 714 219 726 c 0
 205 758 197 805 185 839 c 1
 158 811 153 756 150 700 c 5
 50 700 l 1
 50 760 69 839 121 862 c 0
 138 868 163 874 199 874 c 0
EndSplineSet
Validated: 1
EndChar

StartChar: Itilde
Encoding: 296 296 450
Width: 409
Flags: MW
LayerCount: 2
Fore
SplineSet
105 -100 m 1
 105 149 105 398 105 647 c 1
 304 647 l 1
 304 398 304 149 304 -100 c 1
 105 -100 l 1
154 891 m 0
 172 891 190 888 199 886 c 0
 212 883 224 877 234 865 c 0
 248 835 255 790 267 754 c 1
 292 784 301 838 304 891 c 1
 354 891 l 2
 371 891 387 891 404 891 c 1
 404 835 383 758 336 731 c 0
 320 724 295 717 254 717 c 0
 236 717 219 720 210 722 c 0
 198 725 184 731 174 743 c 0
 160 775 152 822 140 856 c 1
 113 828 108 773 105 717 c 5
 5 717 l 1
 5 777 24 856 76 879 c 0
 93 885 118 891 154 891 c 0
EndSplineSet
Validated: 1
EndChar

StartChar: itilde
Encoding: 297 297 451
Width: 409
Flags: MW
LayerCount: 2
Fore
SplineSet
105 0 m 1
 105 166 105 332 105 498 c 1
 304 498 l 1
 304 332 304 166 304 0 c 1
 105 0 l 1
154 742 m 0
 172 742 190 739 199 737 c 0
 212 734 224 728 234 716 c 0
 248 686 255 641 267 605 c 1
 292 635 301 689 304 742 c 1
 354 742 l 2
 371 742 387 742 404 742 c 1
 404 686 383 609 336 582 c 0
 320 575 295 568 254 568 c 0
 236 568 219 571 210 573 c 0
 198 576 184 582 174 594 c 0
 160 626 152 673 140 707 c 1
 113 679 108 624 105 568 c 5
 5 568 l 1
 5 628 24 707 76 730 c 0
 93 736 118 742 154 742 c 0
EndSplineSet
Validated: 1
EndChar

StartChar: Euro
Encoding: 8364 8364 456
Width: 698
Flags: MW
LayerCount: 2
Fore
SplineSet
399 -60 m 0
 427 -60 449 -40 449 -10 c 2
 449 49 l 1
 648 49 l 1
 648 -10 l 2
 648 -45 625 -65 598 -78 c 0
 562 -96 496 -110 399 -110 c 0
 302 -110 236 -96 200 -78 c 0
 173 -65 150 -45 150 -10 c 2
 150 199 l 1
 50 199 l 1
 50 249 l 1
 150 249 l 1
 150 299 l 1
 50 299 l 1
 50 349 l 1
 150 349 l 1
 150 558 l 2
 150 593 173 612 200 625 c 0
 236 643 302 657 399 657 c 0
 496 657 562 643 598 625 c 0
 625 612 648 593 648 558 c 2
 648 498 l 1
 449 498 l 1
 449 558 l 2
 449 588 427 607 399 607 c 0
 373 607 349 589 349 560 c 0
 349 559 349 559 349 558 c 2
 349 349 l 1
 548 349 l 1
 548 299 l 1
 349 299 l 1
 349 249 l 1
 548 249 l 1
 548 199 l 1
 349 199 l 1
 349 -10 l 2
 349 -40 371 -60 399 -60 c 0
EndSplineSet
Validated: 1
EndChar

StartChar: ampersand
Encoding: 38 38 457
Width: 798
Flags: MW
LayerCount: 2
Fore
SplineSet
748 299 m 1
 748 192 713 89 654 17 c 1
 677 -14 743 -100 743 -100 c 1
 557 -100 l 1
 532 -70 l 1
 467 -97 407 -98 331 -99 c 4
 323 -99 313 -99 303 -99 c 0
 208 -99 51 -85 50 131 c 0
 52 292 114 349 274 351 c 1
 264 393 246 451 246 504 c 0
 246 554 262 599 313 622 c 1
 358 639 438 647 498 647 c 0
 594 647 748 635 748 548 c 2
 748 498 l 1
 548 498 l 1
 548 548 l 0
 548 576 528 590 516 595 c 0
 511 597 505 598 498 598 c 0
 493 598 487 598 481 595 c 0
 469 590 449 576 449 548 c 0
 449 421 479 298 535 188 c 1
 545 229 548 281 548 329 c 0
 548 335 548 342 548 348 c 1
 748 348 l 1
 748 299 l 1
297 273 m 1
 263 273 249 219 249 154 c 0
 249 150 249 145 249 141 c 0
 251 71 254 -32 333 -32 c 0
 334 -32 l 0
 414 -31 422 -9 449 17 c 1
 382 93 331 179 297 273 c 1
EndSplineSet
Validated: 1
EndChar

StartChar: dagger
Encoding: 8224 8224 458
Width: 598
Flags: MW
LayerCount: 2
Fore
SplineSet
399 548 m 1
 548 548 l 1
 548 498 l 1
 399 498 l 1
 399 264 399 34 399 -200 c 1
 199 -200 l 1
 199 498 l 1
 50 498 l 1
 50 548 l 1
 199 548 l 1
 199 632 199 716 199 800 c 1
 399 800 l 1
 399 548 l 1
EndSplineSet
Validated: 1
EndChar

StartChar: daggerdbl
Encoding: 8225 8225 459
Width: 598
Flags: MW
LayerCount: 2
Fore
SplineSet
399 102 m 1
 548 102 l 1
 548 52 l 5
 399 52 l 1
 399 -200 l 1
 199 -200 l 1
 199 -116 199 -32 199 52 c 1
 50 52 l 1
 50 102 l 1
 199 102 l 1
 199 498 l 1
 50 498 l 1
 50 548 l 1
 199 548 l 1
 199 800 l 1
 399 800 l 1
 399 548 l 1
 548 548 l 1
 548 498 l 1
 399 498 l 1
 399 102 l 1
EndSplineSet
Validated: 1
EndChar

StartChar: uni203D
Encoding: 8253 8253 463
Width: 598
Flags: MW
LayerCount: 2
Fore
SplineSet
199 0 m 1
 199 149 l 1
 400 149 l 1
 400 0 l 1
 199 0 l 1
199 640 m 1
 199 654 l 1
 399 654 l 1
 399 640 l 1
 431 636 462 629 484 621 c 0
 529 604 548 580 548 547 c 2
 548 472 l 1
 547 382 399 416 399 348 c 2
 399 249 l 1
 199 249 l 1
 199 332 199 414 199 497 c 1
 50 497 l 1
 50 547 l 2
 50 580 69 604 114 621 c 0
 136 629 167 636 199 640 c 1
EndSplineSet
Validated: 1
EndChar

StartChar: quoteleft
Encoding: 8216 8216 470
Width: 350
Flags: MW
LayerCount: 2
Fore
SplineSet
275 497 m 1
 275 348 l 1
 75 348 l 1
 75 647 l 5
 200 647 l 1
 200 497 l 1
 275 497 l 1
EndSplineSet
Validated: 1
EndChar

StartChar: quotedblleft
Encoding: 8220 8220 472
Width: 625
Flags: M
LayerCount: 2
Fore
SplineSet
550 497 m 1
 550 348 l 1
 350 348 l 1
 350 647 l 5
 475 647 l 1
 475 497 l 1
 550 497 l 1
275 497 m 1
 275 348 l 1
 75 348 l 1
 75 647 l 5
 200 647 l 1
 200 497 l 1
 275 497 l 1
EndSplineSet
Validated: 1
EndChar

StartChar: figuredash
Encoding: 8210 8210 474
Width: 558
Flags: MW
LayerCount: 2
Fore
SplineSet
30 249 m 1
 30 299 l 1
 528 299 l 1
 528 249 l 1
 30 249 l 1
EndSplineSet
Validated: 1
EndChar

StartChar: endash
Encoding: 8211 8211 475
Width: 500
Flags: MW
LayerCount: 2
Fore
SplineSet
30 249 m 1
 30 299 l 1
 470 299 l 1
 470 249 l 1
 30 249 l 1
EndSplineSet
Validated: 1
EndChar

StartChar: emdash
Encoding: 8212 8212 476
Width: 1000
Flags: MW
LayerCount: 2
Fore
SplineSet
30 249 m 1
 30 299 l 1
 970 299 l 1
 970 249 l 1
 30 249 l 1
EndSplineSet
Validated: 1
EndChar

StartChar: uni2015
Encoding: 8213 8213 477
Width: 2000
Flags: MW
LayerCount: 2
Fore
SplineSet
30 249 m 1
 30 299 l 1
 1970 299 l 1
 1970 249 l 1
 30 249 l 1
EndSplineSet
Validated: 1
EndChar

StartChar: uni2010
Encoding: 8208 8208 479
Width: 558
Flags: MW
LayerCount: 2
Fore
SplineSet
30 249 m 1
 30 299 l 1
 528 299 l 1
 528 249 l 1
 30 249 l 1
EndSplineSet
Validated: 1
EndChar

StartChar: uni2011
Encoding: 8209 8209 480
Width: 558
Flags: MW
LayerCount: 2
Fore
SplineSet
30 249 m 1
 30 299 l 1
 528 299 l 1
 528 249 l 1
 30 249 l 1
EndSplineSet
Validated: 1
EndChar

StartChar: quotesinglbase
Encoding: 8218 8218 482
Width: 350
Flags: MW
LayerCount: 2
Fore
SplineSet
75 0 m 1
 75 149 l 1
 275 149 l 1
 275 -150 l 5
 150 -150 l 1
 150 0 l 1
 75 0 l 1
EndSplineSet
Validated: 1
EndChar

StartChar: quotereversed
Encoding: 8219 8219 483
Width: 350
Flags: MW
LayerCount: 2
Fore
SplineSet
275 498 m 1
 200 498 l 1
 200 348 l 1
 75 348 l 5
 75 647 l 1
 275 647 l 1
 275 498 l 1
EndSplineSet
Validated: 1
EndChar

StartChar: uni201F
Encoding: 8223 8223 484
Width: 700
Flags: MW
LayerCount: 2
Fore
SplineSet
275 498 m 1
 200 498 l 1
 200 348 l 1
 75 348 l 1
 75 647 l 1
 275 647 l 1
 275 498 l 1
550 498 m 5
 475 498 l 5
 475 348 l 5
 350 348 l 5
 350 647 l 5
 550 647 l 5
 550 498 l 5
EndSplineSet
Validated: 1
EndChar

StartChar: sterling
Encoding: 163 163 485
Width: 748
Flags: HMW
LayerCount: 2
Fore
SplineSet
449 603 m 4
 421 603 399 583 399 553 c 6
 399 299 l 1
 549 299 l 1
 549 249 l 1
 399 249 l 1
 399 149 399 50 399 -50 c 1
 499 -50 l 1
 499 -17 499 16 499 49 c 1
 698 49 l 1
 698 -1 698 -50 698 -100 c 1
 200 -100 l 1
 200 250 l 1
 50 250 l 1
 50 300 l 1
 100 300 150 300 200 300 c 1
 200 384 200 469 200 553 c 4
 200 588 223 608 250 621 c 4
 286 639 352 653 449 653 c 4
 546 653 612 639 648 621 c 4
 675 608 698 588 698 553 c 6
 698 508 l 1
 499 508 l 1
 499 553 l 6
 499 583 477 603 449 603 c 4
EndSplineSet
Validated: 1
EndChar

StartChar: eth
Encoding: 240 240 489
Width: 558
Flags: MW
LayerCount: 2
Fore
SplineSet
458 551 m 1
 510 504 528 455 528 399 c 2
 528 398 l 2
 528 393 528 389 528 384 c 0
 528 375 528 365 528 356 c 2
 528 100 l 2
 528 64 505 45 478 32 c 0
 442 14 376 0 279 0 c 0
 182 0 116 14 80 32 c 0
 53 45 30 64 30 100 c 2
 30 399 l 2
 30 434 53 453 80 466 c 0
 116 484 182 498 279 498 c 0
 285 498 291 498 297 498 c 1
 286 516 272 533 253 551 c 1
 179 551 104 551 30 551 c 1
 30 601 l 1
 184 601 l 1
 157 617 125 634 87 650 c 1
 286 650 l 1
 326 633 360 617 388 601 c 1
 528 601 l 1
 528 551 l 1
 458 551 l 1
287 448 m 2
 271 448 l 2
 262 448 246 439 240 431 c 0
 234 423 229 413 229 399 c 2
 229 100 l 2
 229 76 243 64 257 55 c 0
 265 51 270 50 271 50 c 2
 287 50 l 2
 295 50 312 61 318 68 c 0
 324 76 329 86 329 100 c 2
 329 356 l 2
 329 376 329 397 326 418 c 0
 321 432 303 448 287 448 c 2
EndSplineSet
Validated: 1
EndChar

StartChar: multiply
Encoding: 215 215 490
Width: 659
Flags: MW
LayerCount: 2
Fore
SplineSet
629 25 m 5
 430 25 l 5
 330 125 l 1
 229 25 l 5
 30 25 l 5
 230 249 l 1
 30 473 l 1
 229 473 l 1
 330 373 l 1
 430 473 l 1
 629 473 l 1
 429 249 l 1
 629 25 l 5
EndSplineSet
Validated: 1
EndChar

StartChar: uni0328
Encoding: 808 808 491
Width: 0
Flags: MW
LayerCount: 2
Fore
SplineSet
282 -108 m 6
 282 -153 207 -158 157 -158 c 4
 127 -158 84 -158 64 -146 c 4
 42 -133 32 -115 32 -84 c 4
 32 -33 107 20 107 20 c 5
 207 20 l 5
 207 20 132 -27 132 -84 c 28
 132 -106 135 -134 157 -134 c 28
 171 -134 180 -126 182 -108 c 5
 182 -84 l 5
 282 -84 l 5
 282 -108 l 6
EndSplineSet
Validated: 1
EndChar

StartChar: Aogonek
Encoding: 260 260 492
Width: 558
Flags: M
LayerCount: 2
Fore
SplineSet
553 -212 m 2
 553 -257 478 -262 428 -262 c 0
 398 -262 355 -262 335 -250 c 0
 313 -237 303 -219 303 -188 c 0
 303 -154 336 -120 358 -100 c 1
 329 -100 l 1
 329 249 l 1
 229 249 l 1
 229 -100 l 1
 163 -100 96 -100 30 -100 c 1
 30 558 l 2
 30 593 53 612 80 625 c 0
 116 643 182 657 279 657 c 0
 376 657 442 643 478 625 c 0
 505 612 528 593 528 558 c 2
 528 -100 l 1
 456 -100 l 1
 434 -118 403 -151 403 -188 c 0
 403 -210 406 -238 428 -238 c 0
 442 -238 451 -230 453 -212 c 1
 453 -188 l 1
 553 -188 l 1
 553 -212 l 2
279 607 m 0
 251 607 229 588 229 558 c 2
 229 299 l 1
 329 299 l 1
 329 558 l 2
 329 588 307 607 279 607 c 0
EndSplineSet
Validated: 1
EndChar

StartChar: aogonek
Encoding: 261 261 493
Width: 558
Flags: M
LayerCount: 2
Fore
SplineSet
553 -112 m 2
 553 -157 478 -162 428 -162 c 0
 398 -162 355 -162 335 -150 c 0
 313 -137 303 -119 303 -88 c 0
 303 -54 336 -20 358 -0 c 1
 329 0 l 1
 329 5 l 1
 295 1 260 0 229 0 c 0
 163 0 96 0 30 0 c 1
 30 174 l 2
 30 219 59 245 93 261 c 0
 145 286 247 299 329 299 c 1
 329 409 l 2
 329 439 307 458 279 458 c 0
 251 458 229 439 229 409 c 2
 229 349 l 1
 30 349 l 1
 30 409 l 2
 30 444 53 463 80 476 c 0
 116 494 182 508 279 508 c 0
 376 508 442 493 478 476 c 0
 505 463 528 444 528 409 c 2
 528 0 l 1
 457 0 l 1
 435 -18 403 -51 403 -88 c 0
 403 -110 406 -138 428 -138 c 0
 442 -138 451 -130 453 -112 c 1
 453 -88 l 1
 553 -88 l 1
 553 -112 l 2
229 50 m 1
 270 50 299 62 314 80 c 0
 323 91 329 106 329 125 c 2
 329 249 l 1
 288 249 259 237 244 219 c 0
 235 208 229 193 229 174 c 2
 229 50 l 1
EndSplineSet
Validated: 1
EndChar

StartChar: Eogonek
Encoding: 280 280 494
Width: 558
Flags: M
LayerCount: 2
Fore
SplineSet
553 -212 m 2
 553 -257 478 -262 428 -262 c 0
 398 -262 355 -262 335 -250 c 0
 313 -237 303 -219 303 -188 c 0
 303 -154 336 -120 358 -100 c 1
 30 -100 l 1
 30 647 l 1
 528 647 l 1
 528 498 l 1
 329 498 l 1
 329 597 l 1
 229 597 l 1
 229 299 l 1
 379 299 l 1
 379 249 l 1
 229 249 l 1
 229 -50 l 1
 329 -50 l 1
 329 -17 329 16 329 49 c 1
 528 49 l 1
 528 -1 528 -50 528 -100 c 1
 457 -100 l 1
 435 -118 403 -151 403 -188 c 0
 403 -210 406 -238 428 -238 c 0
 442 -238 451 -230 453 -212 c 2
 453 -188 l 1
 553 -188 l 1
 553 -212 l 2
EndSplineSet
Validated: 1
EndChar

StartChar: eogonek
Encoding: 281 281 495
Width: 558
Flags: HM
LayerCount: 2
Fore
SplineSet
404 -122 m 2
 404 -167 329 -172 279 -172 c 0
 249 -172 206 -172 186 -160 c 0
 164 -147 154 -129 154 -98 c 0
 154 -63 190 -27 212 -8 c 1
 151 -2 107 11 80 27 c 4
 53 40 30 60 30 95 c 6
 30 409 l 2
 30 444 53 463 80 476 c 0
 116 500 182 518 279 518 c 0
 376 518 442 500 478 476 c 0
 505 463 528 444 528 409 c 0
 528 356 528 302 528 249 c 1
 229 249 l 1
 229 95 l 6
 229 65 251 45 279 45 c 4
 307 45 329 65 329 95 c 6
 329 149 l 1
 528 149 l 1
 528 95 l 6
 528 60 505 40 478 27 c 4
 446 9 389 -7 308 -10 c 1
 286 -28 254 -61 254 -98 c 0
 254 -120 257 -148 279 -148 c 0
 293 -148 302 -140 304 -122 c 2
 304 -98 l 1
 404 -98 l 1
 404 -122 l 2
279 458 m 0
 251 458 229 439 229 409 c 2
 229 299 l 1
 329 299 l 1
 329 409 l 2
 329 439 307 458 279 458 c 0
EndSplineSet
Validated: 1
EndChar

StartChar: Iogonek
Encoding: 302 302 496
Width: 260
Flags: MW
LayerCount: 2
Fore
SplineSet
255 -212 m 2
 255 -257 181 -262 131 -262 c 0
 101 -262 57 -262 37 -250 c 0
 15 -237 5 -219 5 -188 c 0
 5 -154 38 -120 61 -100 c 1
 31 -100 l 1
 31 149 31 398 31 647 c 1
 230 647 l 1
 230 398 230 149 230 -100 c 1
 159 -100 l 1
 137 -118 105 -151 105 -188 c 0
 105 -210 109 -238 131 -238 c 0
 145 -238 153 -230 155 -212 c 2
 155 -188 l 1
 255 -188 l 1
 255 -212 l 2
EndSplineSet
Validated: 1
EndChar

StartChar: iogonek
Encoding: 303 303 497
Width: 260
Flags: MW
LayerCount: 2
Fore
SplineSet
255 -112 m 2
 255 -157 181 -162 131 -162 c 0
 101 -162 57 -162 37 -150 c 0
 15 -137 5 -119 5 -88 c 0
 5 -54 38 -20 61 0 c 1
 31 0 l 1
 31 166 31 332 31 498 c 1
 230 498 l 1
 230 332 230 166 230 0 c 1
 159 0 l 1
 137 -18 105 -51 105 -88 c 0
 105 -110 109 -138 131 -138 c 0
 145 -138 153 -130 155 -112 c 2
 155 -88 l 1
 255 -88 l 1
 255 -112 l 2
31 548 m 1
 31 648 l 1
 230 648 l 1
 230 548 l 1
 31 548 l 1
EndSplineSet
Validated: 1
EndChar

StartChar: Uogonek
Encoding: 370 370 498
Width: 558
Flags: HM
LayerCount: 2
Fore
SplineSet
404 -222 m 2
 404 -267 329 -272 279 -272 c 0
 249 -272 206 -272 186 -260 c 0
 164 -247 154 -229 154 -198 c 0
 154 -163 190 -127 212 -108 c 1
 151 -102 107 -89 80 -73 c 4
 53 -60 30 -40 30 -5 c 6
 30 647 l 1
 96 647 163 647 229 647 c 1
 229 -5 l 6
 229 -35 251 -55 279 -55 c 4
 307 -55 329 -35 329 -5 c 6
 329 647 l 1
 395 647 462 647 528 647 c 1
 528 -5 l 6
 528 -40 505 -60 478 -73 c 4
 446 -91 389 -107 308 -110 c 1
 286 -128 254 -161 254 -198 c 0
 254 -220 257 -248 279 -248 c 0
 293 -248 302 -240 304 -222 c 2
 304 -198 l 1
 404 -198 l 1
 404 -222 l 2
EndSplineSet
Validated: 1
EndChar

StartChar: uogonek
Encoding: 371 371 499
Width: 558
Flags: HM
LayerCount: 2
Fore
SplineSet
553 -122 m 2
 553 -167 478 -172 428 -172 c 0
 398 -172 355 -172 335 -160 c 0
 313 -147 303 -129 303 -98 c 0
 303 -62 336 -26 358 -5 c 5
 329 -5 l 5
 329 -4 l 5
 313 -5 297 -5 279 -5 c 4
 182 -5 116 10 80 27 c 4
 53 40 30 60 30 95 c 6
 30 498 l 1
 96 498 163 498 229 498 c 1
 229 95 l 6
 229 65 251 45 279 45 c 4
 307 45 329 65 329 95 c 4
 329 229 329 364 329 498 c 1
 528 498 l 1
 528 -5 l 5
 457 -5 l 5
 435 -24 403 -59 403 -98 c 0
 403 -120 406 -148 428 -148 c 0
 442 -148 451 -140 453 -122 c 2
 453 -98 l 1
 553 -98 l 1
 553 -122 l 2
EndSplineSet
Validated: 1
EndChar

StartChar: longs
Encoding: 383 383 500
Width: 708
Flags: MW
LayerCount: 2
Fore
SplineSet
429 599 m 0
 401 599 379 579 379 549 c 0
 379 366 379 184 379 1 c 1
 180 1 l 1
 180 250 l 1
 30 250 l 1
 30 300 l 1
 180 300 l 1
 180 383 180 466 180 549 c 0
 180 584 202 604 229 617 c 0
 265 635 332 649 429 649 c 0
 526 649 592 635 628 617 c 0
 655 604 678 584 678 549 c 2
 678 499 l 1
 479 499 l 1
 479 549 l 2
 479 579 457 599 429 599 c 0
EndSplineSet
Validated: 1
EndChar

StartChar: Hbar
Encoding: 294 294 501
Width: 558
Flags: MW
LayerCount: 2
Fore
SplineSet
528 299 m 1
 528 249 l 1
 528 -50 l 1
 528 -100 l 1
 329 -100 l 1
 329 249 l 1
 229 249 l 1
 229 -50 l 1
 229 -100 l 1
 30 -100 l 1
 30 249 l 1
 30 299 l 1
 30 548 l 1
 -20 548 l 1
 -20 598 l 1
 30 598 l 1
 30 647 l 1
 229 647 l 1
 229 598 l 1
 329 598 l 1
 329 647 l 1
 528 647 l 1
 528 598 l 1
 578 598 l 1
 578 548 l 1
 528 548 l 1
 528 299 l 1
229 548 m 1
 229 299 l 1
 329 299 l 1
 329 548 l 1
 229 548 l 1
EndSplineSet
Validated: 1
EndChar

StartChar: hbar
Encoding: 295 295 502
Width: 558
Flags: MW
LayerCount: 2
Fore
SplineSet
279 448 m 0
 251 448 229 429 229 399 c 0
 229 266 229 133 229 0 c 1
 30 0 l 1
 30 548 l 1
 -120 548 l 1
 -120 598 l 1
 30 598 l 1
 30 648 l 1
 229 648 l 1
 229 598 l 1
 379 598 l 1
 379 548 l 1
 229 548 l 1
 229 497 l 1
 245 498 261 498 279 498 c 0
 376 498 442 483 478 466 c 0
 505 453 528 434 528 399 c 2
 528 0 l 1
 462 0 395 0 329 0 c 1
 329 399 l 2
 329 429 307 448 279 448 c 0
EndSplineSet
Validated: 1
EndChar

StartChar: hungarumlaut
Encoding: 733 733 504
Width: 550
Flags: MW
LayerCount: 2
Fore
SplineSet
350 874 m 1
 500 874 l 1
 400 700 l 1
 250 700 l 1
 350 874 l 1
150 874 m 1
 300 874 l 1
 200 700 l 1
 50 700 l 1
 150 874 l 1
EndSplineSet
Validated: 1
EndChar

StartChar: Tbar
Encoding: 358 358 509
Width: 757
Flags: MW
LayerCount: 2
Fore
SplineSet
30 498 m 1
 30 548 30 597 30 647 c 1
 727 647 l 1
 727 498 l 1
 528 498 l 1
 528 597 l 1
 478 597 l 1
 478 299 l 1
 629 299 l 1
 629 249 l 1
 478 249 l 1
 478 -100 l 1
 279 -100 l 1
 279 249 l 1
 130 249 l 1
 130 299 l 1
 279 299 l 1
 279 597 l 1
 229 597 l 1
 229 564 229 531 229 498 c 1
 30 498 l 1
EndSplineSet
Validated: 1
EndChar

StartChar: tbar
Encoding: 359 359 510
Width: 708
Flags: MW
LayerCount: 2
Fore
SplineSet
429 40 m 0
 457 40 478 60 478 90 c 2
 478 149 l 1
 678 149 l 1
 678 90 l 2
 678 55 655 35 628 22 c 0
 592 4 526 -10 429 -10 c 0
 332 -10 265 5 229 22 c 0
 202 35 179 55 179 90 c 2
 179 249 l 1
 30 249 l 1
 30 299 l 1
 179 299 l 1
 179 448 l 1
 30 448 l 1
 30 498 l 1
 179 498 l 1
 179 648 l 1
 379 648 l 1
 379 498 l 1
 528 498 l 1
 528 448 l 1
 379 448 l 1
 379 299 l 1
 528 299 l 1
 528 249 l 1
 379 249 l 1
 379 90 l 2
 379 60 401 40 429 40 c 0
EndSplineSet
Validated: 1
EndChar

StartChar: eng
Encoding: 331 331 511
Width: 558
Flags: MW
LayerCount: 2
Fore
SplineSet
279 -150 m 4
 307 -150 329 -130 329 -100 c 6
 329 399 l 6
 329 429 307 448 279 448 c 4
 251 448 229 429 229 399 c 4
 229 266 229 133 229 0 c 5
 30 0 l 5
 30 498 l 5
 229 498 l 5
 229 497 l 5
 245 498 261 498 279 498 c 4
 376 498 442 483 478 466 c 4
 505 453 528 434 528 399 c 6
 528 -100 l 6
 528 -135 505 -155 478 -168 c 4
 442 -186 376 -200 279 -200 c 4
 182 -200 116 -185 80 -168 c 4
 53 -155 30 -135 30 -100 c 6
 30 -51 l 5
 229 -51 l 5
 229 -100 l 6
 229 -130 251 -150 279 -150 c 4
EndSplineSet
Validated: 1
EndChar

StartChar: Eng
Encoding: 330 330 512
Width: 558
Flags: MW
LayerCount: 2
Fore
SplineSet
279 -150 m 0
 307 -150 329 -130 329 -100 c 2
 329 548 l 2
 329 578 307 597 279 597 c 0
 251 597 229 578 229 548 c 0
 229 365 229 183 229 0 c 1
 30 0 l 1
 30 647 l 1
 229 647 l 1
 229 646 l 1
 245 647 261 647 279 647 c 0
 376 647 442 632 478 615 c 0
 505 602 528 583 528 548 c 2
 528 -100 l 2
 528 -135 505 -155 478 -168 c 0
 442 -186 376 -200 279 -200 c 0
 182 -200 116 -185 80 -168 c 0
 53 -155 30 -135 30 -100 c 2
 30 -51 l 1
 229 -51 l 1
 229 -100 l 2
 229 -130 251 -150 279 -150 c 0
EndSplineSet
Validated: 1
EndChar

StartChar: Lslash
Encoding: 321 321 513
Width: 807
Flags: MW
LayerCount: 2
Fore
SplineSet
209 149 m 1
 10 149 l 1
 259 320 l 1
 259 647 l 1
 458 647 l 1
 458 456 l 1
 518 497 l 1
 717 497 l 1
 458 320 l 1
 458 -50 l 1
 558 -50 l 1
 558 49 l 1
 757 49 l 1
 757 -100 l 1
 259 -100 l 1
 259 183 l 1
 209 149 l 1
EndSplineSet
Validated: 1
EndChar

StartChar: lslash
Encoding: 322 322 514
Width: 807
Flags: MW
LayerCount: 2
Fore
SplineSet
209 149 m 1
 10 149 l 1
 259 320 l 1
 259 648 l 1
 458 648 l 1
 458 456 l 1
 518 497 l 1
 717 497 l 1
 458 320 l 1
 458 90 l 2
 458 60 480 40 508 40 c 0
 536 40 558 60 558 90 c 2
 558 149 l 1
 757 149 l 1
 757 90 l 2
 757 55 734 35 707 22 c 0
 671 4 605 -10 508 -10 c 0
 411 -10 345 4 309 22 c 0
 282 35 259 55 259 90 c 2
 259 183 l 1
 209 149 l 1
EndSplineSet
Validated: 1
EndChar

StartChar: germandbls
Encoding: 223 223 517
Width: 709
Flags: HMW
LayerCount: 2
Fore
SplineSet
315 652 m 0
 328 652 340 652 351 652 c 0
 414 652 439 650 477 641 c 0
 529 629 593 605 607 547 c 1
 608 535 608 521 608 506 c 0
 608 486 608 463 608 445 c 0
 608 441 608 436 608 432 c 0
 608 427 609 423 609 419 c 0
 609 362 579 316 526 298 c 0
 515 296 511 293 511 292 c 0
 511 289 532 288 544 285 c 0
 593 274 653 258 673 206 c 1
 677 189 678 171 678 154 c 0
 678 140 678 127 678 113 c 0
 678 107 678 101 678 95 c 0
 678 91 678 86 678 82 c 0
 678 68 679 53 679 39 c 0
 679 22 677 5 671 -11 c 1
 644 -62 583 -76 531 -86 c 0
 484 -97 432 -99 380 -99 c 0
 350 -99 320 -99 291 -99 c 4
 281 -99 270 -99 260 -99 c 1
 260 51 l 1
 439 51 l 1
 439 -27 l 1
 439 -27 477 -16 478 22 c 0
 479 58 479 93 479 127 c 0
 479 141 479 155 479 168 c 0
 478 214 452 242 414 248 c 0
 395 250 375 250 356 250 c 0
 338 250 320 250 302 250 c 0
 295 250 287 250 280 250 c 1
 280 325 l 1
 353 325 l 1
 389 332 409 357 409 400 c 0
 409 426 409 454 409 481 c 0
 409 493 409 505 409 516 c 0
 408 559 379 599 320 599 c 0
 261 599 231 584 229 557 c 0
 229 431 229 279 229 127 c 0
 229 50 229 -27 229 -100 c 1
 162 -100 97 -100 30 -100 c 1
 30 -50 l 2
 30 15 30 82 30 150 c 0
 30 284 30 420 30 554 c 0
 30 598 76 622 115 632 c 0
 168 645 224 651 315 652 c 0
EndSplineSet
Validated: 1
EndChar
